<svg id="svg" version="1.1" width="400" height="163" xmlns="http://www.w3.org/2000/svg" xmlns:xlink="http://www.w3.org/1999/xlink" style="display: block;"><g id="svgg"><path id="path0" d="M270.167 13.988 C 268.769 14.553,267.343 16.611,266.577 19.168 C 266.176 20.506,265.692 21.600,265.501 21.600 C 265.309 21.600,265.270 21.789,265.413 22.021 C 265.734 22.541,264.131 27.182,263.247 28.291 C 262.460 29.280,251.972 37.152,228.199 54.600 C 219.880 60.705,207.735 70.071,202.678 74.280 C 200.497 76.095,198.881 77.163,198.522 77.025 C 198.199 76.901,197.863 76.800,197.775 76.800 C 197.431 76.800,195.988 73.559,195.909 72.609 C 195.863 72.054,195.677 71.600,195.495 71.600 C 195.314 71.600,195.204 71.375,195.252 71.100 C 195.299 70.825,195.146 70.150,194.911 69.600 C 194.676 69.050,193.718 66.530,192.783 64.000 C 187.444 49.564,180.795 41.269,172.600 38.818 C 171.720 38.555,170.730 38.237,170.400 38.112 C 170.070 37.987,169.323 37.923,168.740 37.969 C 168.156 38.014,167.561 37.860,167.416 37.626 C 167.066 37.059,162.524 37.076,162.172 37.646 C 162.007 37.912,161.273 38.008,160.348 37.884 C 159.497 37.770,158.800 37.839,158.800 38.038 C 158.800 38.237,158.485 38.402,158.100 38.405 C 148.443 38.479,134.198 53.946,129.923 69.000 C 129.423 70.760,128.921 72.290,128.807 72.400 C 128.693 72.510,128.542 73.317,128.471 74.194 C 128.400 75.071,128.220 75.881,128.071 75.994 C 127.922 76.107,127.746 77.190,127.680 78.400 C 127.615 79.610,127.408 80.654,127.221 80.720 C 127.034 80.786,126.977 81.551,127.093 82.420 C 127.216 83.334,127.139 84.000,126.911 84.000 C 126.680 84.000,126.596 84.819,126.708 85.983 C 126.813 87.074,126.764 88.289,126.600 88.683 C 126.219 89.600,126.206 101.763,126.586 102.377 C 126.743 102.631,126.827 103.865,126.773 105.120 C 126.718 106.374,126.815 107.724,126.987 108.119 C 127.159 108.515,127.207 109.533,127.093 110.382 C 126.979 111.231,127.067 112.107,127.288 112.328 C 127.510 112.550,127.620 113.466,127.535 114.365 C 127.449 115.264,127.535 116.000,127.726 116.000 C 127.917 116.000,128.027 116.855,127.970 117.900 C 127.912 118.945,128.008 120.124,128.183 120.519 C 128.357 120.915,128.405 121.950,128.288 122.819 C 128.160 123.773,128.239 124.400,128.488 124.400 C 128.742 124.400,128.829 125.241,128.717 126.600 C 128.616 127.810,128.684 128.800,128.867 128.800 C 129.050 128.800,129.200 130.150,129.200 131.800 C 129.200 133.571,129.033 134.800,128.792 134.800 C 128.558 134.800,128.491 135.223,128.634 135.795 C 128.772 136.342,128.680 138.277,128.430 140.095 C 128.180 141.913,127.921 144.525,127.854 145.900 C 127.787 147.275,127.613 148.520,127.466 148.667 C 127.040 149.093,127.159 154.728,127.600 155.000 C 127.820 155.136,128.001 155.732,128.002 156.324 C 128.022 166.005,136.249 163.410,136.637 153.600 C 136.685 152.390,136.845 150.770,136.992 150.000 C 137.139 149.230,137.316 148.239,137.384 147.797 C 137.812 145.028,139.984 141.747,141.980 140.853 C 144.525 139.714,261.551 139.911,263.100 141.058 C 265.766 143.029,266.441 145.675,266.558 154.600 C 266.581 156.360,266.692 157.890,266.805 158.000 C 266.918 158.110,267.188 158.722,267.405 159.359 C 268.007 161.126,269.634 162.158,271.319 161.842 C 276.944 160.786,278.014 149.262,273.626 137.000 C 273.153 135.680,272.845 134.294,272.941 133.919 C 273.037 133.545,272.948 133.183,272.745 133.115 C 272.260 132.953,271.767 126.001,272.241 125.997 C 272.438 125.995,272.635 125.053,272.678 123.904 C 272.721 122.755,272.947 121.751,273.180 121.673 C 273.414 121.595,273.503 121.367,273.378 121.165 C 273.254 120.964,273.613 119.288,274.176 117.442 C 274.739 115.595,275.200 113.795,275.200 113.442 C 275.200 113.089,275.374 112.800,275.587 112.800 C 275.801 112.800,275.875 112.539,275.752 112.219 C 275.629 111.900,275.664 111.420,275.829 111.153 C 276.673 109.787,276.673 102.317,275.829 99.428 C 274.177 93.774,268.108 92.554,266.989 97.650 C 266.850 98.283,266.616 98.800,266.468 98.800 C 266.321 98.800,266.177 99.880,266.148 101.200 C 266.005 107.856,265.905 109.153,265.390 111.000 C 264.637 113.701,262.723 116.612,261.173 117.414 C 260.027 118.007,154.946 118.417,142.956 117.876 C 139.438 117.717,136.626 115.297,136.196 112.058 C 136.118 111.476,136.015 110.910,135.965 110.800 C 135.636 110.069,135.511 107.874,135.510 102.800 C 135.508 94.729,135.564 93.669,136.011 93.393 C 136.227 93.260,136.298 92.732,136.169 92.219 C 136.040 91.707,136.133 91.165,136.374 91.016 C 136.616 90.867,136.727 90.605,136.622 90.435 C 135.835 89.163,140.186 79.160,143.366 74.930 C 147.719 69.139,157.127 62.519,159.191 63.794 C 159.416 63.933,159.600 63.831,159.600 63.568 C 159.600 62.959,168.897 63.292,169.103 63.908 C 169.177 64.132,169.590 64.223,170.019 64.111 C 170.449 63.999,170.800 64.102,170.800 64.341 C 170.800 64.580,171.035 64.685,171.321 64.575 C 173.046 63.913,180.253 69.143,183.483 73.400 C 185.079 75.504,187.291 79.929,186.990 80.416 C 186.860 80.627,186.917 80.800,187.118 80.800 C 187.633 80.800,189.323 86.687,189.077 87.626 C 188.966 88.052,189.058 88.400,189.281 88.400 C 189.510 88.400,189.616 89.012,189.524 89.800 C 189.434 90.570,189.532 91.200,189.742 91.200 C 190.277 91.200,189.758 103.747,189.216 103.928 C 188.683 104.106,188.668 106.800,189.200 106.800 C 189.420 106.800,189.601 107.205,189.601 107.700 C 189.604 109.345,191.034 111.133,192.578 111.422 C 195.095 111.894,195.701 111.486,197.183 108.315 C 200.764 100.654,204.670 96.901,224.800 81.782 C 262.211 53.685,267.834 49.034,270.578 43.916 C 271.438 42.312,272.244 40.910,272.371 40.800 C 272.497 40.690,272.654 40.330,272.719 40.000 C 272.785 39.670,273.345 38.140,273.963 36.600 C 274.582 35.060,275.233 33.440,275.410 33.000 C 275.586 32.560,275.769 32.065,275.815 31.900 C 275.862 31.735,275.943 31.465,275.996 31.300 C 276.049 31.135,276.134 30.820,276.185 30.600 C 276.236 30.380,276.321 30.110,276.372 30.000 C 279.266 23.861,274.725 12.144,270.167 13.988 " stroke="none" fill="#e6672d" fill-rule="evenodd"></path><path id="path1" d="M163.200 8.400 C 162.444 9.156,162.400 9.733,162.400 18.804 L 162.400 28.407 163.543 29.604 C 164.592 30.701,166.375 31.330,165.800 30.400 C 165.664 30.180,165.806 30.000,166.114 30.000 C 167.831 30.000,168.000 29.005,168.000 18.869 C 168.000 8.095,167.877 7.600,165.200 7.600 C 164.533 7.600,163.644 7.956,163.200 8.400 M270.200 13.578 C 269.760 13.758,269.041 14.332,268.603 14.853 L 267.806 15.800 268.803 14.930 C 270.109 13.790,271.698 13.421,272.863 13.988 C 273.756 14.423,273.763 14.415,273.024 13.822 C 272.174 13.141,271.426 13.077,270.200 13.578 M141.878 15.244 C 140.829 15.855,140.345 17.402,140.815 18.640 C 141.189 19.623,141.691 20.439,145.840 26.807 C 146.774 28.241,147.597 29.666,147.669 29.974 C 148.082 31.737,152.400 35.412,152.400 34.000 C 152.400 33.780,152.659 33.600,152.976 33.600 C 153.849 33.600,155.182 30.245,154.440 29.918 C 154.292 29.853,152.761 27.460,151.038 24.600 C 145.111 14.763,144.238 13.871,141.878 15.244 M186.266 16.433 C 185.460 17.331,184.800 18.165,184.800 18.288 C 184.800 18.410,183.837 19.791,182.661 21.355 C 181.484 22.920,179.512 25.640,178.279 27.400 C 177.045 29.160,175.893 30.780,175.718 31.000 C 173.518 33.768,178.454 36.123,180.748 33.400 C 181.489 32.520,182.269 31.690,182.482 31.555 C 182.694 31.421,182.808 31.232,182.734 31.136 C 182.660 31.039,184.622 28.180,187.094 24.780 C 191.847 18.242,192.409 16.856,190.869 15.462 C 189.553 14.271,187.891 14.622,186.266 16.433 M275.141 16.777 C 275.718 17.858,276.250 18.684,276.323 18.611 C 276.514 18.420,274.881 15.297,274.452 15.032 C 274.254 14.910,274.564 15.695,275.141 16.777 M277.293 23.600 C 277.293 24.370,277.375 24.685,277.476 24.300 C 277.576 23.915,277.576 23.285,277.476 22.900 C 277.375 22.515,277.293 22.830,277.293 23.600 M127.800 30.713 C 126.663 31.689,126.927 33.740,128.325 34.786 C 128.916 35.229,129.580 35.738,129.800 35.918 C 130.020 36.098,130.339 36.272,130.509 36.306 C 131.774 36.557,139.201 41.050,139.206 41.568 C 139.211 42.063,139.285 42.085,139.548 41.670 C 139.821 41.241,140.002 41.259,140.513 41.770 C 141.399 42.656,141.867 42.565,143.294 41.232 C 145.977 38.724,145.396 37.979,137.219 33.435 C 130.753 29.841,129.304 29.423,127.800 30.713 M201.600 33.080 C 201.270 33.200,200.370 33.589,199.600 33.945 C 198.830 34.302,198.110 34.611,198.000 34.633 C 197.890 34.655,197.116 34.977,196.280 35.350 C 193.062 36.785,190.878 37.544,190.644 37.310 C 190.510 37.176,190.400 37.253,190.400 37.480 C 190.400 37.707,189.339 38.280,188.042 38.753 C 185.756 39.586,184.400 40.853,184.400 42.157 C 184.400 43.110,187.255 45.253,187.857 44.752 C 188.137 44.521,188.537 44.438,188.748 44.568 C 188.959 44.698,189.192 44.659,189.266 44.481 C 189.467 43.996,197.651 40.784,198.053 41.033 C 198.244 41.151,198.400 41.085,198.400 40.887 C 198.400 40.689,199.659 40.033,201.197 39.429 C 204.738 38.040,205.942 36.621,205.047 34.892 C 204.590 34.007,202.761 32.645,202.281 32.832 C 202.237 32.849,201.930 32.961,201.600 33.080 M161.000 37.600 C 160.864 37.820,161.023 38.000,161.353 38.000 C 161.683 38.000,162.064 37.820,162.200 37.600 C 162.336 37.380,162.177 37.200,161.847 37.200 C 161.517 37.200,161.136 37.380,161.000 37.600 M143.781 45.700 L 142.200 47.400 143.900 45.819 C 144.835 44.949,145.600 44.184,145.600 44.119 C 145.600 43.816,145.252 44.119,143.781 45.700 M186.839 51.376 C 187.301 52.159,187.756 52.800,187.850 52.800 C 188.134 52.800,186.836 50.469,186.402 50.201 C 186.180 50.064,186.377 50.593,186.839 51.376 M227.200 55.000 C 226.455 55.550,226.015 55.994,226.222 55.986 C 226.624 55.970,229.155 54.005,228.778 54.002 C 228.655 54.001,227.945 54.450,227.200 55.000 M133.580 59.239 C 133.120 60.140,132.813 60.946,132.897 61.030 C 132.981 61.114,133.441 60.376,133.919 59.391 C 135.009 57.147,134.715 57.015,133.580 59.239 M154.300 65.227 C 153.475 65.663,152.800 66.108,152.800 66.218 C 152.800 66.327,153.520 66.049,154.400 65.600 C 155.280 65.151,156.000 64.697,156.000 64.592 C 156.000 64.330,155.997 64.331,154.300 65.227 M193.717 66.385 C 193.963 67.036,194.226 67.508,194.301 67.432 C 194.551 67.183,193.920 65.200,193.591 65.200 C 193.414 65.200,193.471 65.733,193.717 66.385 M180.000 69.800 C 180.746 70.570,181.447 71.200,181.557 71.200 C 181.667 71.200,181.146 70.570,180.400 69.800 C 179.654 69.030,178.953 68.400,178.843 68.400 C 178.733 68.400,179.254 69.030,180.000 69.800 M146.185 71.700 L 144.200 73.800 146.300 71.815 C 147.455 70.723,148.400 69.778,148.400 69.715 C 148.400 69.417,148.029 69.749,146.185 71.700 M197.776 76.578 C 198.701 77.318,199.200 77.373,199.200 76.733 C 199.200 76.477,199.086 76.380,198.947 76.519 C 198.808 76.658,198.313 76.588,197.847 76.364 C 197.024 75.967,197.022 75.973,197.776 76.578 M230.600 77.444 L 229.000 78.876 230.800 77.561 C 231.790 76.837,232.675 76.190,232.767 76.123 C 232.858 76.055,232.768 76.003,232.567 76.006 C 232.365 76.009,231.480 76.656,230.600 77.444 M126.262 87.747 C 126.097 88.378,126.056 88.989,126.171 89.104 C 126.493 89.427,126.887 88.138,126.715 87.323 C 126.603 86.790,126.484 86.901,126.262 87.747 M189.200 91.800 C 189.200 92.130,189.380 92.400,189.600 92.400 C 189.820 92.400,190.000 92.130,190.000 91.800 C 190.000 91.470,189.820 91.200,189.600 91.200 C 189.380 91.200,189.200 91.470,189.200 91.800 M135.754 93.777 C 135.632 94.094,135.603 94.679,135.689 95.077 C 135.787 95.528,135.924 95.312,136.054 94.500 C 136.271 93.138,136.130 92.796,135.754 93.777 M269.600 94.406 C 269.178 94.682,269.415 94.723,270.400 94.542 C 272.125 94.225,272.451 93.998,271.167 94.006 C 270.635 94.009,269.930 94.189,269.600 94.406 M273.957 95.689 C 274.483 96.285,275.242 97.724,275.644 98.886 C 276.045 100.049,276.376 100.640,276.378 100.200 C 276.385 98.982,275.029 96.297,273.956 95.403 L 273.000 94.606 273.957 95.689 M135.314 99.400 C 135.317 100.500,135.395 100.903,135.487 100.295 C 135.579 99.686,135.577 98.786,135.482 98.295 C 135.387 97.803,135.311 98.300,135.314 99.400 M189.492 99.042 C 189.331 99.202,189.200 99.609,189.200 99.947 C 189.200 100.397,189.318 100.442,189.645 100.115 C 189.890 99.870,190.021 99.463,189.937 99.210 C 189.852 98.957,189.652 98.881,189.492 99.042 M265.897 101.600 C 265.740 102.150,265.628 103.320,265.649 104.200 L 265.688 105.800 266.049 104.000 C 266.483 101.844,266.364 99.971,265.897 101.600 M126.263 103.280 C 126.600 105.049,126.800 105.201,126.800 103.690 C 126.800 103.007,126.623 102.338,126.406 102.204 C 126.160 102.052,126.106 102.455,126.263 103.280 M135.253 105.000 C 135.230 106.540,135.353 108.021,135.525 108.292 C 135.696 108.562,135.774 107.572,135.696 106.092 C 135.495 102.233,135.299 101.751,135.253 105.000 M276.531 105.000 C 276.533 106.540,276.605 107.121,276.692 106.291 C 276.779 105.461,276.777 104.201,276.689 103.491 C 276.600 102.781,276.529 103.460,276.531 105.000 M136.218 112.500 C 136.368 112.995,136.655 113.576,136.856 113.791 C 137.057 114.006,137.019 113.601,136.772 112.891 C 136.265 111.438,135.797 111.108,136.218 112.500 M263.800 114.000 C 263.459 114.660,263.269 115.200,263.379 115.200 C 263.489 115.200,263.859 114.660,264.200 114.000 C 264.541 113.340,264.731 112.800,264.621 112.800 C 264.511 112.800,264.141 113.340,263.800 114.000 M275.069 114.100 C 274.940 114.815,274.553 116.294,274.210 117.387 C 273.867 118.480,273.751 119.200,273.952 118.987 C 274.481 118.429,275.999 112.800,275.622 112.800 C 275.447 112.800,275.199 113.385,275.069 114.100 M144.506 117.840 C 144.818 118.151,258.784 118.149,259.096 117.837 C 259.227 117.707,233.443 117.600,201.800 117.600 C 170.157 117.600,144.374 117.708,144.506 117.840 M128.555 131.800 C 128.541 133.450,128.680 134.800,128.865 134.800 C 129.049 134.800,129.200 133.450,129.200 131.800 C 129.200 130.150,129.061 128.800,128.891 128.800 C 128.721 128.800,128.570 130.150,128.555 131.800 M273.595 137.181 C 273.804 137.911,274.086 138.619,274.220 138.754 C 274.596 139.129,273.944 136.652,273.555 136.227 C 273.368 136.022,273.385 136.451,273.595 137.181 M276.520 150.800 C 276.520 152.010,276.595 152.505,276.687 151.900 C 276.778 151.295,276.778 150.305,276.687 149.700 C 276.595 149.095,276.520 149.590,276.520 150.800 M266.087 151.600 C 266.091 152.590,266.232 153.940,266.400 154.600 C 266.661 155.625,266.706 155.509,266.713 153.800 C 266.717 152.700,266.576 151.350,266.400 150.800 C 266.140 149.988,266.081 150.139,266.087 151.600 M276.101 154.600 C 276.105 155.480,276.187 155.793,276.283 155.295 C 276.379 154.798,276.375 154.078,276.275 153.695 C 276.175 153.313,276.096 153.720,276.101 154.600 M135.577 158.806 C 135.235 159.876,135.087 160.670,135.248 160.570 C 135.643 160.326,136.498 157.687,136.332 157.226 C 136.259 157.025,135.920 157.736,135.577 158.806 " stroke="none" fill="#ffad42" fill-rule="evenodd"></path><path id="path2" d="M72.400 0.265 C 65.882 0.903,59.905 2.205,54.625 4.139 C 53.099 4.698,51.720 5.074,51.559 4.975 C 51.399 4.876,51.208 4.942,51.134 5.121 C 51.060 5.300,49.470 6.049,47.600 6.785 C 28.012 14.490,9.921 32.086,5.123 48.099 C 4.876 48.924,4.511 49.600,4.313 49.600 C 4.115 49.600,4.056 49.768,4.183 49.972 C 4.309 50.177,4.227 50.460,4.000 50.600 C 3.773 50.740,3.679 51.004,3.791 51.185 C 3.903 51.366,3.710 52.299,3.363 53.257 C 3.015 54.216,2.684 55.180,2.626 55.400 C 2.568 55.620,2.413 56.070,2.282 56.400 C -0.401 63.129,-0.463 84.791,2.171 95.000 C 2.560 96.509,3.275 99.400,3.407 100.000 C 3.479 100.330,3.575 100.645,3.619 100.700 C 3.664 100.755,3.745 100.980,3.800 101.200 C 3.855 101.420,3.945 101.690,4.000 101.800 C 4.055 101.910,4.125 102.135,4.156 102.300 C 4.187 102.465,4.332 102.787,4.478 103.017 C 4.624 103.246,5.200 104.644,5.757 106.123 C 11.180 120.533,25.954 136.305,38.978 141.591 C 40.200 142.087,41.200 142.663,41.200 142.870 C 41.200 143.077,41.348 143.156,41.529 143.044 C 41.711 142.932,43.449 143.371,45.393 144.020 C 47.337 144.669,49.169 145.200,49.464 145.200 C 49.759 145.200,50.000 145.363,50.000 145.563 C 50.000 145.762,50.360 145.831,50.800 145.716 C 51.240 145.601,51.600 145.702,51.600 145.941 C 51.600 146.180,51.861 146.275,52.181 146.152 C 52.500 146.029,52.995 146.075,53.281 146.252 C 53.566 146.430,54.188 146.525,54.662 146.464 C 55.136 146.403,55.631 146.526,55.762 146.739 C 55.893 146.951,56.358 147.032,56.794 146.917 C 57.231 146.803,57.906 146.847,58.294 147.015 C 59.997 147.750,123.415 148.034,126.663 147.321 C 127.417 147.156,127.558 146.770,127.784 144.266 C 127.926 142.690,128.133 140.921,128.245 140.335 C 128.453 139.247,127.405 138.486,126.059 138.749 C 125.761 138.807,125.221 138.732,124.859 138.583 C 124.496 138.434,123.627 138.271,122.926 138.219 C 121.377 138.106,119.851 137.155,118.906 135.712 C 118.080 134.453,117.635 19.438,118.437 14.635 C 119.280 9.586,120.687 8.583,127.355 8.282 C 132.839 8.034,133.536 7.659,133.982 4.719 C 134.308 2.568,133.040 0.956,130.571 0.383 C 129.138 0.051,75.699 -0.058,72.400 0.265 M268.841 0.391 C 266.556 0.950,265.302 2.634,265.618 4.719 C 266.056 7.604,266.740 7.982,272.020 8.256 C 278.833 8.610,280.337 9.657,281.157 14.617 C 281.661 17.671,281.727 131.985,281.225 134.139 C 280.630 136.693,279.285 137.732,275.477 138.577 C 274.531 138.787,274.401 138.966,274.647 139.713 C 274.808 140.201,275.340 142.130,275.829 144.000 L 276.718 147.400 281.659 147.616 C 287.346 147.865,335.899 147.634,339.200 147.343 C 342.484 147.053,343.329 146.925,344.100 146.605 C 344.485 146.445,345.058 146.414,345.374 146.535 C 345.690 146.656,346.005 146.584,346.075 146.376 C 346.144 146.167,346.965 145.952,347.899 145.898 C 348.832 145.844,349.597 145.665,349.598 145.500 C 349.599 145.335,349.861 145.200,350.181 145.200 C 350.500 145.200,352.335 144.671,354.259 144.025 C 356.183 143.378,357.901 142.939,358.078 143.048 C 358.255 143.158,358.400 143.086,358.400 142.889 C 358.400 142.692,359.481 142.064,360.803 141.494 C 362.125 140.924,364.541 139.612,366.172 138.579 C 367.803 137.546,369.231 136.712,369.345 136.725 C 369.460 136.739,370.059 136.316,370.677 135.785 C 371.295 135.255,373.150 133.725,374.800 132.385 C 382.933 125.781,392.205 112.527,395.007 103.500 C 395.058 103.335,395.145 103.110,395.200 103.000 C 395.255 102.890,395.345 102.620,395.400 102.400 C 395.455 102.180,395.545 101.910,395.600 101.800 C 395.655 101.690,395.745 101.420,395.800 101.200 C 395.855 100.980,395.936 100.755,395.980 100.700 C 396.024 100.645,396.138 100.150,396.233 99.600 C 396.329 99.050,396.583 98.150,396.799 97.600 C 400.148 89.048,400.265 64.403,396.999 55.400 C 396.680 54.520,396.338 53.350,396.239 52.800 C 396.140 52.250,396.024 51.755,395.980 51.700 C 395.936 51.645,395.855 51.420,395.800 51.200 C 395.745 50.980,395.655 50.710,395.600 50.600 C 395.545 50.490,395.461 50.265,395.414 50.100 C 394.751 47.791,390.334 39.023,388.207 35.794 C 379.602 22.726,367.128 12.729,352.000 6.776 C 350.130 6.040,348.540 5.293,348.466 5.116 C 348.392 4.940,348.201 4.876,348.041 4.975 C 347.880 5.074,346.501 4.699,344.975 4.141 C 343.449 3.584,341.930 3.072,341.600 3.005 C 341.270 2.938,340.010 2.598,338.800 2.251 C 332.027 0.307,331.540 0.281,300.000 0.167 C 283.610 0.107,269.588 0.208,268.841 0.391 M90.356 9.370 C 92.422 9.680,94.222 10.084,94.356 10.267 C 94.490 10.450,95.050 10.651,95.600 10.713 C 97.343 10.910,99.617 12.736,100.442 14.602 C 101.533 17.068,101.455 128.800,100.361 131.203 C 99.045 134.093,94.644 137.405,91.690 137.728 C 91.071 137.796,90.338 137.991,90.063 138.161 C 89.787 138.332,89.277 138.362,88.930 138.229 C 88.583 138.095,88.051 138.192,87.748 138.443 C 87.442 138.697,86.673 138.795,86.015 138.663 C 85.364 138.533,84.750 138.557,84.651 138.717 C 84.263 139.346,62.163 138.795,61.086 138.130 C 60.839 137.977,60.088 137.793,59.418 137.721 C 51.502 136.875,38.983 127.363,32.407 117.200 C 30.342 114.007,25.180 103.590,25.093 102.439 C 25.058 101.978,24.869 101.600,24.672 101.600 C 24.475 101.600,24.411 101.348,24.530 101.039 C 24.648 100.731,24.622 100.356,24.472 100.206 C 24.323 100.056,24.185 99.813,24.166 99.667 C 24.148 99.520,23.906 98.860,23.629 98.200 C 23.352 97.540,23.097 96.326,23.062 95.502 C 23.028 94.679,22.844 94.004,22.653 94.002 C 22.463 94.001,22.392 93.556,22.495 93.014 C 22.599 92.472,22.500 91.967,22.277 91.892 C 22.039 91.813,21.855 90.058,21.835 87.678 C 21.816 85.435,21.686 83.600,21.546 83.600 C 21.406 83.600,21.374 82.655,21.475 81.500 C 21.676 79.191,21.951 71.802,21.958 68.500 C 21.960 67.345,22.106 66.399,22.281 66.398 C 22.457 66.398,22.635 65.137,22.677 63.597 C 22.719 62.058,22.894 60.574,23.065 60.299 C 23.236 60.025,23.323 59.395,23.259 58.900 C 23.195 58.405,23.291 57.999,23.471 57.997 C 23.652 57.996,23.839 57.155,23.886 56.129 C 23.933 55.104,24.181 54.135,24.437 53.977 C 24.693 53.819,24.788 53.504,24.648 53.278 C 24.509 53.052,24.600 52.357,24.851 51.734 C 25.102 51.110,25.360 50.210,25.423 49.733 C 25.610 48.327,29.322 39.928,31.234 36.585 C 34.560 30.769,41.907 22.891,47.634 19.000 C 48.605 18.340,49.850 17.391,50.400 16.890 C 51.733 15.678,58.690 12.285,59.198 12.599 C 59.419 12.736,59.600 12.680,59.600 12.476 C 59.600 12.001,64.276 10.676,64.803 11.002 C 65.021 11.137,65.200 11.036,65.200 10.777 C 65.200 10.504,65.535 10.394,66.000 10.516 C 66.440 10.631,66.800 10.541,66.800 10.316 C 66.800 10.091,67.244 9.992,67.786 10.095 C 68.328 10.199,68.823 10.142,68.886 9.970 C 69.263 8.933,84.592 8.504,90.356 9.370 M326.231 9.236 C 328.634 9.476,330.651 9.810,330.714 9.978 C 330.777 10.146,331.272 10.199,331.814 10.095 C 332.356 9.992,332.801 10.063,332.802 10.253 C 332.803 10.444,333.474 10.635,334.294 10.678 C 335.114 10.721,335.849 10.947,335.927 11.181 C 336.005 11.414,336.229 11.506,336.426 11.384 C 336.912 11.084,340.000 12.036,340.000 12.487 C 340.000 12.685,340.184 12.733,340.410 12.594 C 341.172 12.123,347.376 15.516,351.800 18.823 C 360.570 25.381,366.808 32.747,370.623 41.052 C 371.621 43.223,372.608 45.360,372.816 45.800 C 373.386 47.005,374.390 50.014,374.327 50.326 C 374.296 50.477,374.481 51.110,374.738 51.734 C 374.995 52.357,375.091 53.052,374.952 53.278 C 374.812 53.504,374.907 53.819,375.163 53.977 C 375.419 54.135,375.667 55.104,375.714 56.129 C 375.761 57.155,375.938 57.996,376.106 57.997 C 376.275 57.999,376.399 58.495,376.383 59.100 C 376.367 59.705,376.549 61.100,376.788 62.200 C 377.027 63.300,377.190 64.560,377.152 65.000 C 377.113 65.440,377.220 66.122,377.389 66.515 C 377.559 66.909,377.585 67.933,377.448 68.791 C 377.296 69.738,377.367 70.456,377.628 70.617 C 377.913 70.793,377.986 72.347,377.844 75.241 C 377.726 77.639,377.781 79.600,377.965 79.600 C 378.149 79.600,378.300 80.590,378.300 81.800 C 378.300 83.010,378.137 84.000,377.939 84.000 C 377.734 84.000,377.693 85.123,377.844 86.600 C 378.002 88.140,377.958 89.200,377.736 89.200 C 377.529 89.200,377.434 89.830,377.524 90.600 C 377.629 91.494,377.519 92.000,377.220 92.000 C 376.963 92.000,376.866 92.183,377.004 92.406 C 377.281 92.855,376.539 96.836,375.885 98.400 C 375.655 98.950,375.429 99.535,375.384 99.700 C 375.338 99.865,375.255 100.090,375.200 100.200 C 375.145 100.310,375.055 100.580,375.000 100.800 C 374.945 101.020,374.864 101.245,374.820 101.300 C 374.776 101.355,374.661 101.850,374.564 102.400 C 374.229 104.303,368.425 115.463,365.989 118.887 C 360.075 127.201,348.567 136.292,343.200 136.889 C 342.650 136.950,342.096 137.141,341.968 137.313 C 341.841 137.485,341.121 137.689,340.368 137.767 C 339.616 137.844,338.682 138.039,338.294 138.199 C 337.906 138.359,337.231 138.397,336.794 138.283 C 336.357 138.168,336.000 138.245,336.000 138.453 C 336.000 138.662,335.235 138.824,334.300 138.813 C 333.365 138.803,328.669 138.842,323.864 138.901 C 319.060 138.960,315.048 138.877,314.949 138.717 C 314.850 138.557,314.236 138.533,313.585 138.663 C 312.901 138.800,312.156 138.695,311.819 138.415 C 311.498 138.149,311.039 138.053,310.798 138.201 C 310.558 138.349,310.055 138.341,309.681 138.183 C 309.306 138.024,308.501 137.830,307.892 137.750 C 304.757 137.340,300.128 133.710,299.123 130.875 C 298.702 129.687,298.600 118.271,298.600 72.169 L 298.600 14.938 299.689 13.510 C 300.802 12.051,304.076 10.152,304.755 10.572 C 304.962 10.700,305.197 10.608,305.278 10.367 C 305.700 9.100,318.142 8.429,326.231 9.236 " stroke="none" fill="#00b5c5" fill-rule="evenodd"></path></g></svg>