<svg id="svg" version="1.1" width="400" height="213" xmlns="http://www.w3.org/2000/svg" xmlns:xlink="http://www.w3.org/1999/xlink" style="display: block;"><g id="svgg"><path id="path0" d="M163.787 7.752 C 162.821 8.158,162.484 8.524,162.659 8.979 C 162.801 9.351,162.732 9.518,162.495 9.372 C 162.228 9.207,162.083 12.507,162.083 18.744 L 162.083 28.371 163.106 29.394 C 164.345 30.633,165.957 30.709,167.083 29.583 C 168.084 28.583,168.376 22.592,167.396 23.180 C 166.998 23.419,166.985 23.351,167.341 22.892 C 168.035 21.997,167.856 13.922,167.145 14.073 C 166.848 14.136,166.725 13.992,166.873 13.754 C 167.020 13.515,167.317 13.428,167.531 13.561 C 168.258 14.010,167.873 8.837,167.133 8.204 C 166.017 7.249,165.235 7.143,163.787 7.752 M142.748 15.064 C 142.938 15.371,142.862 15.432,142.538 15.232 C 141.786 14.767,140.417 16.212,140.417 17.471 C 140.417 18.772,144.990 26.306,145.564 25.951 C 145.783 25.815,145.837 25.907,145.685 26.154 C 145.352 26.692,147.023 29.670,147.494 29.379 C 147.675 29.267,147.797 29.408,147.765 29.692 C 147.734 29.976,147.896 30.208,148.125 30.208 C 148.354 30.208,148.490 30.054,148.427 29.865 C 148.364 29.676,148.514 29.646,148.760 29.798 C 149.076 29.993,149.071 30.239,148.741 30.635 C 147.841 31.720,150.026 34.167,151.895 34.167 C 153.056 34.167,154.583 32.494,154.583 31.223 C 154.583 30.189,151.551 24.837,151.178 25.211 C 151.065 25.324,150.972 25.158,150.972 24.843 C 150.972 23.304,145.118 14.865,144.275 15.189 C 143.963 15.309,143.821 15.222,143.961 14.995 C 144.101 14.769,143.819 14.583,143.333 14.583 C 142.772 14.583,142.559 14.759,142.748 15.064 M187.003 15.119 C 185.742 16.155,182.063 21.713,182.341 22.163 C 182.507 22.431,182.442 22.513,182.187 22.356 C 181.936 22.201,180.440 23.911,178.725 26.314 C 175.489 30.847,174.819 32.816,176.052 34.178 C 176.859 35.070,179.860 35.121,179.677 34.240 C 179.614 33.936,179.742 33.799,179.960 33.934 C 180.400 34.205,187.639 24.367,187.639 23.498 C 187.639 23.198,187.771 23.035,187.932 23.134 C 188.423 23.438,191.667 18.477,191.667 17.422 C 191.667 15.152,188.729 13.701,187.003 15.119 M128.750 30.025 C 128.750 30.267,128.575 30.358,128.362 30.226 C 127.889 29.933,126.667 31.593,126.667 32.528 C 126.667 33.566,128.567 35.579,129.185 35.197 C 129.493 35.006,129.608 35.040,129.461 35.277 C 129.229 35.652,138.445 40.997,140.741 41.819 C 141.893 42.232,143.952 41.497,143.534 40.821 C 143.390 40.587,143.509 40.448,143.798 40.511 C 144.437 40.649,144.746 39.456,144.415 38.135 C 144.140 37.039,141.440 35.262,140.697 35.687 C 140.428 35.841,140.347 35.814,140.517 35.626 C 140.913 35.189,132.105 30.354,131.543 30.701 C 131.311 30.845,131.243 30.765,131.392 30.525 C 131.540 30.284,131.366 29.974,131.005 29.835 C 129.971 29.438,128.750 29.541,128.750 30.025 M197.218 34.690 C 194.886 35.646,193.056 36.554,193.151 36.709 C 193.246 36.863,193.092 36.981,192.808 36.971 C 191.382 36.919,190.805 37.118,191.081 37.564 C 191.259 37.851,191.196 37.933,190.928 37.767 C 189.549 36.915,184.579 39.963,184.647 41.619 C 184.790 45.081,186.301 45.596,190.833 43.725 C 192.667 42.968,194.167 42.216,194.167 42.054 C 194.167 41.892,194.401 41.785,194.688 41.817 C 195.695 41.929,202.481 39.057,202.217 38.630 C 202.062 38.378,202.162 38.333,202.463 38.519 C 202.760 38.702,203.234 38.512,203.600 38.063 C 203.960 37.621,204.113 37.559,203.957 37.917 C 203.808 38.260,204.076 38.099,204.552 37.558 C 205.691 36.263,205.644 35.189,204.394 33.939 C 203.022 32.567,202.182 32.655,197.218 34.690 M162.813 37.805 C 163.786 37.893,165.380 37.893,166.354 37.805 C 167.328 37.717,166.531 37.646,164.583 37.646 C 162.635 37.646,161.839 37.717,162.813 37.805 M160.521 63.621 C 160.922 63.725,161.578 63.725,161.979 63.621 C 162.380 63.516,162.052 63.430,161.250 63.430 C 160.448 63.430,160.120 63.516,160.521 63.621 M163.646 63.627 C 164.161 63.727,165.005 63.727,165.521 63.627 C 166.036 63.528,165.615 63.447,164.583 63.447 C 163.552 63.447,163.130 63.528,163.646 63.627 M180.208 70.417 C 181.103 71.333,181.930 72.083,182.044 72.083 C 182.159 72.083,181.520 71.333,180.625 70.417 C 179.730 69.500,178.904 68.750,178.789 68.750 C 178.675 68.750,179.313 69.500,180.208 70.417 M125.967 92.083 C 125.967 93.573,126.042 94.182,126.135 93.438 C 126.227 92.693,126.227 91.474,126.135 90.729 C 126.042 89.984,125.967 90.594,125.967 92.083 M189.720 96.042 C 189.722 97.646,189.797 98.251,189.887 97.387 C 189.978 96.522,189.976 95.210,189.884 94.470 C 189.792 93.730,189.718 94.438,189.720 96.042 M125.970 99.375 C 125.972 100.979,126.047 101.584,126.137 100.720 C 126.228 99.855,126.226 98.543,126.134 97.803 C 126.042 97.064,125.968 97.771,125.970 99.375 M135.150 102.917 C 135.150 105.094,135.220 105.984,135.306 104.896 C 135.392 103.807,135.392 102.026,135.306 100.938 C 135.220 99.849,135.150 100.740,135.150 102.917 M276.363 103.333 C 276.363 104.365,276.445 104.786,276.544 104.271 C 276.643 103.755,276.643 102.911,276.544 102.396 C 276.445 101.880,276.363 102.302,276.363 103.333 M126.347 106.250 C 126.347 107.052,126.432 107.380,126.537 106.979 C 126.642 106.578,126.642 105.922,126.537 105.521 C 126.432 105.120,126.347 105.448,126.347 106.250 M265.530 106.667 C 265.530 107.698,265.611 108.120,265.711 107.604 C 265.810 107.089,265.810 106.245,265.711 105.729 C 265.611 105.214,265.530 105.635,265.530 106.667 M276.355 106.875 C 276.360 107.792,276.445 108.118,276.545 107.599 C 276.644 107.081,276.641 106.331,276.536 105.933 C 276.432 105.534,276.350 105.958,276.355 106.875 M193.021 111.954 C 193.422 112.059,194.078 112.059,194.479 111.954 C 194.880 111.849,194.552 111.763,193.750 111.763 C 192.948 111.763,192.620 111.849,193.021 111.954 M171.563 118.229 C 187.661 118.290,214.005 118.290,230.104 118.229 C 246.203 118.169,233.031 118.119,200.833 118.119 C 168.635 118.119,155.464 118.169,171.563 118.229 M128.430 137.500 C 128.430 138.302,128.516 138.630,128.621 138.229 C 128.725 137.828,128.725 137.172,128.621 136.771 C 128.516 136.370,128.430 136.698,128.430 137.500 M265.930 149.167 C 265.930 149.969,266.016 150.297,266.121 149.896 C 266.225 149.495,266.225 148.839,266.121 148.438 C 266.016 148.036,265.930 148.365,265.930 149.167 M135.104 167.371 C 135.505 167.475,136.161 167.475,136.563 167.371 C 136.964 167.266,136.635 167.180,135.833 167.180 C 135.031 167.180,134.703 167.266,135.104 167.371 M4.479 167.810 C 6.599 167.886,10.068 167.886,12.187 167.810 C 14.307 167.735,12.573 167.673,8.333 167.673 C 4.094 167.673,2.359 167.735,4.479 167.810 M124.063 167.794 C 124.578 167.893,125.422 167.893,125.938 167.794 C 126.453 167.695,126.031 167.613,125.000 167.613 C 123.969 167.613,123.547 167.695,124.063 167.794 M257.583 167.810 C 259.577 167.886,262.952 167.886,265.083 167.811 C 267.214 167.735,265.583 167.673,261.458 167.672 C 257.333 167.672,255.589 167.734,257.583 167.810 M11.771 169.882 C 12.401 169.977,13.432 169.977,14.063 169.882 C 14.693 169.786,14.177 169.708,12.917 169.708 C 11.656 169.708,11.141 169.786,11.771 169.882 M228.105 184.375 C 228.105 192.625,228.160 196.059,228.228 192.006 C 228.297 187.953,228.297 181.203,228.229 177.006 C 228.161 172.809,228.105 176.125,228.105 184.375 M265.104 169.882 C 265.734 169.977,266.766 169.977,267.396 169.882 C 268.026 169.786,267.510 169.708,266.250 169.708 C 264.990 169.708,264.474 169.786,265.104 169.882 M3.937 185.000 C 3.937 192.677,3.993 195.818,4.062 191.979 C 4.131 188.141,4.131 181.859,4.062 178.021 C 3.993 174.182,3.937 177.323,3.937 185.000 M8.103 184.583 C 8.103 192.031,8.159 195.078,8.228 191.354 C 8.297 187.630,8.297 181.536,8.228 177.813 C 8.159 174.089,8.103 177.135,8.103 184.583 M257.270 185.000 C 257.270 192.677,257.326 195.818,257.395 191.979 C 257.464 188.141,257.464 181.859,257.395 178.021 C 257.326 174.182,257.270 177.323,257.270 185.000 M261.436 184.583 C 261.436 192.031,261.493 195.078,261.562 191.354 C 261.631 187.630,261.631 181.536,261.562 177.813 C 261.493 174.089,261.436 177.135,261.436 184.583 M353.860 180.299 C 354.493 180.395,355.431 180.392,355.943 180.293 C 356.456 180.194,355.938 180.116,354.792 180.119 C 353.646 180.122,353.227 180.203,353.860 180.299 M102.610 184.882 C 103.243 184.978,104.181 184.976,104.693 184.877 C 105.206 184.778,104.688 184.699,103.542 184.703 C 102.396 184.706,101.977 184.787,102.610 184.882 M297.193 184.882 C 297.827 184.978,298.764 184.976,299.277 184.877 C 299.789 184.778,299.271 184.699,298.125 184.703 C 296.979 184.706,296.560 184.787,297.193 184.882 M176.922 185.758 C 176.806 185.946,177.263 186.018,177.939 185.919 C 178.614 185.820,179.167 185.666,179.167 185.578 C 179.167 185.260,177.128 185.424,176.922 185.758 M234.901 185.711 C 235.419 185.811,236.169 185.807,236.567 185.703 C 236.966 185.599,236.542 185.517,235.625 185.522 C 234.708 185.526,234.382 185.612,234.901 185.711 M369.037 185.687 C 369.538 185.795,370.043 186.201,370.159 186.588 C 370.310 187.094,370.345 187.058,370.284 186.458 C 370.227 185.893,369.867 185.603,369.162 185.557 C 368.293 185.500,368.273 185.521,369.037 185.687 M156.750 186.333 C 156.143 186.940,156.102 187.776,156.662 188.122 C 156.899 188.268,156.968 188.100,156.824 187.725 C 156.686 187.366,156.805 186.794,157.088 186.453 C 157.703 185.712,157.458 185.625,156.750 186.333 M183.462 188.542 C 183.465 189.917,183.543 190.429,183.635 189.680 C 183.728 188.931,183.726 187.806,183.631 187.180 C 183.536 186.554,183.460 187.167,183.462 188.542 M65.140 190.417 C 65.140 192.135,65.214 192.839,65.304 191.979 C 65.393 191.120,65.393 189.714,65.304 188.854 C 65.214 187.995,65.140 188.698,65.140 190.417 M72.498 193.874 L 72.705 199.375 72.824 194.201 C 72.890 191.355,72.797 188.879,72.618 188.699 C 72.438 188.519,72.385 190.848,72.498 193.874 M328.911 193.750 C 328.911 196.615,328.977 197.786,329.058 196.354 C 329.140 194.922,329.140 192.578,329.058 191.146 C 328.977 189.714,328.911 190.885,328.911 193.750 M61.408 193.750 C 61.408 196.385,61.475 197.464,61.558 196.146 C 61.641 194.828,61.641 192.672,61.558 191.354 C 61.475 190.036,61.408 191.115,61.408 193.750 M190.930 190.417 C 190.930 191.219,191.016 191.547,191.121 191.146 C 191.225 190.745,191.225 190.089,191.121 189.688 C 191.016 189.286,190.930 189.615,190.930 190.417 M377.658 193.750 C 377.658 196.385,377.725 197.464,377.808 196.146 C 377.891 194.828,377.891 192.672,377.808 191.354 C 377.725 190.036,377.658 191.115,377.658 193.750 M240.569 193.542 C 240.570 195.833,240.640 196.718,240.724 195.507 C 240.809 194.296,240.808 192.421,240.722 191.340 C 240.637 190.259,240.568 191.250,240.569 193.542 M357.597 190.833 C 357.597 191.635,357.682 191.964,357.787 191.563 C 357.892 191.161,357.892 190.505,357.787 190.104 C 357.682 189.703,357.597 190.031,357.597 190.833 M236.379 192.292 C 236.381 193.667,236.459 194.179,236.552 193.430 C 236.645 192.681,236.643 191.556,236.548 190.930 C 236.453 190.304,236.377 190.917,236.379 192.292 M183.486 195.208 C 183.487 197.500,183.557 198.384,183.641 197.174 C 183.725 195.963,183.725 194.088,183.639 193.007 C 183.554 191.926,183.484 192.917,183.486 195.208 M194.688 194.375 C 194.693 195.292,194.778 195.618,194.878 195.099 C 194.978 194.581,194.974 193.831,194.870 193.433 C 194.765 193.034,194.684 193.458,194.688 194.375 M355.875 194.331 C 355.146 195.106,355.060 195.400,355.489 195.648 C 355.793 195.823,355.899 195.810,355.725 195.619 C 355.551 195.427,355.818 194.834,356.319 194.302 C 356.819 193.769,357.135 193.333,357.020 193.333 C 356.906 193.333,356.390 193.782,355.875 194.331 M366.355 194.792 C 366.360 195.708,366.445 196.034,366.545 195.516 C 366.644 194.998,366.641 194.248,366.536 193.849 C 366.432 193.451,366.350 193.875,366.355 194.792 M65.133 196.250 C 65.133 197.740,65.209 198.349,65.301 197.604 C 65.394 196.859,65.394 195.641,65.301 194.896 C 65.209 194.151,65.133 194.760,65.133 196.250 M301.042 194.167 L 293.958 194.406 300.913 194.494 C 305.198 194.549,307.966 194.423,308.125 194.167 C 308.267 193.938,308.325 193.790,308.254 193.839 C 308.183 193.888,304.938 194.035,301.042 194.167 M102.813 194.477 C 104.703 194.554,107.797 194.554,109.688 194.477 C 111.578 194.399,110.031 194.336,106.250 194.336 C 102.469 194.336,100.922 194.399,102.813 194.477 M38.430 195.833 C 38.430 196.635,38.516 196.964,38.621 196.563 C 38.725 196.161,38.725 195.505,38.621 195.104 C 38.516 194.703,38.430 195.031,38.430 195.833 M370.125 197.083 C 370.125 198.344,370.203 198.859,370.298 198.229 C 370.394 197.599,370.394 196.568,370.298 195.938 C 370.203 195.307,370.125 195.823,370.125 197.083 M23.099 196.771 L 21.875 198.125 23.229 196.901 C 23.974 196.228,24.583 195.619,24.583 195.547 C 24.583 195.225,24.240 195.509,23.099 196.771 M276.432 196.771 L 275.208 198.125 276.563 196.901 C 277.307 196.228,277.917 195.619,277.917 195.547 C 277.917 195.225,277.573 195.509,276.432 196.771 M27.894 197.396 L 26.458 198.958 28.021 197.522 C 28.880 196.733,29.583 196.030,29.583 195.960 C 29.583 195.642,29.231 195.941,27.894 197.396 M281.432 197.188 L 280.208 198.542 281.563 197.318 C 282.307 196.645,282.917 196.035,282.917 195.964 C 282.917 195.642,282.573 195.925,281.432 197.188 M323.022 197.292 C 323.026 198.208,323.112 198.534,323.211 198.016 C 323.311 197.498,323.307 196.748,323.203 196.349 C 323.099 195.951,323.017 196.375,323.022 197.292 M194.680 197.500 C 194.680 198.302,194.766 198.630,194.871 198.229 C 194.975 197.828,194.975 197.172,194.871 196.771 C 194.766 196.370,194.680 196.698,194.680 197.500 M386.772 198.542 C 386.776 199.458,386.862 199.784,386.961 199.266 C 387.061 198.748,387.057 197.998,386.953 197.599 C 386.849 197.201,386.767 197.625,386.772 198.542 M103.651 200.295 C 104.169 200.394,104.919 200.391,105.317 200.286 C 105.716 200.182,105.292 200.100,104.375 200.105 C 103.458 200.110,103.132 200.195,103.651 200.295 M298.234 200.295 C 298.752 200.394,299.502 200.391,299.901 200.286 C 300.299 200.182,299.875 200.100,298.958 200.105 C 298.042 200.110,297.716 200.195,298.234 200.295 M166.667 201.458 C 166.952 201.802,167.678 202.055,168.280 202.021 L 169.375 201.958 168.229 201.785 C 167.599 201.689,167.083 201.436,167.083 201.222 C 167.083 201.008,166.873 200.833,166.616 200.833 C 166.293 200.833,166.308 201.027,166.667 201.458 M58.700 201.783 C 58.901 201.984,59.604 202.081,60.262 201.999 C 61.363 201.862,61.334 201.833,59.896 201.634 C 59.000 201.510,58.490 201.573,58.700 201.783 M66.667 201.667 L 65.208 201.974 66.538 202.028 C 67.269 202.059,67.983 201.896,68.125 201.667 C 68.267 201.438,68.325 201.275,68.254 201.305 C 68.183 201.335,67.469 201.498,66.667 201.667 M69.950 201.783 C 70.151 201.984,70.854 202.081,71.512 201.999 C 72.613 201.862,72.584 201.833,71.146 201.634 C 70.250 201.510,69.740 201.573,69.950 201.783 M337.597 202.500 C 337.597 203.302,337.682 203.630,337.787 203.229 C 337.892 202.828,337.892 202.172,337.787 201.771 C 337.682 201.370,337.597 201.698,337.597 202.500 M1.777 201.966 C 2.410 202.061,3.347 202.059,3.860 201.960 C 4.372 201.861,3.854 201.783,2.708 201.786 C 1.563 201.789,1.143 201.870,1.777 201.966 M82.188 201.954 C 82.589 202.059,83.245 202.059,83.646 201.954 C 84.047 201.849,83.719 201.763,82.917 201.763 C 82.115 201.763,81.786 201.849,82.188 201.954 M224.903 201.969 C 225.652 202.061,226.777 202.059,227.403 201.964 C 228.029 201.869,227.417 201.793,226.042 201.796 C 224.667 201.798,224.154 201.876,224.903 201.969 M255.303 201.967 C 256.043 202.059,257.355 202.061,258.220 201.971 C 259.084 201.881,258.479 201.805,256.875 201.803 C 255.271 201.802,254.564 201.875,255.303 201.967 M360.522 203.125 C 360.526 204.042,360.612 204.368,360.711 203.849 C 360.811 203.331,360.807 202.581,360.703 202.183 C 360.599 201.784,360.517 202.208,360.522 203.125 M41.354 202.787 C 41.755 202.892,42.411 202.892,42.813 202.787 C 43.214 202.682,42.885 202.597,42.083 202.597 C 41.281 202.597,40.953 202.682,41.354 202.787 M159.484 202.795 C 160.002 202.894,160.752 202.891,161.151 202.786 C 161.549 202.682,161.125 202.600,160.208 202.605 C 159.292 202.610,158.966 202.695,159.484 202.795 M338.750 206.797 C 338.750 206.869,339.359 207.478,340.104 208.151 L 341.458 209.375 340.235 208.021 C 339.094 206.759,338.750 206.475,338.750 206.797 " stroke="none" fill="#ffad42" fill-rule="evenodd"></path><path id="path1" d="M269.003 14.623 C 267.563 15.756,266.562 17.771,265.430 21.818 C 263.424 28.989,266.355 26.375,231.458 52.110 C 218.918 61.358,209.510 68.567,204.167 73.025 C 197.565 78.532,197.887 78.664,194.612 69.098 C 186.686 45.946,179.051 38.125,164.375 38.125 C 141.320 38.125,126.175 60.909,126.220 95.526 C 126.230 103.260,126.411 105.787,127.955 119.792 C 128.796 127.428,128.889 137.670,128.151 141.458 C 126.798 148.405,127.603 159.334,129.617 161.348 C 133.112 164.842,135.812 161.581,136.634 152.876 C 137.269 146.146,138.813 142.517,141.673 141.038 C 143.587 140.049,261.292 140.075,262.804 141.066 C 264.906 142.443,265.899 145.718,266.278 152.520 C 266.736 160.757,267.768 162.595,271.533 161.888 C 274.525 161.327,275.880 158.199,276.050 151.458 C 276.171 146.651,276.160 146.595,273.134 135.625 C 271.515 129.759,271.757 125.380,274.147 117.292 C 278.005 104.232,276.597 94.583,270.833 94.583 C 267.385 94.583,266.332 96.681,265.836 104.539 C 265.297 113.082,263.160 117.384,259.087 118.118 C 254.690 118.911,141.035 118.121,139.583 117.287 C 132.647 113.303,133.880 89.247,141.623 77.490 C 147.101 69.172,154.723 63.890,161.875 63.456 C 179.660 62.376,191.604 78.716,189.548 101.314 C 188.814 109.386,189.715 111.676,193.618 111.660 C 195.762 111.652,196.000 111.441,197.205 108.470 C 200.197 101.096,203.044 98.447,229.583 78.336 C 260.063 55.238,267.414 49.233,269.513 45.715 C 271.574 42.261,274.853 34.700,275.903 30.978 C 278.745 20.910,274.326 10.436,269.003 14.623 M127.813 167.811 C 123.387 167.930,122.917 168.017,122.917 168.709 C 122.917 169.264,123.327 169.541,124.412 169.717 C 127.201 170.169,127.083 169.497,127.083 185.036 C 127.083 200.767,127.233 200.000,124.165 200.000 C 123.049 200.000,122.878 200.136,122.992 200.938 C 123.110 201.771,123.333 201.863,125.000 201.765 C 127.336 201.628,130.814 201.630,133.542 201.769 C 136.424 201.916,136.977 200.263,134.172 199.887 C 131.104 199.475,131.250 200.242,131.250 184.583 C 131.250 168.384,130.987 169.390,135.156 169.655 C 144.365 170.242,144.478 182.083,135.274 182.083 C 132.481 182.083,132.060 182.774,133.939 184.273 C 134.686 184.869,136.567 187.292,138.118 189.658 C 139.669 192.023,141.875 195.390,143.021 197.140 C 145.424 200.809,147.402 202.211,149.890 202.004 C 152.035 201.827,152.266 200.624,150.312 199.808 C 148.922 199.227,139.792 185.736,139.792 184.264 C 139.792 183.973,140.994 183.129,142.464 182.389 C 151.488 177.840,146.456 167.229,135.445 167.590 C 133.940 167.639,130.505 167.739,127.813 167.811 M0.208 168.333 C -0.252 169.079,0.435 169.583,1.910 169.583 C 4.083 169.583,4.167 170.166,4.167 185.206 C 4.167 199.873,4.147 200.000,1.832 200.000 C 0.919 200.000,0.019 200.991,0.498 201.470 C 0.942 201.914,15.442 202.142,18.218 201.748 C 36.827 199.110,38.075 174.693,19.894 168.950 C 16.356 167.832,0.819 167.345,0.208 168.333 M253.542 168.333 C 253.081 169.079,253.768 169.583,255.243 169.583 C 257.416 169.583,257.500 170.166,257.500 185.206 C 257.500 199.873,257.480 200.000,255.165 200.000 C 254.265 200.000,253.350 200.989,253.818 201.457 C 254.247 201.886,269.213 202.117,271.768 201.735 C 290.221 198.970,291.212 174.663,273.107 168.913 C 269.693 167.829,254.138 167.368,253.542 168.333 M223.229 168.635 C 219.924 168.815,219.622 169.400,222.203 170.625 L 223.958 171.458 224.073 185.208 C 224.199 200.440,224.203 200.417,221.382 200.417 C 220.629 200.417,220.393 200.611,220.496 201.146 C 220.689 202.147,231.458 202.275,231.458 201.276 C 231.458 200.947,230.873 200.526,230.157 200.341 C 227.904 199.757,227.935 199.975,227.818 183.714 C 227.711 168.867,227.690 168.541,226.875 168.512 C 226.417 168.496,224.776 168.551,223.229 168.635 M18.984 170.802 C 29.509 175.458,30.825 192.496,21.122 198.494 C 17.933 200.466,10.604 200.604,8.727 198.727 C 7.537 197.537,7.463 171.782,8.646 170.733 C 10.192 169.362,15.813 169.399,18.984 170.802 M272.788 171.063 C 282.882 175.998,283.895 192.658,274.456 198.494 C 271.266 200.466,263.937 200.604,262.060 198.727 C 261.195 197.862,260.775 172.227,261.604 170.920 C 262.658 169.258,269.270 169.343,272.788 171.063 M328.974 178.733 C 327.408 180.463,329.401 182.950,331.858 182.333 C 334.567 181.653,333.923 177.917,331.097 177.917 C 330.251 177.917,329.425 178.234,328.974 178.733 M350.204 182.657 C 348.781 184.161,347.614 184.999,346.647 185.207 C 340.960 186.436,338.669 192.030,342.812 194.573 C 343.483 194.984,343.460 195.078,342.517 195.739 C 333.884 201.799,337.863 210.926,349.175 211.014 C 359.835 211.097,364.711 201.064,356.396 196.158 L 354.991 195.329 356.245 193.900 C 358.973 190.793,357.243 186.541,352.763 185.343 C 351.702 185.059,350.833 184.669,350.833 184.476 C 350.833 183.880,353.481 182.981,354.602 183.195 C 355.952 183.453,357.754 182.096,357.374 181.107 C 356.680 179.299,352.532 180.196,350.204 182.657 M41.586 185.141 C 39.396 185.759,38.333 186.482,38.333 187.356 C 38.333 188.360,39.433 188.427,41.193 187.529 C 43.534 186.335,46.251 186.379,47.427 187.631 C 48.758 189.047,48.800 197.450,47.483 198.767 C 43.612 202.638,36.735 199.031,38.744 194.182 C 39.632 192.038,43.221 190.908,45.414 192.082 C 46.251 192.530,47.500 192.241,47.500 191.599 C 47.500 189.717,41.092 189.213,37.896 190.844 C 29.221 195.269,36.977 205.228,46.330 201.675 C 47.526 201.220,48.607 201.019,48.736 201.227 C 48.925 201.533,53.099 201.833,55.313 201.698 C 56.202 201.644,55.884 200.488,54.896 200.187 C 52.708 199.520,52.500 198.965,52.498 193.790 C 52.496 185.896,48.931 183.071,41.586 185.141 M159.919 185.141 C 157.729 185.759,156.667 186.482,156.667 187.356 C 156.667 188.360,157.766 188.427,159.526 187.529 C 161.720 186.410,164.145 186.411,165.569 187.530 C 167.336 188.920,167.259 197.193,165.463 198.914 C 161.506 202.705,154.586 198.416,157.096 193.727 C 158.019 192.002,161.834 191.058,163.747 192.082 C 164.585 192.530,165.833 192.241,165.833 191.599 C 165.833 189.644,159.173 189.210,156.051 190.961 C 147.640 195.680,155.332 205.220,164.683 201.667 C 165.978 201.175,166.932 201.004,167.014 201.250 C 167.250 201.958,174.167 201.783,174.167 201.070 C 174.167 200.741,173.745 200.344,173.229 200.187 C 171.065 199.528,170.833 198.938,170.833 194.089 C 170.833 186.006,167.256 183.073,159.919 185.141 M206.964 185.176 C 198.494 187.454,197.557 197.224,205.417 201.316 C 209.161 203.265,218.333 201.998,218.333 199.532 C 218.333 198.526,217.470 198.541,215.525 199.583 C 210.597 202.225,204.167 198.785,204.167 193.507 C 204.167 186.976,213.390 183.977,216.248 189.579 C 217.350 191.739,218.088 191.546,218.251 189.054 C 218.470 185.712,212.544 183.675,206.964 185.176 M314.331 185.014 C 309.197 186.583,309.759 191.109,315.444 193.972 C 319.290 195.909,320.165 197.667,318.202 199.511 C 316.216 201.377,313.754 200.446,312.001 197.166 C 310.859 195.029,309.833 195.781,310.182 198.500 C 310.560 201.452,313.251 202.848,317.338 202.215 C 324.762 201.066,325.050 195.178,317.867 191.403 C 314.375 189.568,313.624 188.530,314.991 187.424 C 316.736 186.010,319.584 186.741,320.447 188.823 C 321.202 190.645,322.261 190.206,322.420 188.006 C 322.600 185.522,318.106 183.860,314.331 185.014 M391.149 185.068 C 386.058 186.472,386.443 191.124,391.875 193.842 C 396.746 196.280,397.423 200.417,392.951 200.417 C 391.002 200.417,390.440 200.019,389.349 197.865 C 388.783 196.747,388.172 195.833,387.993 195.833 C 386.092 195.833,386.665 200.539,388.684 201.502 C 397.502 205.712,404.016 196.854,395.675 191.995 C 391.041 189.295,390.165 188.110,392.056 187.098 C 393.975 186.071,396.382 186.945,397.466 189.063 C 398.310 190.710,399.167 190.227,399.167 188.104 C 399.167 185.456,395.195 183.953,391.149 185.068 M98.533 185.982 C 89.045 190.401,92.394 202.292,103.125 202.291 C 106.805 202.291,111.250 200.708,111.250 199.398 C 111.250 198.549,110.663 198.580,107.808 199.583 C 100.068 202.304,93.458 194.647,98.682 189.011 C 102.296 185.113,108.988 186.478,109.301 191.177 L 109.375 192.292 104.380 192.500 C 100.051 192.681,99.366 192.806,99.245 193.438 C 99.117 194.109,99.669 194.167,106.219 194.167 C 111.609 194.167,113.344 194.040,113.377 193.646 C 113.946 186.941,105.660 182.664,98.533 185.982 M293.125 185.980 C 283.769 190.346,287.102 202.292,297.676 202.291 C 301.469 202.291,305.833 200.717,305.833 199.349 C 305.833 198.590,305.866 198.587,301.406 199.854 C 293.431 202.122,287.990 192.967,294.405 188.074 C 297.462 185.742,301.940 186.486,303.547 189.593 C 304.827 192.068,304.510 192.268,298.958 192.500 C 294.634 192.681,293.949 192.806,293.828 193.438 C 293.638 194.434,307.787 194.574,308.168 193.580 C 308.497 192.723,307.686 190.117,306.583 188.485 C 304.291 185.096,297.664 183.862,293.125 185.980 M69.486 186.460 C 67.520 187.505,65.878 189.350,66.425 189.897 C 66.583 190.055,67.659 189.653,68.815 189.003 C 72.446 186.962,72.917 187.523,72.917 193.885 C 72.917 199.357,72.658 200.111,70.655 200.478 C 68.351 200.900,70.503 201.471,74.790 201.576 C 79.794 201.698,81.365 201.047,78.229 200.150 L 76.875 199.763 76.667 193.641 C 76.390 185.510,74.613 183.733,69.486 186.460 M81.794 185.877 C 80.382 186.285,77.500 188.736,77.500 189.528 C 77.500 190.239,78.692 190.095,79.936 189.234 C 83.485 186.778,84.168 187.528,84.160 193.869 C 84.153 199.458,84.057 199.802,82.392 200.220 C 79.430 200.964,81.204 201.667,86.042 201.667 C 91.178 201.667,92.097 201.220,89.470 200.000 L 88.125 199.375 87.917 193.400 C 87.650 185.738,86.625 184.479,81.794 185.877 M188.542 185.995 C 186.848 186.735,184.583 188.690,184.583 189.412 C 184.583 190.259,185.232 190.143,187.309 188.926 C 190.805 186.877,191.297 187.677,190.902 194.777 L 190.625 199.763 189.271 200.150 C 186.290 201.002,187.693 201.667,192.475 201.667 C 197.158 201.667,198.610 201.177,196.307 200.374 C 194.736 199.826,194.605 199.203,194.670 192.537 C 194.734 185.800,193.066 184.019,188.542 185.995 M326.402 185.971 C 325.690 186.372,326.363 187.500,327.313 187.500 C 328.806 187.500,329.167 188.706,329.160 193.676 C 329.153 198.996,329.060 199.328,327.387 199.964 C 324.619 201.016,326.026 201.667,331.072 201.667 C 335.428 201.667,335.881 201.597,335.755 200.942 C 335.678 200.544,335.243 200.149,334.787 200.064 C 333.014 199.735,332.917 199.341,332.917 192.483 L 332.917 185.902 329.967 185.763 C 328.344 185.687,326.740 185.781,326.402 185.971 M375.470 185.865 C 373.960 186.469,371.250 188.746,371.250 189.410 C 371.250 190.294,372.280 190.125,373.998 188.958 C 377.119 186.840,377.917 187.774,377.917 193.544 C 377.917 198.739,377.581 199.824,375.858 200.203 C 372.660 200.905,374.489 201.667,379.375 201.667 C 384.337 201.667,385.125 201.350,382.956 200.229 L 381.745 199.603 381.602 193.515 C 381.422 185.864,379.977 184.061,375.470 185.865 M58.511 186.299 C 58.157 186.872,58.718 187.500,59.584 187.500 C 61.130 187.500,61.667 189.059,61.661 193.530 C 61.654 198.864,61.474 199.478,59.709 200.216 C 57.334 201.208,58.480 201.667,63.333 201.667 C 68.017 201.667,69.438 201.175,67.106 200.362 C 65.213 199.702,65.042 199.055,65.027 192.502 C 65.019 189.223,64.903 186.430,64.768 186.296 C 64.368 185.896,58.759 185.899,58.511 186.299 M176.826 186.330 C 176.657 186.603,176.693 186.887,176.905 186.961 C 179.418 187.841,179.375 187.722,179.375 193.762 L 179.375 199.375 178.021 199.971 C 175.301 201.168,176.311 201.667,181.458 201.667 C 186.606 201.667,187.616 201.168,184.896 199.971 L 183.542 199.375 183.458 195.208 C 183.411 192.917,183.365 189.870,183.354 188.438 L 183.333 185.833 180.233 185.833 C 178.284 185.833,177.019 186.018,176.826 186.330 M232.247 186.681 C 230.062 187.763,228.677 189.208,229.128 189.937 C 229.395 190.370,229.909 190.255,231.562 189.390 C 235.606 187.275,236.667 188.378,236.667 194.700 C 236.667 199.416,236.333 200.187,234.167 200.483 C 233.582 200.563,233.125 200.899,233.125 201.250 C 233.125 201.770,234.054 201.889,238.646 201.961 C 244.515 202.052,246.165 201.403,242.543 200.428 C 240.478 199.872,240.417 199.679,240.417 193.689 C 240.417 190.942,240.224 188.334,239.988 187.894 C 238.886 185.835,235.141 185.248,232.247 186.681 M363.571 186.203 C 363.294 186.651,364.049 187.298,365.298 187.681 C 367.840 188.460,366.983 199.517,364.328 200.183 C 361.865 200.801,363.657 201.460,368.123 201.577 C 373.216 201.711,374.286 201.291,371.825 200.124 L 370.208 199.357 370.359 194.056 C 370.443 191.141,370.387 188.098,370.236 187.295 L 369.962 185.833 366.881 185.833 C 365.186 185.833,363.696 186.000,363.571 186.203 M348.958 187.917 C 349.279 187.917,349.704 187.627,349.902 187.273 C 350.673 185.896,354.167 188.550,354.167 190.513 C 354.167 191.864,352.834 193.694,351.332 194.407 C 346.403 196.746,341.770 189.860,346.573 187.335 C 347.550 186.822,347.755 186.821,348.042 187.328 C 348.225 187.652,348.637 187.917,348.958 187.917 M353.221 197.485 C 357.878 199.599,357.891 206.026,353.242 208.276 C 348.016 210.806,341.667 207.892,341.667 202.964 C 341.667 197.826,347.685 194.972,353.221 197.485 " stroke="none" fill="#e66b31" fill-rule="evenodd"></path><path id="path2" d="M69.167 0.449 C 37.225 4.499,9.498 27.576,2.316 56.088 C -7.668 95.728,12.562 134.733,48.542 145.210 C 57.438 147.800,85.915 148.714,122.761 147.591 L 127.397 147.450 127.675 144.454 C 127.828 142.806,128.053 140.885,128.175 140.184 L 128.396 138.909 125.163 138.407 C 121.571 137.848,119.637 136.924,118.858 135.394 C 117.809 133.333,118.336 12.836,119.401 11.410 C 121.253 8.930,122.166 8.577,127.357 8.330 C 131.980 8.111,132.216 8.055,133.171 6.944 C 135.036 4.777,134.200 1.744,131.417 0.581 C 129.835 -0.080,74.268 -0.198,69.167 0.449 M268.091 0.438 C 266.095 1.033,265.202 2.294,265.249 4.448 C 265.317 7.540,266.099 7.989,272.026 8.330 C 277.737 8.659,278.639 9.044,280.099 11.777 L 281.042 13.542 281.157 73.333 C 281.286 140.019,281.458 135.880,278.500 137.283 C 277.698 137.664,276.377 138.084,275.567 138.215 C 274.329 138.416,274.126 138.595,274.299 139.331 C 274.413 139.814,274.925 141.833,275.437 143.819 L 276.368 147.430 278.705 147.602 C 284.246 148.009,335.800 147.913,339.167 147.489 C 377.841 142.617,402.253 110.590,399.114 68.841 C 396.570 35.009,372.238 9.484,334.583 1.146 C 330.236 0.184,271.057 -0.447,268.091 0.438 M92.155 9.807 C 95.990 10.613,99.068 12.320,100.075 14.198 C 100.810 15.566,100.837 17.992,100.733 72.949 L 100.625 130.274 99.360 132.324 C 96.082 137.638,84.984 140.056,69.476 138.834 C 55.239 137.712,49.318 135.125,40.200 126.042 C 23.485 109.390,18.085 86.744,23.786 57.206 C 30.160 24.176,60.493 3.147,92.155 9.807 M323.848 9.168 C 352.277 11.524,372.112 31.709,376.459 62.708 C 379.888 87.167,376.304 104.555,364.644 120.018 C 353.620 134.639,340.928 140.015,319.788 139.021 C 306.542 138.398,300.267 135.645,298.799 129.812 C 298.049 126.835,298.148 16.667,298.902 14.863 C 300.866 10.162,310.181 8.036,323.848 9.168 " stroke="none" fill="#00b5c5" fill-rule="evenodd"></path></g></svg>