<svg xmlns="http://www.w3.org/2000/svg" xmlns:xlink="http://www.w3.org/1999/xlink" viewBox="0 0 290.86 293.71"><defs><style>.cls-1{fill:url(#radial-gradient);}.cls-2{fill:url(#radial-gradient-2);}.cls-3{fill:#e5672f;}.cls-4{fill:#f9a842;}.cls-5{fill:#0ab4c5;}</style><radialGradient id="radial-gradient" cx="145.43" cy="145.43" r="145.43" gradientUnits="userSpaceOnUse"><stop offset="0.65" stop-color="#f05a28"/><stop offset="0.67" stop-color="#f16637" stop-opacity="0.92"/><stop offset="0.79" stop-color="#f7a688" stop-opacity="0.53"/><stop offset="0.89" stop-color="#fbd5c3" stop-opacity="0.25"/><stop offset="0.96" stop-color="#fef2e7" stop-opacity="0.07"/><stop offset="1" stop-color="#fffdf5" stop-opacity="0"/><stop offset="1" stop-color="#fff" stop-opacity="0"/></radialGradient><radialGradient id="radial-gradient-2" cx="142.96" cy="148.89" r="87" gradientUnits="userSpaceOnUse"><stop offset="0" stop-color="#fff"/><stop offset="0.39" stop-color="#fffefd"/><stop offset="0.53" stop-color="#fef9f6"/><stop offset="0.63" stop-color="#fcf0eb"/><stop offset="0.71" stop-color="#fae4da"/><stop offset="0.78" stop-color="#f8d4c4"/><stop offset="0.84" stop-color="#f4c0a8"/><stop offset="0.89" stop-color="#f0a888"/><stop offset="0.94" stop-color="#eb8c62"/><stop offset="0.99" stop-color="#e66e39"/><stop offset="1" stop-color="#e5672f"/></radialGradient></defs><title>Sunset</title><g id="Layer_2" data-name="Layer 2"><g id="Layer_1-2" data-name="Layer 1"><circle class="cls-1" cx="145.43" cy="145.43" r="145.43"/><circle class="cls-2" cx="142.96" cy="148.89" r="87"/><path class="cls-3" d="M124.78,39.08c-.84,11.59,5.34,21.49,13.82,22.11s16-8.28,16.88-19.87-14.31-2-13.82-22.11c.09-3.77,3.79-14.5,3.79-14.5S125.47,29.66,124.78,39.08Z"/><path class="cls-4" d="M162.85,44.62c0,10-7.77,18.18-17.36,18.18s-17.36-8.14-17.36-18.18,16.26-.84,17.36-18.18a58.38,58.38,0,0,0,0-7.65S162.85,37.09,162.85,44.62Z"/><path class="cls-5" d="M158.66,52c0,6.09-6.14,10.92-13.45,10.78s-13.14-5.19-13-11.28c.05-2.63,1.79-2.71,5.63-1.76,12.46,3.07,7.9-13,7.9-13s2.21,1.56,4.8,3.82C154.24,43.76,158.67,45.19,158.66,52Z"/><path class="cls-3" d="M123.14,34.08c5.27,10.36,3.4,21.88-4.17,25.74S101,58.39,95.71,48s12.41-7.4,4.17-25.74c-1.54-3.44-9.11-11.9-9.11-11.9S118.86,25.66,123.14,34.08Z"/><path class="cls-4" d="M91.64,55c4.55,8.95,15.17,12.68,23.71,8.33s11.78-15.12,7.23-24.07S107.71,45.92,98.87,31a58.38,58.38,0,0,1-3.47-6.82S88.23,48.33,91.64,55Z"/><path class="cls-5" d="M98.72,59.73c2.76,5.43,10.42,6.95,16.87,3.51s9.36-10.58,6.49-16c-1.24-2.32-2.82-1.6-5.82,1-9.72,8.39-13-8-13-8s-1.26,2.39-2.55,5.58C98.93,50.37,95.63,53.65,98.72,59.73Z"/><path class="cls-3" d="M201.12,54.11C197,65,187.29,71.41,179.33,68.43s-11.11-14.22-7-25.11S186.13,47.47,194.08,29c1.49-3.46,2.61-14.75,2.61-14.75S204.43,45.27,201.12,54.11Z"/><path class="cls-4" d="M164.38,45.07c-3.52,9.4.91,19.75,9.89,23.11s19.11-1.54,22.63-10.94S182,50.75,187,34.13A58.38,58.38,0,0,1,189.69,27S167,38,164.38,45.07Z"/><path class="cls-5" d="M165.71,53.46c-2.13,5.71,1.92,12.38,8.81,14.81s14.12-.25,16.15-6c.87-2.48-.73-3.16-4.65-3.62-12.75-1.49-2.82-15-2.82-15s-2.62.69-5.84,1.89C172.75,47.28,168.1,47.07,165.71,53.46Z"/><path class="cls-3" d="M200,55.24c-7.73,8.68-8.85,20.3-2.5,26S215.24,84.38,223,75.7s-10.12-10.31,2.5-26c2.37-2.93,11.83-9.19,11.83-9.19S206.26,48.19,200,55.24Z"/><path class="cls-4" d="M225.12,83.51c-6.68,7.5-17.89,8.41-25.05,2s-7.55-17.62-.88-25.12,12.7,10.19,25.05-2a58.38,58.38,0,0,0,5.09-5.72S230.13,77.89,225.12,83.51Z"/><path class="cls-5" d="M217.08,86.25c-4.05,4.55-11.84,4.07-17.21-.89s-6.36-12.61-2.23-17.08c1.78-1.93,3.14-.83,5.38,2.43,7.27,10.58,14.57-4.49,14.57-4.49s.61,2.63,1,6C219.26,77.14,221.61,81.16,217.08,86.25Z"/><path class="cls-3" d="M248.64,112.89c-9.89,6.1-21.53,5.19-26-2s-.06-18,9.83-24.15,8.39,11.76,26,2c3.3-1.82,11.11-10.06,11.11-10.06S256.68,107.94,248.64,112.89Z"/><path class="cls-4" d="M225.16,83.23c-8.54,5.27-11.39,16.16-6.35,24.32s16,10.5,24.59,5.23-7.83-14.28,6.35-24.32a58.38,58.38,0,0,1,6.51-4S231.57,79.28,225.16,83.23Z"/><path class="cls-5" d="M221.07,90.67c-5.18,3.2-6.07,11-2.11,17.1s11.31,8.46,16.43,5.16c2.21-1.42,1.36-2.95-1.46-5.72-9.16-9,7-13.57,7-13.57s-2.49-1.06-5.77-2.08C230.42,90.11,226.87,87.09,221.07,90.67Z"/><path class="cls-3" d="M247.43,113.38c-11.5,1.71-19.81,9.9-18.56,18.31s11.58,13.84,23.08,12.13-1.16-14.4,18.56-18.31c3.7-.73,15,.53,15,.53S256.78,112,247.43,113.38Z"/><path class="cls-4" d="M250.33,151.74c-9.8,2.19-19.44-3.62-21.53-13s4.16-18.72,14-20.91,4.36,15.69,21.53,13a58.38,58.38,0,0,0,7.47-1.67S257.68,150.09,250.33,151.74Z"/><path class="cls-5" d="M242.21,149.26c-5.95,1.33-12-3.61-13.46-10.77s2.2-14,8.17-15.17c2.58-.52,3,1.16,2.95,5.11-.28,12.83,14.45,4.86,14.45,4.86s-1,2.5-2.68,5.52C249.29,143.14,248.86,147.78,242.21,149.26Z"/><path class="cls-3" d="M246.71,189.72c-11.41-2.24-19.33-10.81-17.69-19.15s12.21-13.29,23.62-11-1.83,14.33,17.69,19.15c3.66.9,15,.16,15,.16S256,191.53,246.71,189.72Z"/><path class="cls-4" d="M249.62,152c-9.85-1.93-19.33,4.13-21.18,13.54s4.64,18.6,14.5,20.53,4-15.8,21.18-13.54a58.38,58.38,0,0,1,7.51,1.47S257,153.45,249.62,152Z"/><path class="cls-5" d="M241.56,154.68c-6-1.17-11.9,3.92-13.17,11.12S231,179.69,237,180.75c2.59.46,3-1.24,2.81-5.18-.61-12.82,14.32-5.24,14.32-5.24s-1.1-2.47-2.82-5.45C248.81,160.61,248.25,156,241.56,154.68Z"/><path class="cls-3" d="M249,189.89c-9.6-6.56-21.26-6.19-26.06.83s-.9,18,8.7,24.58,8.93-11.36,26.06-.83c3.21,2,10.63,10.56,10.63,10.56S256.83,195.22,249,189.89Z"/><path class="cls-4" d="M225.1,220c-8.68-5-11.81-15.86-7-24.14S233.88,185,242.56,190s-7.45,14.48,7,24.14a58.38,58.38,0,0,0,6.62,3.85S231.61,223.8,225.1,220Z"/><path class="cls-5" d="M220.82,212.68c-5.27-3.06-6.35-10.79-2.56-17s11.09-8.75,16.29-5.59c2.25,1.36,1.44,2.91-1.31,5.75-8.92,9.23,7.31,13.38,7.31,13.38s-2.46,1.13-5.71,2.23C230.18,213,226.71,216.11,220.82,212.68Z"/><path class="cls-3" d="M197.11,245.61c-7.12-9.19-7.44-20.86-.72-26.06s17.94-2,25.05,7.22-10.8,9.59.72,26.06c2.16,3.09,11.18,10,11.18,10S202.89,253.08,197.11,245.61Z"/><path class="cls-4" d="M224.12,219.12c-6.15-7.94-17.28-9.61-24.86-3.74s-8.74,17.06-2.59,25,13.37-9.3,24.86,3.74a58.38,58.38,0,0,1,4.69,6.05S228.73,225.07,224.12,219.12Z"/><path class="cls-5" d="M216.28,215.84c-3.73-4.82-11.54-4.87-17.23-.29s-7.21,12.14-3.39,16.89c1.65,2,3.07,1,5.53-2.05,8-10.06,14.23,5.48,14.23,5.48s.79-2.59,1.46-6C217.84,225.07,220.46,221.23,216.28,215.84Z"/><path class="cls-3" d="M198.29,247.47c-2.91-11.25-11.95-18.65-20.17-16.52s-12.53,13-9.62,24.23,14.2-2.68,20.17,16.52c1.12,3.6,1.06,14.95,1.06,14.95S200.66,256.62,198.29,247.47Z"/><path class="cls-4" d="M160.45,254.42c-3.22-9.51,1.54-19.71,10.62-22.78s19.05,2.15,22.27,11.66-15.14,6-10.62,22.78a58.38,58.38,0,0,0,2.45,7.25S162.87,261.56,160.45,254.42Z"/><path class="cls-5" d="M162.05,246.08c-2-5.77,2.32-12.31,9.28-14.52s14.11.7,15.94,6.51c.79,2.51-.83,3.14-4.77,3.47-12.79,1.09-3.3,14.88-3.3,14.88s-2.59-.77-5.77-2.08C168.89,252.48,164.23,252.54,162.05,246.08Z"/><path class="cls-3" d="M125.85,259.15c-.74-11.6,5.54-21.44,14-22s16,8.43,16.69,20-14.32,1.88-14,22c.06,3.77,3.65,14.53,3.65,14.53S126.45,268.58,125.85,259.15Z"/><path class="cls-4" d="M163.07,252.37c-.64-10-8.91-17.65-18.48-17s-16.81,9.22-16.17,19.24,16.28-.2,18.48,17a58.38,58.38,0,0,1,.49,7.64S163.55,259.89,163.07,252.37Z"/><path class="cls-5" d="M158.42,245.26c-.39-6.08-6.82-10.51-14.1-9.91s-12.78,6-12.28,12.08c.22,2.62,2,2.59,5.73,1.4,12.24-3.85,8.71,12.52,8.71,12.52s2.11-1.7,4.55-4.11C154.53,253.78,158.86,252.07,158.42,245.26Z"/><path class="cls-3" d="M125.93,260.1c3.9-11,.57-22.14-7.43-25s-17.66,3.71-21.56,14.66,13.25,5.75,7.43,25c-1.09,3.61-7.51,13-7.51,13S122.76,269,125.93,260.1Z"/><path class="cls-4" d="M90.71,244.62c2.67-9.68,12.33-15.45,21.57-12.9s14.57,12.47,11.89,22.14-15.9-3.52-21.57,12.9a58.38,58.38,0,0,0-2,7.38S88.71,251.88,90.71,244.62Z"/><path class="cls-5" d="M96.71,238.61c1.62-5.87,8.82-8.89,15.83-6.81s11.28,8.5,9.55,14.34c-.75,2.52-2.45,2.13-5.89.2-11.2-6.28-11.08,10.47-11.08,10.47s-1.72-2.09-3.61-5C98.78,247.74,94.9,245.18,96.71,238.61Z"/><path class="cls-3" d="M59,225.34c6.61-9.56,17.64-13.39,24.63-8.56s7.3,16.5.69,26.06-12.41-7.4-24.63,8.56c-2.29,3-6.14,13.67-6.14,13.67S53.62,233.11,59,225.34Z"/><path class="cls-4" d="M92.4,243.09c5.71-8.26,3.95-19.37-3.94-24.82s-18.91-3.18-24.62,5.08,12.9,9.94,3.94,24.82a58.38,58.38,0,0,1-4.35,6.3S88.11,249.29,92.4,243.09Z"/><path class="cls-5" d="M93.16,234.63c3.46-5,1.16-12.47-4.93-16.52S74.48,214.91,71.11,220c-1.45,2.19-.07,3.25,3.63,4.65,12,4.56-.92,15.22-.92,15.22s2.7,0,6.12-.41C84.82,238.9,89.28,240.24,93.16,234.63Z"/><path class="cls-3" d="M60.73,223.62c9.85-6.18,14.17-17,9.66-24.22s-16.16-8-26-1.85,6.84,12.73-9.66,24.22c-3.09,2.15-13.93,5.52-13.93,5.52S52.73,228.63,60.73,223.62Z"/><path class="cls-4" d="M42.68,189.64c8.09-5.94,19.25-4.48,24.92,3.25s3.7,18.81-4.39,24.75S52.92,205,38.29,214.39a58.38,58.38,0,0,0-6.17,4.53S36.61,194.1,42.68,189.64Z"/><path class="cls-5" d="M51.12,188.65c4.91-3.6,12.43-1.51,16.65,4.47s3.59,13.66-1.39,17.17c-2.15,1.51-3.24.16-4.75-3.5-4.9-11.86-15.19,1.35-15.19,1.35s-.05-2.7.24-6.13C47.08,197.1,45.62,192.68,51.12,188.65Z"/><path class="cls-3" d="M28.82,151c10.79-4.33,22.1-1.45,25.27,6.44s-3,17.79-13.8,22.12S34,166.57,15,173.15c-3.56,1.23-12.66,8-12.66,8S20.05,154.55,28.82,151Z"/><path class="cls-4" d="M46.9,184.26c9.32-3.74,14-14,10.4-22.88S43.28,148.3,34,152s5.28,15.4-10.4,22.88a58.38,58.38,0,0,1-7.1,2.85S39.92,187.06,46.9,184.26Z"/><path class="cls-5" d="M52.2,177.62c5.65-2.27,7.85-9.76,5-16.49s-9.71-10.26-15.32-7.88c-2.42,1-1.85,2.67.46,5.88,7.49,10.42-9.16,12.19-9.16,12.19s2.27,1.47,5.33,3C42.9,176.59,45.88,180.16,52.2,177.62Z"/><path class="cls-3" d="M34.8,149.47c11.58,1,21.58-5,22.33-13.46s-8-16.16-19.6-17.19-2.24,14.27-22.33,13.46c-3.77-.15-14.43-4-14.43-4S25.4,148.63,34.8,149.47Z"/><path class="cls-4" d="M41,111.49c10,.16,18.05,8.06,17.9,17.65s-8.42,17.23-18.45,17.07-.57-16.27-17.9-17.65a58.38,58.38,0,0,0-7.65-.12S33.42,111.37,41,111.49Z"/><path class="cls-5" d="M48.28,115.8c6.09.1,10.82,6.31,10.56,13.62s-5.4,13.05-11.48,12.84c-2.63-.09-2.68-1.83-1.67-5.66,3.27-12.41-12.91-8.1-12.91-8.1s1.59-2.18,3.89-4.74C40,120.09,41.46,115.69,48.28,115.8Z"/><path class="cls-3" d="M53.84,74.12c10.83,4.21,17.12,14,14,22S53.52,107,42.69,102.8s4.32-13.78-14-22C25.21,79.3,13.93,78,13.93,78S45,70.7,53.84,74.12Z"/><path class="cls-4" d="M44.33,110.74c9.36,3.64,19.76-.66,23.23-9.59S66.27,82,56.91,78.38,50.24,93.23,33.68,88a58.38,58.38,0,0,1-7.13-2.77S37.31,108,44.33,110.74Z"/><path class="cls-5" d="M52.73,109.51c5.68,2.21,12.4-1.76,14.92-8.62s-.07-14.12-5.79-16.22c-2.47-.9-3.17.69-3.68,4.61-1.66,12.73-15,2.63-15,2.63s.65,2.62,1.82,5.86C46.65,102.4,46.38,107,52.73,109.51Z"/><path class="cls-3" d="M59.16,77.39C67.45,85.53,79,87.22,85,81.16S89,63.58,80.73,55.44,69.94,65,54.93,51.66c-2.81-2.51-8.6-12.27-8.6-12.27S52.42,70.77,59.16,77.39Z"/><path class="cls-4" d="M88,51.95c7.65,6.5,8.83,17.69,2.62,25s-17.44,8-25.09,1.47,9.89-12.94-2.62-25a58.38,58.38,0,0,0-5.83-5S82.28,47.08,88,51.95Z"/><path class="cls-5" d="M90.95,59.93c4.64,3.94,4.35,11.75-.48,17.23s-12.45,6.66-17,2.63c-2-1.74-.9-3.12,2.3-5.43,10.41-7.52-4.83-14.46-4.83-14.46s2.62-.68,6-1.19C81.79,58,85.75,55.51,90.95,59.93Z"/></g></g></svg>