<svg xmlns="http://www.w3.org/2000/svg" xmlns:xlink="http://www.w3.org/1999/xlink" viewBox="0 0 323.33 324.44"><defs><style>.cls-1{fill:url(#radial-gradient);}.cls-2{fill:url(#radial-gradient-2);}.cls-3{fill:url(#radial-gradient-3);}.cls-4{fill:url(#radial-gradient-4);}.cls-5{fill:url(#radial-gradient-5);}.cls-6{fill:url(#radial-gradient-6);}.cls-7{fill:url(#radial-gradient-7);}.cls-8{fill:url(#radial-gradient-8);}.cls-9{fill:url(#radial-gradient-9);}.cls-10{fill:url(#radial-gradient-10);}.cls-11{fill:url(#radial-gradient-11);}.cls-12{fill:url(#radial-gradient-12);}.cls-13{fill:url(#radial-gradient-13);}.cls-14{fill:url(#radial-gradient-14);}.cls-15{fill:url(#radial-gradient-15);}.cls-16{fill:url(#radial-gradient-16);}.cls-17{fill:url(#radial-gradient-17);}.cls-18{fill:url(#radial-gradient-18);}.cls-19{fill:url(#radial-gradient-19);}.cls-20{fill:url(#radial-gradient-20);}.cls-21{fill:url(#radial-gradient-21);}.cls-22{fill:url(#radial-gradient-22);}.cls-23{fill:url(#radial-gradient-23);}.cls-24{fill:url(#radial-gradient-24);}.cls-25{fill:url(#radial-gradient-25);}.cls-26{fill:url(#radial-gradient-26);}.cls-27{fill:url(#radial-gradient-27);}.cls-28{fill:url(#radial-gradient-28);}.cls-29{fill:url(#radial-gradient-29);}.cls-30{fill:url(#radial-gradient-30);}.cls-31{fill:url(#radial-gradient-31);}.cls-32{fill:url(#radial-gradient-32);}.cls-33{fill:url(#radial-gradient-33);}</style><radialGradient id="radial-gradient" cx="160.81" cy="163.83" r="145.43" gradientUnits="userSpaceOnUse"><stop offset="0.01" stop-color="#e5672c"/><stop offset="0.7" stop-color="#e66a2d"/><stop offset="0.73" stop-color="#e77136" stop-opacity="0.95"/><stop offset="0.77" stop-color="#ea834f" stop-opacity="0.83"/><stop offset="0.84" stop-color="#efa178" stop-opacity="0.62"/><stop offset="0.91" stop-color="#f6cbb1" stop-opacity="0.34"/><stop offset="1" stop-color="#fffdf5" stop-opacity="0"/><stop offset="1" stop-color="#fff" stop-opacity="0"/></radialGradient><radialGradient id="radial-gradient-2" cx="273.14" cy="135.24" r="32.08" gradientUnits="userSpaceOnUse"><stop offset="0" stop-color="#fff"/><stop offset="1" stop-color="#e5672f"/></radialGradient><radialGradient id="radial-gradient-3" cx="267.07" cy="115.87" r="32.39" xlink:href="#radial-gradient-2"/><radialGradient id="radial-gradient-4" cx="252.93" cy="92.89" r="33.06" xlink:href="#radial-gradient-2"/><radialGradient id="radial-gradient-5" cx="279.49" cy="154.52" r="32.13" xlink:href="#radial-gradient-2"/><radialGradient id="radial-gradient-6" cx="279.65" cy="174.21" r="31.97" xlink:href="#radial-gradient-2"/><radialGradient id="radial-gradient-7" cx="274.96" cy="194.65" r="32.06" xlink:href="#radial-gradient-2"/><radialGradient id="radial-gradient-8" cx="266.45" cy="213.78" r="32.57" xlink:href="#radial-gradient-2"/><radialGradient id="radial-gradient-9" cx="253.86" cy="232.76" r="32.56" xlink:href="#radial-gradient-2"/><radialGradient id="radial-gradient-10" cx="235.54" cy="251.17" r="32.75" xlink:href="#radial-gradient-2"/><radialGradient id="radial-gradient-11" cx="213.67" cy="265.87" r="32.06" xlink:href="#radial-gradient-2"/><radialGradient id="radial-gradient-12" cx="190.72" cy="275.52" r="31.74" xlink:href="#radial-gradient-2"/><radialGradient id="radial-gradient-13" cx="169.04" cy="281.51" r="31.5" xlink:href="#radial-gradient-2"/><radialGradient id="radial-gradient-14" cx="150.87" cy="280.01" r="31.62" xlink:href="#radial-gradient-2"/><radialGradient id="radial-gradient-15" cx="128.5" cy="274.88" r="31.66" xlink:href="#radial-gradient-2"/><radialGradient id="radial-gradient-16" cx="104.53" cy="262.66" r="32.65" xlink:href="#radial-gradient-2"/><radialGradient id="radial-gradient-17" cx="81.4" cy="246.15" r="32.67" xlink:href="#radial-gradient-2"/><radialGradient id="radial-gradient-18" cx="64.08" cy="226.5" r="32.07" xlink:href="#radial-gradient-2"/><radialGradient id="radial-gradient-19" cx="51.25" cy="205.72" r="31.91" xlink:href="#radial-gradient-2"/><radialGradient id="radial-gradient-20" cx="46.87" cy="184.57" r="30.44" xlink:href="#radial-gradient-2"/><radialGradient id="radial-gradient-21" cx="42.96" cy="163.98" r="31.53" xlink:href="#radial-gradient-2"/><radialGradient id="radial-gradient-22" cx="44.38" cy="144.13" r="31.61" xlink:href="#radial-gradient-2"/><radialGradient id="radial-gradient-23" cx="50.23" cy="123.62" r="31.54" xlink:href="#radial-gradient-2"/><radialGradient id="radial-gradient-24" cx="63.09" cy="99.89" r="32.47" xlink:href="#radial-gradient-2"/><radialGradient id="radial-gradient-25" cx="82.8" cy="77.53" r="32.7" xlink:href="#radial-gradient-2"/><radialGradient id="radial-gradient-26" cx="105.66" cy="59.47" r="31.97" xlink:href="#radial-gradient-2"/><radialGradient id="radial-gradient-27" cx="231.06" cy="72.85" r="33.15" xlink:href="#radial-gradient-2"/><radialGradient id="radial-gradient-28" cx="208.8" cy="59.17" r="32.52" xlink:href="#radial-gradient-2"/><radialGradient id="radial-gradient-29" cx="188.81" cy="49.88" r="32.04" xlink:href="#radial-gradient-2"/><radialGradient id="radial-gradient-30" cx="170.07" cy="43.77" r="32.19" xlink:href="#radial-gradient-2"/><radialGradient id="radial-gradient-31" cx="151.58" cy="44.57" r="31.5" xlink:href="#radial-gradient-2"/><radialGradient id="radial-gradient-32" cx="128.99" cy="49.74" r="31.7" xlink:href="#radial-gradient-2"/><radialGradient id="radial-gradient-33" cx="158.78" cy="163.58" r="88" gradientUnits="userSpaceOnUse"><stop offset="0" stop-color="#fff"/><stop offset="0.39" stop-color="#fffefd"/><stop offset="0.53" stop-color="#fef9f6"/><stop offset="0.63" stop-color="#fcf0eb"/><stop offset="0.71" stop-color="#fae4da"/><stop offset="0.78" stop-color="#f8d4c4"/><stop offset="0.84" stop-color="#f4c0a8"/><stop offset="0.89" stop-color="#f0a888"/><stop offset="0.94" stop-color="#eb8c62"/><stop offset="0.99" stop-color="#e66e39"/><stop offset="1" stop-color="#e5672f"/></radialGradient></defs><title>Sunset_OgradZZ</title><g id="Layer_2" data-name="Layer 2"><g id="Layer_1-2" data-name="Layer 1"><circle class="cls-1" cx="160.81" cy="163.83" r="145.43"/><polygon class="cls-2" points="316.38 123.37 301.86 121.51 285.38 127.9 268.49 122.66 252.28 129.69 234.41 125.91 235.92 133.09 229.89 137.93 236.85 141.33 235.47 148.98 244.78 147.28 257.29 146.35 270.96 135.88 288.14 136.83 301.86 126.42 316.38 123.37"/><polygon class="cls-3" points="308.07 95.45 293.47 96.44 278.54 105.92 260.96 104.06 246.43 114.11 228.16 113.87 231.04 120.62 226.07 126.54 233.56 128.53 233.69 136.3 242.5 132.82 254.58 129.47 265.96 116.55 283 114.14 294.43 101.26 308.07 95.45"/><polygon class="cls-4" points="288.47 62.53 274.79 67.72 263.27 81.13 245.91 84.47 234.92 98.31 217.38 103.4 222.1 109.02 219.06 116.14 226.81 115.85 229.2 123.25 236.61 117.36 247.19 110.64 254.32 94.97 269.92 87.71 277.11 72.05 288.47 62.53"/><polygon class="cls-5" points="323.33 151.16 309.22 147.28 291.98 151.38 275.91 143.92 258.86 148.72 241.59 142.61 242.21 150.01 235.64 154.24 242.14 158.6 239.71 166.08 249.36 165.59 261.82 166.44 276.71 157.79 293.64 160.89 308.57 152.3 323.33 151.16"/><polygon class="cls-6" points="322.91 177.95 309.52 172.56 292.1 174.87 277.04 165.81 259.73 168.85 243.28 161.06 243.29 168.57 236.39 172.38 242.48 177.41 239.2 184.66 249.05 185.09 261.1 187.35 276.52 180.13 292.89 184.8 308.36 177.64 322.91 177.95"/><polygon class="cls-7" points="317.39 209.96 304.91 202.3 287.25 201.37 274.01 189.66 256.34 189.43 241.59 178.65 240.02 185.82 232.54 187.76 237.49 193.72 233.1 200.13 242.28 202.4 254.07 206.68 270.84 202.74 286.12 210.65 302.9 206.78 317.39 209.96"/><polygon class="cls-8" points="307.17 235.31 295.85 225.87 278.59 222.13 267.44 208.44 250.06 205.34 237.41 192.24 234.55 198.78 227.02 198.81 230.86 205.3 225.74 210.79 233.81 214.4 245.12 220.42 262.39 219.67 276.02 230.28 293.3 229.59 307.17 235.31"/><polygon class="cls-9" points="292.14 258.34 282.63 247.58 266.21 241.72 257.15 226.83 240.53 221.63 229.78 207.17 226.26 213.56 218.59 213.18 221.64 220.25 215.57 225.02 223.64 229.81 233.47 237.22 250.41 238.23 262.49 250.13 279.44 251.21 292.14 258.34"/><polygon class="cls-10" points="268.7 283.51 262.05 270.77 247.52 261.13 242.31 244.51 227.43 235.46 220.47 218.84 215.52 224.19 208.17 221.98 209.43 229.57 202.39 232.75 209.07 239.34 216.82 248.89 233.03 253.95 241.89 268.41 258.08 273.53 268.7 283.51"/><polygon class="cls-11" points="238.41 303.87 235.59 289.78 224.34 276.46 223.99 259.04 212.22 246.19 210.19 228.29 203.95 232.04 197.51 227.86 196.59 235.5 188.94 236.58 193.51 244.78 198.29 256.12 212.43 265.51 216.89 281.87 231 291.32 238.41 303.87"/><polygon class="cls-12" points="208.31 316.81 208.33 302.45 199.93 287.17 203.03 270.02 194.04 255.1 195.59 237.15 188.72 239.6 183.24 234.23 180.82 241.54 173.12 241.08 175.98 250.02 178.42 262.08 190.43 274.08 191.56 291 203.53 303.05 208.31 316.81"/><polygon class="cls-13" points="177.13 324.44 179.91 310.34 174.61 293.74 180.94 277.51 174.98 261.13 179.95 243.82 172.74 244.9 168.39 238.58 164.62 245.28 157.14 243.36 158.23 252.68 158.31 264.99 167.79 279.07 165.66 295.89 175.09 310.01 177.13 324.44"/><polygon class="cls-14" points="142.16 322.76 148.2 309.72 146.97 292.33 156.96 278.06 155.05 260.74 163.97 245.09 156.71 244.44 153.97 237.26 148.72 242.89 141.91 239.25 140.77 248.57 137.94 260.54 143.82 276.46 137.77 292.31 143.59 308.26 142.16 322.76"/><polygon class="cls-15" points="110.67 315.95 118.99 304.24 120.97 286.92 133.41 274.71 134.69 257.34 146.33 243.59 139.31 241.62 137.94 234.06 131.75 238.63 125.72 233.81 122.89 242.76 117.91 254.01 120.78 270.74 111.92 285.21 114.73 301.95 110.67 315.95"/><polygon class="cls-16" points="77.76 300.27 88.88 291.18 95.37 275 110.6 266.53 116.44 250.11 131.3 239.93 125.06 236.17 125.73 228.52 118.55 231.29 114.01 225.04 108.91 232.92 101.14 242.46 99.47 259.35 87.11 270.96 85.38 287.85 77.76 300.27"/><polygon class="cls-17" points="47.76 277.83 60.85 271.91 71.29 257.94 88.18 253.67 98.05 239.31 115.03 233.3 109.96 228.06 112.58 220.84 104.93 221.67 102.15 214.47 95.2 220.77 85.23 227.98 79.28 243.87 64.34 251.91 58.32 267.79 47.76 277.83"/><polygon class="cls-18" points="26.26 251.53 40.33 248.58 53.54 237.22 70.96 236.71 83.71 224.84 101.59 222.65 97.78 216.44 101.9 209.96 94.25 209.11 93.11 201.47 84.95 206.12 73.65 210.99 64.39 225.21 48.07 229.82 38.75 244.01 26.26 251.53"/><polygon class="cls-19" points="8.93 219.71 23.25 221.38 39.44 214.43 56.42 219.06 72.28 211.42 90.28 214.39 88.1 207.09 93.58 201.29 86.27 198.05 87.46 190.07 77.69 192.44 65.51 193.4 52.76 204.66 35.76 204.78 22.95 215.99 8.93 219.71"/><polygon class="cls-20" points="5.88 194.53 19.26 197.41 35.29 191.78 51.18 197.74 66.91 191.39 84.01 195.74 82.11 188.36 87.86 182.87 80.77 179.21 82.72 171.39 72.79 173.13 61.24 172.82 48.47 183.03 32.19 181.84 19.37 191.99 5.88 194.53"/><polygon class="cls-21" points="0 169.51 13.85 173.13 30.73 168.58 46.73 175.61 63.4 170.35 80.61 175.94 79.59 168.5 85.91 163.81 79.22 159.62 81.55 152.02 71.72 152.88 59.59 152.16 45.36 161.32 28.63 158.82 14.35 167.93 0 169.51"/><polygon class="cls-22" points="1.62 135.53 14.68 141.53 32.06 140.28 46.35 150.24 63.67 148.29 79.33 157.18 79.97 149.92 87.14 147.18 81.51 141.94 85.13 135.12 75.81 133.99 63.84 131.18 47.92 137.09 32.07 131.07 16.13 136.93 1.62 135.53"/><polygon class="cls-23" points="8.66 107.77 20.77 115.49 38.17 116.6 50.98 128.41 68.39 128.83 82.71 139.76 84.33 132.66 91.81 130.91 86.93 124.95 91.45 118.69 82.37 116.31 70.88 111.9 54.32 115.6 39.42 107.48 22.84 111.12 8.66 107.77"/><polygon class="cls-24" points="24.29 75.32 34.15 85.77 50.75 91.1 60.28 105.69 77.07 110.35 88.27 124.45 91.58 117.96 99.26 118.09 95.99 111.12 101.9 106.15 93.68 101.62 83.62 94.54 66.65 94.08 54.19 82.57 37.22 82.04 24.29 75.32"/><polygon class="cls-25" points="50.66 44.27 56.81 57.26 70.94 67.46 75.5 84.28 90.02 93.9 96.32 110.78 101.47 105.62 108.74 108.12 107.78 100.49 114.94 97.59 108.52 90.74 101.14 80.89 85.15 75.21 76.86 60.41 60.88 54.66 50.66 44.27"/><polygon class="cls-26" points="83.59 20.01 85.32 34.27 95.51 48.41 94.52 65.81 105.26 79.53 105.91 97.53 112.42 94.27 118.52 98.93 120.03 91.39 127.73 90.9 123.81 82.37 119.92 70.7 106.54 60.25 103.35 43.59 90.01 33.09 83.59 20.01"/><polygon class="cls-27" points="257.96 34.47 246.74 43.85 240.23 60.29 224.91 69.12 219.07 85.8 204.15 96.35 210.45 100.12 209.91 107.83 217.13 105.03 221.81 111.24 226.89 103.25 234.69 93.44 236.3 76.3 248.66 64.33 250.34 47.19 257.96 34.47"/><polygon class="cls-28" points="229.46 18.08 220.18 29.4 216.86 46.77 203.46 58.3 200.82 75.78 188.14 88.92 195.03 91.45 195.94 99.12 202.51 95.03 208.27 100.25 211.77 91.46 217.6 80.36 215.99 63.22 225.9 49.16 224.34 32 229.46 18.08"/><polygon class="cls-29" points="204.79 7.6 196.98 19.98 195.82 37.62 183.95 50.72 183.5 68.39 172.53 83 179.68 84.66 181.53 92.16 187.55 87.28 193.91 91.76 196.29 82.6 200.71 70.87 196.99 54.06 205.09 38.88 201.43 22.05 204.79 7.6"/><polygon class="cls-30" points="173.59 0 168.49 13.72 170.99 31.22 162.07 46.48 165.26 63.87 157.53 80.42 164.87 80.57 168.22 87.54 173.11 81.52 180.25 84.6 180.7 75.15 182.61 62.75 175.51 47.07 180.32 30.55 173.27 14.83 173.59 0"/><polygon class="cls-31" points="144.28 1.59 141.33 15.65 146.43 32.32 139.89 48.47 145.65 64.91 140.47 82.17 147.69 81.17 151.96 87.55 155.81 80.89 163.27 82.91 162.29 73.57 162.37 61.27 153.06 47.07 155.4 30.27 146.15 16.04 144.28 1.59"/><polygon class="cls-32" points="113.85 7.83 113.06 22.18 120.62 37.89 116.61 54.84 124.78 70.23 122.27 88.07 129.26 85.99 134.45 91.65 137.25 84.48 144.92 85.35 142.55 76.27 140.76 64.09 129.41 51.47 129.18 34.51 117.88 21.84 113.85 7.83"/><circle class="cls-33" cx="158.78" cy="163.58" r="88"/></g></g></svg>