<svg xmlns="http://www.w3.org/2000/svg" viewBox="0 0 49.91 53.54"><title>BeeBackSingle</title><g id="Layer_2" data-name="Layer 2"><g id="Layer_1-2" data-name="Layer 1"><path d="M11.76,32.77c0-1.08,1.49-1.92,3.28-1.88l19.33.46c1.79,0,3.21,1,3.19,2s-1.49,1.92-3.28,1.88L14.95,34.8C13.16,34.76,11.73,33.85,11.76,32.77Z" fill="#e5672f"/><path d="M13.68,39.16c0-.9,1.25-1.6,2.74-1.57L32.55,38c1.49,0,2.68.79,2.66,1.7s-1.25,1.6-2.74,1.57l-16.14-.39C14.85,40.82,13.65,40.06,13.68,39.16Z" fill="#e5672f"/><path d="M19.49,45.57A1.53,1.53,0,0,1,20.9,44l8.2.2A1.67,1.67,0,0,1,29,47.45l-8.2-.2A1.53,1.53,0,0,1,19.49,45.57Z" fill="#e5672f"/><path d="M14,26.64c0-1,1.25-1.7,2.74-1.66l16.14.39c1.49,0,2.68.84,2.66,1.79s-1.25,1.7-2.74,1.66l-16.14-.39C15.17,28.39,14,27.59,14,26.64Z" fill="#e5672f"/><path d="M19.15,20.42a1.62,1.62,0,0,1,1.5-1.71l8.72.21a1.62,1.62,0,0,1,1.42,1.78,1.62,1.62,0,0,1-1.5,1.71l-8.72-.21A1.62,1.62,0,0,1,19.15,20.42Z" fill="#e5672f"/><circle cx="24.96" cy="11.96" r="5.75" fill="#e5672f"/><path d="M25.4,18.88s-.32,10.77,6.1,16.86,14.11,8.42,17.16,5.2.32-10.77-6.1-16.86S25.4,18.88,25.4,18.88Z" fill="#FDE3C2" opacity="0.75"/><polygon points="27.52 48.91 24.53 49.23 21.76 49.14 23.05 51.44 24.44 53.54 25.74 51.28 27.52 48.91" fill="#0bb4c6"/><path d="M25.38,18.87s-.2,10.77-6.91,16.54S4,43.14,1.09,39.77,1.28,29,8,23.23,25.38,18.87,25.38,18.87Z" fill="#FDE3C2" opacity="0.75"/><path d="M29.89,6.18A1.13,1.13,0,0,1,29.33,6a.69.69,0,0,1-.22-1.09l3.57-4A1.12,1.12,0,0,1,34,.78a.69.69,0,0,1,.22,1.09l-3.57,4A1.06,1.06,0,0,1,29.89,6.18Z" fill="#e5672f"/><path d="M21.95,5.23a1.13,1.13,0,0,1-.23.53.69.69,0,0,1-1.11,0L17.22,1.67a1.12,1.12,0,0,1,0-1.36.69.69,0,0,1,1.11,0L21.75,4.4A1.06,1.06,0,0,1,21.95,5.23Z" fill="#e5672f"/></g></g></svg>
