<svg xmlns="http://www.w3.org/2000/svg" viewBox="0 0 63.05 53.04"><title>BeeBellyDouble</title><g id="Layer_2" data-name="Layer 2"><g id="Layer_1-2" data-name="Layer 1"><path d="M31.43,21.28s8.48,6.65,17.19,5.09S63.77,20,63,15.64,54.51,9,45.8,10.55,31.43,21.28,31.43,21.28Z" fill="#FDE3C2" opacity="0.75"/><path d="M31.43,20.91s2.43,6.68,7.9,8.94,10.8,1.93,11.91-.75-2.43-6.68-7.9-8.94S31.43,20.91,31.43,20.91Z" fill="#FDE3C2" opacity="0.75"/><path d="M31.49,21.32S22.84,27.75,14.17,26-.81,19.24.08,14.89,8.72,8.46,17.4,10.23,31.49,21.32,31.49,21.32Z" fill="#FDE3C2" opacity="0.75"/><path d="M31.43,20.91s-2.43,6.68-7.9,8.94-10.8,1.93-11.91-.75,2.43-6.68,7.9-8.94S31.43,20.91,31.43,20.91Z" fill="#FDE3C2" opacity="0.75"/><path d="M36.23,5.87a1.13,1.13,0,0,1-.58-.09.69.69,0,0,1-.32-1.06L38.5.4A1.12,1.12,0,0,1,39.82.1a.69.69,0,0,1,.32,1.06L37,5.47A1.06,1.06,0,0,1,36.23,5.87Z" fill="#e5672f"/><path d="M27.11,5.5a1,1,0,0,1-.82-.36L23.45,1.5A.69.69,0,0,1,23.76.44,1.12,1.12,0,0,1,25.1.69l2.83,3.63a.69.69,0,0,1-.31,1.06A1.16,1.16,0,0,1,27.11,5.5Z" fill="#e5672f"/><path d="M18.23,32.27c0-1.08,1.49-1.92,3.28-1.88l19.33.46c1.79,0,3.21,1,3.19,2s-1.49,1.92-3.28,1.88L21.41,34.3C19.63,34.26,18.2,33.35,18.23,32.27Z" fill="#e5672f"/><path d="M20.14,38.66c0-.9,1.25-1.6,2.74-1.57L39,37.48c1.49,0,2.68.79,2.66,1.7s-1.25,1.6-2.74,1.57L22.8,40.36C21.31,40.33,20.12,39.57,20.14,38.66Z" fill="#e5672f"/><path d="M26,45.08a1.53,1.53,0,0,1,1.41-1.61l8.2.2a1.67,1.67,0,0,1-.08,3.29l-8.2-.2A1.53,1.53,0,0,1,26,45.08Z" fill="#e5672f"/><path d="M20.47,26.14c0-1,1.25-1.7,2.74-1.66l16.14.39c1.49,0,2.68.84,2.66,1.79s-1.25,1.7-2.74,1.66l-16.14-.39C21.64,27.89,20.45,27.09,20.47,26.14Z" fill="#e5672f"/><path d="M25.62,19.93a1.62,1.62,0,0,1,1.5-1.71l8.72.21a1.62,1.62,0,0,1,1.42,1.78,1.62,1.62,0,0,1-1.5,1.71L27,21.7A1.62,1.62,0,0,1,25.62,19.93Z" fill="#e5672f"/><circle cx="31.42" cy="11.47" r="5.75" fill="#e5672f"/><polygon points="33.98 48.41 31 48.73 28.23 48.64 29.52 50.94 30.91 53.04 32.2 50.78 33.98 48.41" fill="#0bb4c6"/></g></g></svg>
