<svg xmlns="http://www.w3.org/2000/svg" viewBox="0 0 158.37 158.37"><title>DRD_circle</title><g id="Layer_2" data-name="Layer 2"><g id="Layer_1-2" data-name="Layer 1"><circle cx="79.18" cy="79.18" r="79.18" fill="#fff4e7"/><path d="M121.8,51.45a28.79,28.79,0,0,1,11.87,3,25.56,25.56,0,0,1,10.67,9.09,24.61,24.61,0,0,1,4.08,14.1q0,11-6.75,18t-17.51,7.07l-19.93-.14a2.28,2.28,0,0,1-1.37-.41,1.31,1.31,0,0,1-.56-1.12,1.36,1.36,0,0,1,.39-1,4.11,4.11,0,0,1,2.11-.58,3.58,3.58,0,0,0,2.2-.74,2,2,0,0,0,.47-1.35V57.52a4,4,0,0,0-.51-2.28,1.89,1.89,0,0,0-1.09-.82,13,13,0,0,0-2.23-.12,2,2,0,0,1-1.37-.34,1.4,1.4,0,0,1-.35-1.05q0-1.46,2.32-1.46ZM113.4,95.5a3.43,3.43,0,0,0,1.87,3.12q1.87,1.09,6.87,1.09,5.43,0,8.21-1.4A18.41,18.41,0,0,0,138,90.63,21.66,21.66,0,0,0,141,80a46.57,46.57,0,0,0-.79-8.79,21.71,21.71,0,0,0-2.86-7.44,22.42,22.42,0,0,0-6.22-6.27q-4.16-2.95-11.07-2.95-6.63,0-6.63,2.88Z" fill="#0bb4c6"/><path d="M54.14,51.45q2.32,0,2.32,1.46A1.4,1.4,0,0,1,56.11,54a2,2,0,0,1-1.37.34,13,13,0,0,0-2.23.12,1.89,1.89,0,0,0-1.09.82,4,4,0,0,0-.51,2.28V97.43a2,2,0,0,0,.47,1.35,3.58,3.58,0,0,0,2.2.74,4.11,4.11,0,0,1,2.11.58,1.36,1.36,0,0,1,.39,1,1.31,1.31,0,0,1-.56,1.12,2.28,2.28,0,0,1-1.37.41l-19.93.14q-10.76,0-17.51-7.07T10,77.67A24.61,24.61,0,0,1,14,63.58,25.56,25.56,0,0,1,24.7,54.49a28.79,28.79,0,0,1,11.87-3ZM45,57.38q0-2.88-6.63-2.88-6.91,0-11.07,2.95a22.42,22.42,0,0,0-6.22,6.27,21.71,21.71,0,0,0-2.86,7.44A46.57,46.57,0,0,0,17.41,80a21.66,21.66,0,0,0,2.94,10.67A18.41,18.41,0,0,0,28,98.31q2.78,1.4,8.21,1.4,5,0,6.87-1.09A3.43,3.43,0,0,0,45,95.5Z" fill="#0bb4c6"/><text transform="translate(104.92 107.91) rotate(-90) scale(1.25 1)" font-size="72" fill="#e5672f" font-family="PoorRichard-Regular, Poor Richard">R</text><path d="M67.18,62a1,1,0,0,1-1-1V55a1,1,0,1,1,2,0v6A1,1,0,0,1,67.18,62Z" fill="#faa943"/><path d="M71.73,63.6A1,1,0,0,1,70.92,62l3.69-5.13a1,1,0,0,1,1.62,1.17l-3.69,5.13A1,1,0,0,1,71.73,63.6Z" fill="#faa943"/><path d="M74.92,67a1,1,0,0,1-.38-1.93L79.72,63a1,1,0,0,1,.76,1.85l-5.19,2.11A1,1,0,0,1,74.92,67Z" fill="#faa943"/><path d="M62.56,63.26a1,1,0,0,1-.85-.47l-2.92-4.7A1,1,0,0,1,60.49,57l2.92,4.7a1,1,0,0,1-.85,1.53Z" fill="#faa943"/><path d="M59.06,66a1,1,0,0,1-.48-.12l-4.12-2.25a1,1,0,1,1,1-1.76l4.13,2.25A1,1,0,0,1,59.06,66Z" fill="#faa943"/></g></g></svg>