<svg id="svg" version="1.1" width="1000" height="407" xmlns="http://www.w3.org/2000/svg" xmlns:xlink="http://www.w3.org/1999/xlink" style="display: block;"><g id="svgg"><path id="path0" d="M269.887 14.095 C 268.308 15.011,266.659 17.753,266.156 20.300 C 266.015 21.015,265.788 21.600,265.650 21.601 C 265.512 21.601,265.363 22.127,265.319 22.769 C 265.274 23.411,264.987 24.536,264.681 25.268 C 264.375 26.001,264.086 26.780,264.038 27.000 C 263.795 28.122,256.343 33.866,229.004 54.000 C 218.773 61.535,207.383 70.282,203.600 73.510 C 198.950 77.478,196.800 77.907,196.800 74.867 C 196.800 74.463,196.665 73.998,196.500 73.833 C 196.335 73.668,196.178 73.368,196.150 73.167 C 196.123 72.965,196.055 72.710,196.000 72.600 C 195.945 72.490,195.855 72.220,195.800 72.000 C 195.745 71.780,195.655 71.510,195.600 71.400 C 195.545 71.290,195.462 71.065,195.415 70.900 C 195.369 70.735,195.217 70.330,195.078 70.000 C 194.939 69.670,194.211 67.690,193.461 65.600 C 187.745 49.675,180.085 40.128,171.772 38.568 C 171.017 38.427,170.400 38.162,170.400 37.981 C 170.400 37.799,169.793 37.749,169.051 37.869 C 168.261 37.997,167.588 37.904,167.427 37.644 C 167.055 37.043,162.000 37.051,162.000 37.653 C 162.000 37.950,161.451 38.032,160.400 37.891 C 159.520 37.773,158.800 37.839,158.800 38.038 C 158.800 38.237,158.445 38.400,158.012 38.400 C 148.707 38.400,135.039 52.880,130.307 67.751 C 129.808 69.318,129.284 70.654,129.143 70.719 C 129.001 70.785,128.977 71.190,129.089 71.619 C 129.201 72.049,129.109 72.400,128.884 72.400 C 128.659 72.400,128.569 72.760,128.684 73.200 C 128.799 73.640,128.717 74.000,128.502 74.000 C 128.287 74.000,128.197 74.450,128.302 75.000 C 128.407 75.550,128.337 76.000,128.147 76.000 C 127.956 76.000,127.783 76.495,127.763 77.100 C 127.688 79.302,127.423 80.800,127.107 80.800 C 126.930 80.800,126.898 81.250,127.036 81.799 C 127.173 82.349,127.153 83.114,126.991 83.499 C 126.426 84.838,126.095 101.673,126.609 102.927 C 126.772 103.327,126.805 104.632,126.682 105.827 C 126.536 107.241,126.607 108.000,126.885 108.000 C 127.163 108.000,127.233 108.765,127.085 110.200 C 126.945 111.556,127.012 112.400,127.259 112.400 C 127.480 112.400,127.624 113.165,127.579 114.100 C 127.533 115.035,127.632 116.122,127.797 116.515 C 127.962 116.909,127.983 117.944,127.844 118.815 C 127.673 119.882,127.739 120.400,128.046 120.400 C 128.352 120.400,128.439 121.058,128.310 122.400 C 128.196 123.585,128.279 124.400,128.514 124.400 C 128.757 124.400,128.826 125.333,128.694 126.800 C 128.574 128.120,128.639 129.300,128.838 129.423 C 129.303 129.711,129.314 133.600,128.851 133.600 C 128.658 133.600,128.516 134.905,128.535 136.500 C 128.554 138.095,128.334 141.200,128.047 143.400 C 127.308 149.066,127.022 155.200,127.498 155.200 C 127.713 155.200,127.997 156.117,128.130 157.239 C 129.123 165.626,136.185 163.266,136.625 154.400 C 136.981 147.215,138.689 142.685,141.601 141.199 C 143.147 140.411,143.974 140.400,202.824 140.400 L 262.480 140.400 263.870 141.790 C 264.634 142.554,265.146 143.364,265.006 143.590 C 264.867 143.815,264.922 144.000,265.129 144.000 C 265.777 144.000,266.389 147.374,266.133 149.534 C 265.992 150.729,266.047 151.600,266.264 151.600 C 266.471 151.600,266.660 153.007,266.684 154.726 C 266.827 164.929,274.347 164.630,276.141 154.349 C 276.978 149.548,276.582 146.431,274.141 138.624 C 273.388 136.217,272.863 134.012,272.974 133.724 C 273.084 133.436,272.980 133.200,272.742 133.200 C 272.489 133.200,272.382 132.703,272.485 132.000 C 272.582 131.340,272.513 130.800,272.331 130.800 C 272.149 130.800,272.000 129.720,272.000 128.400 C 272.000 127.080,272.135 125.999,272.300 125.997 C 272.465 125.995,272.635 125.053,272.678 123.904 C 272.721 122.755,272.947 121.751,273.180 121.673 C 273.414 121.595,273.520 121.394,273.416 121.226 C 273.189 120.858,274.743 115.181,275.241 114.563 C 275.435 114.323,275.487 114.020,275.356 113.890 C 275.226 113.760,275.264 113.419,275.441 113.134 C 275.618 112.848,275.804 112.341,275.856 112.007 C 275.908 111.673,276.059 110.860,276.194 110.200 C 277.992 101.351,274.468 92.624,269.872 94.544 C 268.348 95.181,266.800 96.949,266.800 98.054 C 266.800 98.464,266.665 98.800,266.500 98.800 C 266.171 98.800,266.105 99.600,265.880 106.379 C 265.781 109.391,265.569 111.010,265.262 111.113 C 265.005 111.198,264.898 111.435,265.024 111.639 C 265.427 112.290,262.814 116.327,261.483 117.110 C 260.364 117.769,142.529 118.252,141.200 117.603 C 141.090 117.549,140.844 117.534,140.653 117.568 C 139.417 117.793,136.473 113.961,136.117 111.664 C 136.027 111.079,135.853 109.970,135.731 109.200 C 135.418 107.218,135.412 98.185,135.722 95.800 C 135.963 93.947,136.096 93.040,136.511 90.399 C 137.166 86.234,140.485 78.762,143.410 74.871 C 146.969 70.136,156.080 63.260,157.572 64.183 C 157.807 64.328,158.000 64.236,158.000 63.977 C 158.000 63.704,158.335 63.594,158.800 63.716 C 159.240 63.831,159.600 63.762,159.600 63.563 C 159.600 63.363,161.220 63.200,163.200 63.200 C 165.180 63.200,166.800 63.349,166.800 63.531 C 166.800 63.713,167.340 63.782,168.000 63.685 C 168.664 63.588,169.200 63.691,169.200 63.917 C 169.200 64.142,169.560 64.231,170.000 64.116 C 170.465 63.994,170.800 64.104,170.800 64.377 C 170.800 64.636,170.982 64.735,171.204 64.598 C 172.714 63.664,183.600 71.774,183.600 73.832 C 183.600 74.145,183.758 74.400,183.950 74.400 C 184.472 74.400,187.285 79.938,186.999 80.402 C 186.864 80.621,186.917 80.800,187.118 80.800 C 187.633 80.800,189.323 86.687,189.077 87.626 C 188.966 88.052,189.063 88.400,189.292 88.400 C 189.556 88.400,189.618 89.060,189.462 90.200 C 189.314 91.278,189.373 92.000,189.608 92.000 C 189.837 92.000,190.000 93.583,190.000 95.800 C 190.000 97.890,189.846 99.600,189.659 99.600 C 189.471 99.600,189.406 100.526,189.515 101.659 C 189.658 103.139,189.585 103.638,189.257 103.435 C 188.937 103.238,188.800 103.762,188.800 105.176 C 188.800 106.289,188.960 107.200,189.155 107.200 C 189.351 107.200,189.628 107.822,189.770 108.583 C 190.491 112.423,197.200 112.617,197.200 108.797 C 197.200 104.393,205.836 95.908,223.737 82.723 C 226.632 80.591,229.285 78.566,229.634 78.223 C 229.982 77.881,230.477 77.600,230.734 77.600 C 230.990 77.600,231.200 77.453,231.200 77.273 C 231.200 77.094,233.373 75.349,236.029 73.395 C 238.685 71.442,241.250 69.503,241.729 69.086 C 242.208 68.669,245.441 66.139,248.914 63.464 C 252.387 60.789,255.813 58.150,256.527 57.600 C 266.518 49.904,268.982 47.409,271.246 42.700 C 271.748 41.655,272.314 40.800,272.503 40.800 C 272.692 40.800,272.736 40.620,272.600 40.400 C 272.464 40.180,272.554 40.000,272.800 40.000 C 273.046 40.000,273.153 39.847,273.037 39.660 C 272.922 39.473,273.337 38.078,273.959 36.560 C 275.425 32.986,275.713 32.264,275.815 31.900 C 275.862 31.735,275.944 31.465,275.997 31.300 C 276.051 31.135,276.067 30.846,276.033 30.658 C 276.000 30.470,276.148 30.103,276.364 29.843 C 276.752 29.376,277.667 23.234,277.411 22.816 C 277.339 22.697,277.171 21.919,277.039 21.086 C 276.908 20.253,276.509 19.128,276.154 18.586 C 275.799 18.044,275.621 17.600,275.760 17.600 C 276.357 17.600,273.756 14.295,272.749 13.774 C 271.402 13.077,271.702 13.044,269.887 14.095 " stroke="none" fill="#e6672d" fill-rule="evenodd"></path><path id="path1" d="M163.200 8.400 C 162.444 9.156,162.400 9.733,162.400 18.934 L 162.400 28.668 163.597 29.734 C 165.058 31.036,165.015 31.036,166.662 29.780 L 168.000 28.759 168.000 18.980 C 168.000 8.083,167.881 7.600,165.200 7.600 C 164.533 7.600,163.644 7.956,163.200 8.400 M268.900 14.144 C 268.405 14.389,268.000 14.817,268.000 15.095 C 268.000 15.373,267.838 15.600,267.639 15.600 C 267.441 15.600,267.090 16.140,266.860 16.800 C 266.291 18.432,266.576 18.308,267.607 16.473 C 268.079 15.633,268.946 14.648,269.533 14.283 C 270.722 13.546,270.297 13.452,268.900 14.144 M274.206 14.912 C 274.592 15.524,275.009 15.924,275.132 15.801 C 275.255 15.678,274.939 15.178,274.430 14.689 L 273.504 13.800 274.206 14.912 M141.735 15.391 C 139.789 16.753,140.118 17.996,144.013 24.000 C 146.157 27.305,147.796 30.197,147.698 30.500 C 147.644 30.665,147.762 30.800,147.960 30.800 C 148.159 30.800,148.667 31.385,149.091 32.100 C 149.993 33.624,152.032 34.895,152.299 34.100 C 152.391 33.825,152.711 33.600,153.010 33.600 C 153.855 33.600,155.161 30.235,154.440 29.918 C 154.292 29.853,152.761 27.460,151.038 24.600 C 145.021 14.614,144.119 13.721,141.735 15.391 M186.266 16.433 C 185.460 17.331,184.796 18.186,184.791 18.333 C 184.786 18.480,184.420 19.050,183.977 19.600 C 181.298 22.926,175.428 31.518,175.379 32.186 C 175.179 34.893,178.801 35.712,180.748 33.400 C 181.489 32.520,182.299 31.668,182.548 31.506 C 182.796 31.344,182.871 31.209,182.714 31.206 C 182.454 31.201,189.460 21.335,191.110 19.383 C 193.890 16.094,189.157 13.211,186.266 16.433 M264.497 24.393 C 264.045 25.718,263.833 26.703,264.027 26.583 C 264.407 26.349,265.688 22.355,265.458 22.125 C 265.382 22.048,264.949 23.069,264.497 24.393 M127.800 30.713 C 126.663 31.689,126.927 33.740,128.325 34.786 C 128.916 35.229,129.580 35.738,129.800 35.918 C 130.020 36.098,130.339 36.272,130.510 36.305 C 130.927 36.387,138.947 40.874,139.200 41.168 C 139.310 41.296,139.670 41.459,140.000 41.530 C 140.330 41.602,140.660 41.827,140.733 42.030 C 141.172 43.247,144.491 40.782,144.611 39.150 C 144.695 38.012,143.953 37.232,141.400 35.778 C 140.300 35.151,139.310 34.540,139.200 34.419 C 137.094 32.111,129.172 29.536,127.800 30.713 M275.324 33.100 C 275.186 33.485,274.729 34.700,274.308 35.800 C 273.887 36.900,273.732 37.615,273.962 37.389 C 274.429 36.932,276.067 32.400,275.766 32.400 C 275.661 32.400,275.462 32.715,275.324 33.100 M200.000 33.672 C 194.019 36.438,190.802 37.703,190.794 37.294 C 190.791 37.132,190.656 37.191,190.494 37.425 C 190.332 37.659,189.175 38.261,187.921 38.763 C 185.730 39.641,184.400 40.923,184.400 42.157 C 184.400 43.110,187.255 45.253,187.857 44.752 C 188.137 44.521,188.537 44.438,188.748 44.568 C 188.959 44.698,189.192 44.669,189.266 44.502 C 189.479 44.021,197.656 40.787,198.047 41.029 C 198.241 41.149,198.400 41.079,198.400 40.872 C 198.400 40.666,199.525 40.094,200.900 39.601 C 205.168 38.069,206.411 36.073,204.369 34.031 C 202.932 32.594,202.423 32.552,200.000 33.672 M160.600 37.600 C 159.891 37.905,159.925 37.947,160.900 37.972 C 161.505 37.987,162.000 37.820,162.000 37.600 C 162.000 37.131,161.693 37.131,160.600 37.600 M167.400 37.600 C 167.536 37.820,168.042 37.997,168.524 37.994 C 169.236 37.989,169.288 37.915,168.800 37.600 C 168.012 37.091,167.085 37.091,167.400 37.600 M242.005 44.013 C 240.798 44.886,239.964 45.600,240.152 45.600 C 240.526 45.600,244.400 42.833,244.400 42.566 C 244.400 42.294,244.292 42.359,242.005 44.013 M183.387 46.400 C 186.379 50.137,186.686 50.486,186.197 49.600 C 185.651 48.610,182.078 44.162,181.345 43.560 C 180.971 43.252,181.889 44.530,183.387 46.400 M144.378 45.100 L 143.000 46.600 144.500 45.222 C 145.325 44.463,146.000 43.788,146.000 43.722 C 146.000 43.416,145.662 43.704,144.378 45.100 M226.800 55.250 C 223.590 57.723,222.756 58.578,225.274 56.815 C 227.304 55.392,229.923 53.228,229.600 53.240 C 229.490 53.243,228.230 54.148,226.800 55.250 M133.379 59.641 C 132.592 61.204,132.014 62.547,132.094 62.627 C 132.173 62.707,132.903 61.428,133.716 59.786 C 134.529 58.144,135.107 56.800,135.002 56.800 C 134.896 56.800,134.166 58.078,133.379 59.641 M255.767 58.229 L 254.200 59.658 255.900 58.362 C 257.453 57.178,257.832 56.800,257.467 56.800 C 257.393 56.800,256.628 57.443,255.767 58.229 M165.600 63.600 C 166.376 64.101,166.800 64.101,166.800 63.600 C 166.800 63.380,166.395 63.203,165.900 63.206 C 165.172 63.211,165.115 63.286,165.600 63.600 M214.036 64.829 C 213.506 65.271,212.787 65.791,212.439 65.986 C 212.091 66.181,211.899 66.433,212.013 66.546 C 212.126 66.659,212.935 66.140,213.809 65.391 C 214.684 64.642,215.310 64.029,215.200 64.028 C 215.090 64.027,214.566 64.388,214.036 64.829 M153.729 65.595 C 152.590 66.249,151.522 67.002,151.357 67.270 C 151.191 67.538,151.583 67.393,152.228 66.949 C 152.872 66.504,153.989 65.905,154.709 65.618 C 155.961 65.118,156.803 64.396,156.124 64.404 C 155.946 64.406,154.868 64.942,153.729 65.595 M172.601 65.201 C 172.736 65.421,173.072 65.600,173.347 65.600 C 173.622 65.600,174.875 66.219,176.132 66.976 C 177.389 67.733,178.314 68.185,178.188 67.981 C 178.062 67.777,177.203 67.168,176.279 66.629 C 174.166 65.396,172.265 64.658,172.601 65.201 M194.051 67.219 C 194.521 68.638,195.062 69.972,195.254 70.181 C 195.445 70.391,195.218 69.401,194.749 67.981 C 194.279 66.562,193.738 65.228,193.546 65.019 C 193.355 64.809,193.582 65.799,194.051 67.219 M245.391 66.255 L 243.800 67.661 245.400 66.547 C 246.280 65.934,247.075 65.380,247.167 65.316 C 247.258 65.252,247.254 65.121,247.157 65.024 C 247.060 64.927,246.265 65.481,245.391 66.255 M145.660 72.211 C 144.548 73.427,143.242 75.002,142.756 75.711 C 141.962 76.871,142.020 76.845,143.337 75.450 C 144.142 74.597,144.800 73.794,144.800 73.665 C 144.800 73.536,145.557 72.658,146.483 71.715 C 147.409 70.772,148.057 70.000,147.923 70.000 C 147.790 70.000,146.771 70.995,145.660 72.211 M202.200 74.212 C 201.540 74.753,201.194 75.197,201.430 75.198 C 201.667 75.199,202.283 74.750,202.800 74.200 C 203.985 72.938,203.748 72.943,202.200 74.212 M233.200 75.455 C 231.023 77.165,230.753 77.440,231.800 76.882 C 232.671 76.418,235.525 74.030,235.200 74.037 C 235.090 74.039,234.190 74.677,233.200 75.455 M184.006 74.477 C 183.998 74.839,185.628 77.600,185.850 77.600 C 185.944 77.600,185.753 77.105,185.425 76.500 C 184.610 74.995,184.013 74.144,184.006 74.477 M199.600 76.112 C 199.600 76.320,199.032 76.407,198.338 76.306 C 197.221 76.142,197.158 76.180,197.791 76.643 C 198.384 77.077,198.701 77.065,199.653 76.573 C 200.951 75.902,201.060 75.733,200.200 75.733 C 199.870 75.733,199.600 75.904,199.600 76.112 M126.222 87.129 C 126.058 87.859,126.022 88.556,126.142 88.676 C 126.443 88.977,126.920 86.956,126.699 86.317 C 126.601 86.033,126.386 86.398,126.222 87.129 M217.970 87.068 L 217.000 88.136 218.087 87.368 C 218.686 86.946,219.181 86.465,219.187 86.300 C 219.208 85.807,218.989 85.946,217.970 87.068 M126.146 95.800 C 126.147 98.000,126.214 98.849,126.295 97.687 C 126.376 96.524,126.376 94.724,126.293 93.687 C 126.211 92.649,126.145 93.600,126.146 95.800 M189.200 92.800 C 189.200 93.240,189.380 93.600,189.600 93.600 C 189.820 93.600,190.000 93.240,190.000 92.800 C 190.000 92.360,189.820 92.000,189.600 92.000 C 189.380 92.000,189.200 92.360,189.200 92.800 M267.804 95.596 C 267.174 96.254,266.735 96.842,266.829 96.903 C 266.923 96.964,267.570 96.426,268.266 95.707 C 268.962 94.988,269.401 94.400,269.241 94.400 C 269.081 94.400,268.434 94.938,267.804 95.596 M273.723 95.586 C 274.523 96.288,275.336 97.555,275.713 98.686 C 276.064 99.739,276.362 100.293,276.375 99.919 C 276.430 98.410,273.765 94.400,272.708 94.400 C 272.523 94.400,272.980 94.934,273.723 95.586 M206.378 96.264 L 205.000 97.728 206.500 96.564 C 207.325 95.924,208.000 95.265,208.000 95.100 C 208.000 94.605,207.817 94.736,206.378 96.264 M135.450 97.650 C 135.103 99.383,135.147 107.298,135.506 107.859 C 135.668 108.112,135.800 105.637,135.800 102.359 C 135.800 95.800,135.805 95.873,135.450 97.650 M189.200 99.000 C 189.200 99.330,189.380 99.600,189.600 99.600 C 189.820 99.600,190.000 99.330,190.000 99.000 C 190.000 98.670,189.820 98.400,189.600 98.400 C 189.380 98.400,189.200 98.670,189.200 99.000 M201.800 100.800 C 201.402 101.240,201.278 101.600,201.524 101.600 C 201.770 101.600,202.165 101.240,202.400 100.800 C 202.635 100.360,202.760 100.000,202.676 100.000 C 202.592 100.000,202.198 100.360,201.800 100.800 M265.822 101.422 C 265.672 102.225,265.628 102.962,265.726 103.060 C 265.824 103.157,266.027 102.581,266.178 101.778 C 266.328 100.975,266.372 100.238,266.274 100.140 C 266.176 100.043,265.973 100.619,265.822 101.422 M126.028 103.276 C 126.082 105.048,126.740 105.975,126.772 104.324 C 126.787 103.512,126.620 102.736,126.400 102.600 C 126.175 102.461,126.012 102.757,126.028 103.276 M265.590 107.833 C 265.585 108.035,265.424 108.875,265.233 109.700 C 265.041 110.525,265.022 111.200,265.191 111.200 C 265.555 111.200,266.122 107.989,265.813 107.680 C 265.696 107.563,265.596 107.632,265.590 107.833 M126.406 108.500 C 126.420 109.642,127.188 110.226,127.194 109.100 C 127.197 108.495,127.020 108.000,126.800 108.000 C 126.580 108.000,126.403 108.225,126.406 108.500 M264.278 113.005 C 263.912 113.772,263.695 114.400,263.796 114.400 C 264.070 114.400,265.284 111.951,265.101 111.768 C 265.014 111.681,264.644 112.238,264.278 113.005 M126.828 112.700 C 126.938 113.873,127.546 114.526,127.572 113.500 C 127.587 112.895,127.420 112.400,127.200 112.400 C 126.980 112.400,126.813 112.535,126.828 112.700 M274.985 114.900 C 274.426 116.378,273.238 120.971,273.379 121.112 C 273.469 121.203,273.926 119.954,274.393 118.338 C 274.861 116.722,275.318 115.175,275.409 114.900 C 275.500 114.625,275.485 114.400,275.375 114.400 C 275.265 114.400,275.090 114.625,274.985 114.900 M127.200 116.753 C 127.200 117.193,127.380 117.664,127.600 117.800 C 127.820 117.936,128.000 117.687,128.000 117.247 C 128.000 116.807,127.820 116.336,127.600 116.200 C 127.380 116.064,127.200 116.313,127.200 116.753 M128.000 125.000 C 128.000 125.330,128.180 125.600,128.400 125.600 C 128.620 125.600,128.800 125.330,128.800 125.000 C 128.800 124.670,128.620 124.400,128.400 124.400 C 128.180 124.400,128.000 124.670,128.000 125.000 M272.000 128.400 C 272.000 129.720,272.135 130.800,272.300 130.800 C 272.465 130.799,272.606 129.719,272.614 128.400 C 272.622 127.080,272.487 126.000,272.314 126.000 C 272.141 126.000,272.000 127.080,272.000 128.400 M128.400 131.376 C 128.400 132.599,128.580 133.600,128.800 133.600 C 129.020 133.600,129.200 132.711,129.200 131.624 C 129.200 130.537,129.020 129.536,128.800 129.400 C 128.552 129.247,128.400 129.996,128.400 131.376 M273.263 135.800 C 273.262 136.020,273.503 136.830,273.800 137.600 C 274.097 138.370,274.345 138.730,274.352 138.400 C 274.358 138.070,274.117 137.260,273.814 136.600 C 273.512 135.940,273.264 135.580,273.263 135.800 M263.594 141.803 C 265.187 143.721,265.321 143.845,264.886 142.996 C 264.659 142.553,264.052 141.834,263.537 141.398 C 262.633 140.634,262.635 140.648,263.594 141.803 M265.139 144.700 C 265.342 145.085,265.645 146.210,265.813 147.200 C 265.981 148.190,266.198 148.770,266.296 148.489 C 266.552 147.753,265.591 144.000,265.146 144.000 C 264.916 144.000,264.914 144.270,265.139 144.700 M266.028 153.300 C 266.044 154.235,266.218 155.360,266.415 155.800 C 266.666 156.359,266.748 155.846,266.687 154.101 C 266.591 151.334,265.983 150.596,266.028 153.300 M275.850 155.900 C 275.710 156.945,275.240 158.385,274.804 159.100 C 274.368 159.815,274.156 160.400,274.332 160.400 C 274.859 160.400,276.010 157.641,276.268 155.758 C 276.400 154.791,276.417 154.000,276.306 154.000 C 276.194 154.000,275.989 154.855,275.850 155.900 M127.200 155.776 C 127.200 156.093,127.380 156.464,127.600 156.600 C 127.820 156.736,128.000 156.477,128.000 156.024 C 128.000 155.571,127.820 155.200,127.600 155.200 C 127.380 155.200,127.200 155.459,127.200 155.776 M134.925 160.432 C 134.450 161.300,134.229 161.906,134.434 161.779 C 134.877 161.505,136.118 159.184,135.924 158.991 C 135.850 158.916,135.400 159.565,134.925 160.432 " stroke="none" fill="#ffad42" fill-rule="evenodd"></path><path id="path2" d="M134.493 4.400 C 134.493 5.170,134.575 5.485,134.676 5.100 C 134.776 4.715,134.776 4.085,134.676 3.700 C 134.575 3.315,134.493 3.630,134.493 4.400 M264.893 4.400 C 264.893 5.170,264.975 5.485,265.076 5.100 C 265.176 4.715,265.176 4.085,265.076 3.700 C 264.975 3.315,264.893 3.630,264.893 4.400 M163.054 7.629 L 162.000 8.458 162.000 18.608 L 162.000 28.759 163.004 29.842 C 163.556 30.438,164.124 30.810,164.265 30.668 C 164.406 30.527,164.045 30.036,163.461 29.577 L 162.400 28.742 162.400 18.971 C 162.400 8.135,162.528 7.600,165.124 7.600 C 167.751 7.600,167.778 7.702,168.014 18.667 L 168.227 28.600 168.314 18.682 L 168.400 8.764 167.418 7.782 C 166.204 6.567,164.480 6.507,163.054 7.629 M81.305 9.087 C 81.914 9.179,82.814 9.177,83.305 9.082 C 83.797 8.987,83.300 8.911,82.200 8.914 C 81.100 8.917,80.697 8.995,81.305 9.087 M120.547 10.228 C 119.128 11.733,118.655 12.942,119.965 11.716 C 121.662 10.127,122.738 8.800,122.328 8.800 C 122.090 8.800,121.288 9.443,120.547 10.228 M278.218 10.300 C 278.976 11.125,279.597 11.935,279.598 12.100 C 279.599 12.265,279.780 12.400,280.000 12.400 C 280.220 12.400,280.400 12.233,280.400 12.028 C 280.400 11.496,277.789 8.800,277.273 8.800 C 277.035 8.800,277.461 9.475,278.218 10.300 M317.300 9.087 C 317.905 9.178,318.895 9.178,319.500 9.087 C 320.105 8.995,319.610 8.920,318.400 8.920 C 317.190 8.920,316.695 8.995,317.300 9.087 M328.400 10.000 C 328.400 10.220,328.670 10.400,329.000 10.400 C 329.330 10.400,329.600 10.220,329.600 10.000 C 329.600 9.780,329.330 9.600,329.000 9.600 C 328.670 9.600,328.400 9.780,328.400 10.000 M95.600 11.173 C 95.600 11.451,97.354 12.400,97.868 12.400 C 97.994 12.400,97.890 12.149,97.636 11.843 C 97.114 11.215,95.600 10.716,95.600 11.173 M302.941 11.197 C 302.151 11.516,301.281 12.400,301.758 12.400 C 302.286 12.400,304.000 11.434,304.000 11.136 C 304.000 10.749,304.060 10.746,302.941 11.197 M268.976 13.787 C 267.966 14.551,268.404 14.559,269.854 13.802 C 270.484 13.474,270.719 13.204,270.376 13.202 C 270.034 13.201,269.404 13.464,268.976 13.787 M273.000 13.668 C 273.440 13.912,274.160 14.401,274.600 14.753 C 275.145 15.190,275.091 15.045,274.430 14.297 C 273.897 13.694,273.177 13.205,272.830 13.212 C 272.353 13.221,272.394 13.332,273.000 13.668 M187.288 14.269 C 186.720 14.497,182.913 19.586,182.039 21.285 C 181.732 21.882,180.997 22.872,180.406 23.485 C 178.574 25.385,175.126 30.377,175.295 30.884 C 175.383 31.149,177.191 28.944,179.313 25.983 C 181.435 23.022,183.534 20.150,183.977 19.600 C 184.420 19.050,184.786 18.480,184.791 18.333 C 184.796 18.186,185.460 17.331,186.266 16.433 C 188.538 13.901,191.600 14.417,191.600 17.331 C 191.600 17.919,191.780 18.400,192.000 18.400 C 192.220 18.400,192.400 17.852,192.400 17.182 C 192.400 14.883,189.654 13.318,187.288 14.269 M141.200 15.200 C 140.760 15.640,140.411 16.315,140.425 16.700 C 140.445 17.235,140.536 17.187,140.814 16.497 C 141.347 15.169,142.894 14.574,144.282 15.161 C 145.520 15.684,146.443 16.974,151.038 24.600 C 152.761 27.460,154.292 29.853,154.440 29.918 C 155.182 30.245,153.849 33.600,152.976 33.600 C 152.659 33.600,152.400 33.780,152.400 34.000 C 152.400 34.785,153.556 34.382,154.409 33.300 C 155.051 32.486,155.226 31.836,155.083 30.800 C 154.889 29.391,150.609 22.000,149.988 22.000 C 149.804 22.000,149.529 21.606,149.376 21.125 C 148.908 19.649,145.721 14.932,145.007 14.658 C 143.714 14.162,141.993 14.407,141.200 15.200 M51.800 16.400 C 50.236 17.436,50.792 17.437,52.490 16.401 C 53.211 15.962,53.620 15.604,53.400 15.604 C 53.180 15.605,52.460 15.963,51.800 16.400 M26.000 18.200 C 25.722 18.535,25.679 18.800,25.902 18.800 C 26.122 18.800,26.526 18.530,26.800 18.200 C 27.078 17.865,27.121 17.600,26.898 17.600 C 26.678 17.600,26.274 17.870,26.000 18.200 M372.800 18.200 C 373.074 18.530,373.478 18.800,373.698 18.800 C 373.921 18.800,373.878 18.535,373.600 18.200 C 373.326 17.870,372.922 17.600,372.702 17.600 C 372.479 17.600,372.522 17.865,372.800 18.200 M140.409 18.648 C 140.404 18.894,141.900 21.594,143.733 24.648 C 145.567 27.702,147.554 31.055,148.150 32.100 C 148.746 33.145,149.391 34.000,149.584 34.000 C 149.777 34.000,150.264 34.122,150.667 34.271 C 151.166 34.455,151.017 34.142,150.200 33.291 C 148.471 31.490,147.596 30.431,147.629 30.184 C 147.661 29.942,145.794 26.746,144.015 24.000 C 143.373 23.010,142.302 21.300,141.633 20.200 C 140.965 19.100,140.414 18.402,140.409 18.648 M190.183 20.500 C 189.565 21.435,187.563 24.225,185.732 26.700 C 183.902 29.175,182.486 31.200,182.586 31.200 C 182.686 31.200,182.057 31.965,181.189 32.900 C 179.581 34.631,179.201 35.399,180.100 35.101 C 180.630 34.925,183.956 30.811,183.984 30.297 C 184.006 29.880,189.139 22.769,190.053 21.888 C 190.996 20.980,192.133 18.800,191.663 18.800 C 191.467 18.800,190.801 19.565,190.183 20.500 M265.451 19.704 C 265.124 20.924,265.141 21.392,265.500 21.033 C 265.665 20.868,265.803 20.613,265.806 20.467 C 265.809 20.320,265.947 19.987,266.113 19.728 C 266.278 19.468,266.251 19.155,266.052 19.032 C 265.853 18.909,265.583 19.212,265.451 19.704 M20.414 23.480 C 18.551 25.284,17.121 26.854,17.235 26.968 C 17.349 27.082,18.953 25.656,20.800 23.800 C 25.135 19.443,24.836 19.196,20.414 23.480 M375.597 20.409 C 375.599 20.524,377.130 22.140,379.000 24.000 C 380.870 25.860,382.400 27.217,382.400 27.015 C 382.400 26.813,380.869 25.197,378.997 23.424 C 377.125 21.651,375.595 20.294,375.597 20.409 M43.802 22.398 C 43.403 22.839,43.262 23.200,43.489 23.200 C 43.992 23.200,44.990 22.057,44.721 21.788 C 44.615 21.682,44.202 21.956,43.802 22.398 M355.000 22.400 C 355.398 22.840,355.904 23.200,356.124 23.200 C 356.344 23.200,356.198 22.840,355.800 22.400 C 355.402 21.960,354.896 21.600,354.676 21.600 C 354.456 21.600,354.602 21.960,355.000 22.400 M39.719 26.245 L 37.400 28.490 39.900 26.405 C 41.275 25.259,42.400 24.249,42.400 24.160 C 42.400 23.750,41.872 24.160,39.719 26.245 M357.962 24.931 C 358.270 25.315,359.260 26.198,360.162 26.893 C 361.742 28.111,361.765 28.117,360.800 27.039 C 359.604 25.703,357.072 23.822,357.962 24.931 M262.080 28.267 C 261.354 29.010,258.699 31.166,256.180 33.058 C 253.661 34.950,251.600 36.576,251.600 36.673 C 251.600 37.217,262.494 28.997,263.128 27.974 C 263.939 26.665,263.536 26.777,262.080 28.267 M166.600 29.812 C 165.940 30.353,165.649 30.797,165.953 30.798 C 166.422 30.800,168.000 29.366,168.000 28.939 C 168.000 28.698,167.830 28.804,166.600 29.812 M127.432 30.076 C 126.657 31.182,126.961 31.540,127.929 30.664 C 129.137 29.571,130.728 29.892,134.698 32.032 C 136.772 33.150,138.548 33.985,138.645 33.888 C 138.743 33.791,137.557 33.046,136.011 32.234 C 134.465 31.421,133.200 30.615,133.200 30.442 C 133.200 29.095,128.335 28.786,127.432 30.076 M126.400 32.626 C 126.400 34.468,129.054 37.130,129.937 36.175 C 130.082 36.018,129.984 35.813,129.720 35.719 C 128.364 35.233,127.200 33.872,127.200 32.771 C 127.200 32.127,127.020 31.600,126.800 31.600 C 126.580 31.600,126.400 32.062,126.400 32.626 M364.450 31.800 C 364.770 32.652,366.616 35.190,366.920 35.195 C 367.097 35.198,366.746 34.525,366.142 33.700 C 364.810 31.880,364.240 31.241,364.450 31.800 M204.275 33.954 C 204.894 34.589,205.469 35.045,205.554 34.967 C 205.885 34.663,204.347 32.800,203.766 32.800 C 203.329 32.800,203.477 33.135,204.275 33.954 M175.206 33.500 C 175.234 34.865,179.200 36.507,179.200 35.153 C 179.200 34.900,178.792 34.785,178.255 34.887 C 177.607 35.011,177.072 34.780,176.555 34.153 C 175.796 33.233,175.195 32.942,175.206 33.500 M194.700 35.280 C 192.555 36.165,190.800 37.047,190.800 37.239 C 190.800 37.597,193.727 36.561,196.626 35.177 C 197.521 34.749,198.455 34.400,198.703 34.400 C 198.950 34.400,199.264 34.220,199.400 34.000 C 199.822 33.317,198.741 33.611,194.700 35.280 M387.549 34.200 C 387.765 34.640,388.234 35.360,388.593 35.800 L 389.244 36.600 388.851 35.800 C 388.635 35.360,388.166 34.640,387.807 34.200 L 387.156 33.400 387.549 34.200 M139.205 34.295 C 139.207 34.463,140.287 35.192,141.605 35.916 C 142.922 36.639,144.000 37.404,144.000 37.616 C 144.000 37.827,144.180 38.000,144.400 38.000 C 145.184 38.000,144.780 37.225,143.478 36.233 C 141.987 35.095,139.198 33.830,139.205 34.295 M130.400 36.411 C 130.400 36.585,131.960 37.571,133.867 38.602 C 135.773 39.633,137.586 40.729,137.895 41.038 C 138.501 41.644,139.207 41.787,139.189 41.300 C 139.174 40.892,130.400 36.012,130.400 36.411 M204.546 37.477 C 203.994 38.217,202.804 38.919,201.054 39.536 C 198.738 40.353,197.590 41.200,198.800 41.200 C 199.020 41.200,199.200 41.063,199.200 40.896 C 199.200 40.729,200.350 40.180,201.757 39.676 C 204.329 38.753,205.809 37.627,205.533 36.800 C 205.452 36.555,205.007 36.859,204.546 37.477 M249.199 38.062 C 248.209 38.720,247.085 39.626,246.700 40.074 C 246.315 40.522,246.000 40.795,246.000 40.680 C 246.000 40.566,245.505 40.896,244.900 41.413 C 244.295 41.931,243.350 42.739,242.800 43.209 C 242.250 43.678,243.195 43.115,244.900 41.958 C 246.605 40.800,248.000 39.706,248.000 39.527 C 248.000 39.347,248.276 39.200,248.613 39.200 C 248.949 39.200,249.329 38.930,249.455 38.600 C 249.582 38.270,249.926 38.000,250.219 38.000 C 250.746 38.000,251.413 37.279,251.139 37.005 C 251.061 36.928,250.188 37.403,249.199 38.062 M9.043 37.833 C 8.893 38.223,8.982 38.406,9.275 38.308 C 9.873 38.109,10.202 37.200,9.676 37.200 C 9.461 37.200,9.176 37.485,9.043 37.833 M159.377 37.562 C 159.500 37.762,159.961 37.831,160.400 37.716 C 161.501 37.428,161.402 37.200,160.176 37.200 C 159.613 37.200,159.254 37.363,159.377 37.562 M187.214 38.238 C 184.990 39.248,184.417 39.762,184.406 40.758 C 184.402 41.108,184.742 40.948,185.316 40.329 C 185.819 39.786,187.169 39.004,188.316 38.592 C 189.462 38.179,190.400 37.698,190.400 37.521 C 190.400 36.993,189.522 37.191,187.214 38.238 M156.800 38.000 C 156.800 38.220,157.070 38.400,157.400 38.400 C 157.730 38.400,158.000 38.220,158.000 38.000 C 158.000 37.780,157.730 37.600,157.400 37.600 C 157.070 37.600,156.800 37.780,156.800 38.000 M170.720 38.080 C 171.093 38.453,171.307 38.453,171.680 38.080 C 172.053 37.707,171.947 37.600,171.200 37.600 C 170.453 37.600,170.347 37.707,170.720 38.080 M153.700 38.665 C 153.425 38.776,153.200 39.015,153.200 39.196 C 153.200 39.605,154.733 39.233,155.030 38.752 C 155.261 38.378,154.530 38.330,153.700 38.665 M173.600 38.753 C 173.600 38.948,173.960 39.201,174.400 39.316 C 175.345 39.563,175.486 38.995,174.567 38.643 C 173.728 38.321,173.600 38.335,173.600 38.753 M7.843 39.833 C 7.513 40.693,7.533 40.800,8.024 40.800 C 8.257 40.800,8.336 40.620,8.200 40.400 C 8.064 40.180,8.143 40.000,8.376 40.000 C 8.609 40.000,8.800 39.820,8.800 39.600 C 8.800 38.967,8.111 39.135,7.843 39.833 M151.612 39.584 C 151.288 39.789,151.127 40.061,151.254 40.188 C 151.569 40.503,152.800 40.001,152.800 39.557 C 152.800 39.101,152.360 39.111,151.612 39.584 M175.600 39.524 C 175.600 39.739,175.885 40.024,176.233 40.157 C 176.623 40.307,176.806 40.218,176.708 39.925 C 176.509 39.327,175.600 38.998,175.600 39.524 M390.800 39.600 C 390.800 39.820,390.991 40.000,391.224 40.000 C 391.457 40.000,391.536 40.180,391.400 40.400 C 391.264 40.620,391.343 40.800,391.576 40.800 C 392.067 40.800,392.087 40.693,391.757 39.833 C 391.489 39.135,390.800 38.967,390.800 39.600 M143.500 41.010 C 142.895 41.534,142.400 42.060,142.400 42.181 C 142.400 42.694,143.531 42.339,144.179 41.623 C 145.266 40.422,144.735 39.942,143.500 41.010 M177.206 40.234 C 177.203 40.472,178.212 41.364,179.450 42.217 C 181.551 43.664,185.274 47.810,186.379 49.934 C 186.646 50.448,186.970 50.763,187.099 50.634 C 187.529 50.205,184.391 46.112,181.880 43.828 C 178.508 40.759,178.001 40.352,177.994 40.700 C 177.991 40.865,177.813 40.730,177.600 40.400 C 177.387 40.070,177.209 39.995,177.206 40.234 M147.975 41.722 C 145.192 43.670,144.006 44.661,141.500 47.132 C 138.044 50.540,137.842 50.775,138.124 51.058 C 138.268 51.201,139.934 49.674,141.827 47.663 C 143.720 45.652,146.334 43.349,147.635 42.546 C 148.936 41.743,150.000 40.932,150.000 40.743 C 150.000 40.290,150.067 40.257,147.975 41.722 M193.400 42.515 C 188.826 44.403,188.986 44.319,189.317 44.650 C 189.647 44.980,198.000 41.618,198.000 41.156 C 198.000 40.640,197.800 40.699,193.400 42.515 M271.456 42.700 C 270.868 43.855,270.566 44.800,270.785 44.800 C 271.305 44.800,272.895 41.680,272.686 41.070 C 272.597 40.812,272.044 41.545,271.456 42.700 M139.600 41.813 C 139.600 42.136,139.870 42.400,140.200 42.400 C 140.530 42.400,140.800 42.239,140.800 42.043 C 140.800 41.846,140.530 41.582,140.200 41.455 C 139.835 41.315,139.600 41.455,139.600 41.813 M184.400 43.374 C 184.400 44.056,186.151 45.350,186.787 45.138 C 187.014 45.062,186.570 44.497,185.800 43.883 C 184.771 43.062,184.400 42.927,184.400 43.374 M236.200 47.632 C 232.524 50.402,232.179 50.712,232.456 50.989 C 232.567 51.100,233.005 50.878,233.429 50.496 C 233.853 50.113,234.874 49.350,235.697 48.800 C 236.521 48.250,237.196 47.665,237.197 47.500 C 237.199 47.335,237.425 47.194,237.700 47.187 C 238.235 47.172,240.000 45.829,240.000 45.436 C 240.000 44.902,239.244 45.339,236.200 47.632 M269.014 46.900 L 267.921 48.600 269.361 47.027 C 270.903 45.342,270.988 45.200,270.453 45.200 C 270.262 45.200,269.615 45.965,269.014 46.900 M265.570 50.511 C 264.563 51.440,263.129 52.650,262.383 53.200 C 261.637 53.750,260.390 54.813,259.613 55.561 C 258.836 56.310,258.574 56.625,259.031 56.261 C 259.489 55.898,259.992 55.600,260.149 55.600 C 260.628 55.600,265.326 51.586,266.529 50.149 C 268.011 48.378,267.791 48.462,265.570 50.511 M188.000 52.800 C 188.449 53.680,188.906 54.400,189.016 54.400 C 189.126 54.400,188.849 53.680,188.400 52.800 C 187.951 51.920,187.494 51.200,187.384 51.200 C 187.274 51.200,187.551 51.920,188.000 52.800 M230.800 51.897 C 228.204 53.598,222.789 57.722,222.946 57.879 C 223.096 58.029,230.686 52.601,231.780 51.561 C 232.355 51.015,231.918 51.164,230.800 51.897 M135.510 54.888 C 134.338 56.676,132.351 60.885,132.574 61.107 C 132.698 61.232,132.800 61.164,132.800 60.957 C 132.800 60.750,133.610 59.160,134.599 57.423 C 136.268 54.494,136.876 52.804,135.510 54.888 M189.200 54.952 C 189.200 55.103,189.686 56.166,190.280 57.313 C 190.874 58.461,191.324 59.535,191.280 59.700 C 191.236 59.865,191.342 60.000,191.515 60.000 C 191.688 60.000,191.858 60.380,191.893 60.845 C 191.964 61.780,192.283 62.251,192.618 61.915 C 192.942 61.591,190.852 56.582,189.967 55.561 C 189.545 55.075,189.200 54.801,189.200 54.952 M255.200 58.876 C 253.770 59.990,252.540 61.059,252.467 61.251 C 252.393 61.443,252.089 61.600,251.789 61.600 C 251.490 61.600,251.010 61.927,250.723 62.326 C 250.435 62.726,249.885 63.170,249.500 63.314 C 249.115 63.457,248.800 63.758,248.800 63.982 C 248.800 64.574,250.776 63.278,253.458 60.926 C 254.746 59.796,256.340 58.411,257.000 57.848 C 259.031 56.117,257.942 56.738,255.200 58.876 M219.576 59.897 C 219.039 60.270,218.330 60.872,218.000 61.234 C 217.670 61.596,216.275 62.737,214.900 63.770 C 213.525 64.802,212.400 65.748,212.400 65.871 C 212.400 65.994,212.985 65.652,213.700 65.111 C 214.415 64.570,215.945 63.452,217.100 62.626 C 218.255 61.801,219.200 60.951,219.200 60.739 C 219.200 60.527,219.360 60.451,219.555 60.572 C 219.933 60.806,221.039 59.705,220.733 59.400 C 220.633 59.300,220.113 59.524,219.576 59.897 M160.600 63.600 C 160.444 63.853,161.428 63.998,163.276 63.994 C 165.312 63.990,166.018 63.870,165.600 63.600 C 164.808 63.088,160.916 63.088,160.600 63.600 M175.368 66.998 C 179.446 69.453,182.192 72.325,184.740 76.800 C 185.429 78.010,185.994 78.750,185.996 78.445 C 186.015 75.603,176.242 65.600,173.447 65.600 C 173.227 65.600,174.091 66.229,175.368 66.998 M243.310 68.090 C 241.501 69.445,240.094 70.627,240.183 70.716 C 240.357 70.890,246.800 66.086,246.800 65.782 C 246.800 65.483,246.727 65.531,243.310 68.090 M151.674 67.258 C 150.724 67.930,150.037 68.571,150.147 68.681 C 150.315 68.848,152.386 67.504,153.780 66.322 C 154.787 65.468,153.213 66.168,151.674 67.258 M194.463 67.000 C 194.462 67.220,194.703 68.030,195.000 68.800 C 195.297 69.570,195.545 69.930,195.552 69.600 C 195.558 69.270,195.317 68.460,195.014 67.800 C 194.712 67.140,194.464 66.780,194.463 67.000 M208.049 68.800 C 207.087 69.680,206.262 70.400,206.217 70.400 C 206.172 70.400,205.160 71.324,203.968 72.453 L 201.800 74.505 204.335 72.567 C 205.729 71.500,207.309 70.220,207.847 69.721 C 208.385 69.222,209.180 68.625,209.613 68.393 C 210.380 67.982,210.700 67.200,210.100 67.200 C 209.935 67.200,209.012 67.920,208.049 68.800 M147.087 71.112 C 145.060 73.161,144.140 74.455,145.159 73.825 C 145.608 73.548,149.735 68.800,149.527 68.800 C 149.443 68.800,148.346 69.840,147.087 71.112 M128.800 69.800 C 128.800 70.130,128.980 70.400,129.200 70.400 C 129.420 70.400,129.600 70.130,129.600 69.800 C 129.600 69.470,129.420 69.200,129.200 69.200 C 128.980 69.200,128.800 69.470,128.800 69.800 M238.000 72.050 C 237.230 72.719,235.025 74.451,233.100 75.900 C 231.174 77.348,229.675 78.609,229.769 78.702 C 230.023 78.956,239.600 71.636,239.600 71.188 C 239.600 70.662,239.591 70.667,238.000 72.050 M377.200 74.624 C 377.200 75.187,377.363 75.546,377.562 75.423 C 377.762 75.300,377.831 74.839,377.716 74.400 C 377.428 73.299,377.200 73.398,377.200 74.624 M143.723 74.890 C 141.809 77.387,141.161 78.400,141.476 78.400 C 141.904 78.400,144.528 74.795,144.280 74.546 C 144.189 74.455,143.938 74.610,143.723 74.890 M126.800 79.200 C 126.800 79.947,126.907 80.053,127.280 79.680 C 127.653 79.307,127.653 79.093,127.280 78.720 C 126.907 78.347,126.800 78.453,126.800 79.200 M139.800 81.037 C 138.375 84.049,138.718 84.141,140.344 81.183 C 141.065 79.873,141.475 78.800,141.256 78.800 C 141.037 78.800,140.382 79.807,139.800 81.037 M226.473 80.800 C 225.083 81.874,223.408 83.168,222.751 83.676 C 222.093 84.184,221.189 84.906,220.741 85.279 C 220.293 85.652,219.718 86.033,219.463 86.124 C 219.208 86.216,219.111 86.411,219.247 86.559 C 219.531 86.867,224.933 82.924,227.600 80.462 C 229.962 78.281,229.586 78.393,226.473 80.800 M186.828 81.276 C 186.885 82.331,187.458 83.354,187.738 82.901 C 187.889 82.656,187.827 82.340,187.600 82.200 C 187.373 82.060,187.283 81.790,187.400 81.600 C 187.517 81.410,187.430 81.142,187.207 81.004 C 186.983 80.866,186.813 80.988,186.828 81.276 M126.400 82.200 C 126.400 82.530,126.580 82.800,126.800 82.800 C 127.020 82.800,127.200 82.530,127.200 82.200 C 127.200 81.870,127.020 81.600,126.800 81.600 C 126.580 81.600,126.400 81.870,126.400 82.200 M126.028 86.100 C 126.052 87.189,126.112 87.270,126.400 86.600 C 126.875 85.495,126.875 84.800,126.400 84.800 C 126.180 84.800,126.013 85.385,126.028 86.100 M188.000 85.400 C 188.000 85.730,188.180 86.000,188.400 86.000 C 188.620 86.000,188.800 85.730,188.800 85.400 C 188.800 85.070,188.620 84.800,188.400 84.800 C 188.180 84.800,188.000 85.070,188.000 85.400 M188.400 87.400 C 188.400 87.730,188.580 88.000,188.800 88.000 C 189.020 88.000,189.200 87.730,189.200 87.400 C 189.200 87.070,189.020 86.800,188.800 86.800 C 188.580 86.800,188.400 87.070,188.400 87.400 M214.411 89.999 C 212.107 91.723,210.157 93.329,210.078 93.567 C 209.789 94.433,210.738 93.967,212.252 92.499 C 213.103 91.674,214.925 90.133,216.300 89.076 C 217.675 88.018,218.800 87.074,218.800 86.977 C 218.800 86.709,218.884 86.651,214.411 89.999 M188.800 90.000 C 188.800 90.440,188.980 90.800,189.200 90.800 C 189.420 90.800,189.600 90.440,189.600 90.000 C 189.600 89.560,189.420 89.200,189.200 89.200 C 188.980 89.200,188.800 89.560,188.800 90.000 M125.600 95.533 C 125.600 98.210,125.735 100.400,125.900 100.400 C 126.252 100.400,126.195 91.261,125.841 90.907 C 125.708 90.775,125.600 92.857,125.600 95.533 M189.200 96.000 C 189.200 97.320,189.350 98.400,189.534 98.400 C 189.718 98.400,189.908 97.320,189.955 96.000 C 190.008 94.532,189.878 93.600,189.621 93.600 C 189.373 93.600,189.200 94.587,189.200 96.000 M208.577 94.567 C 208.150 94.879,207.907 95.240,208.036 95.370 C 208.166 95.499,208.598 95.244,208.998 94.802 C 209.848 93.863,209.673 93.766,208.577 94.567 M268.087 94.624 C 266.784 95.537,265.168 98.961,266.400 98.200 C 266.620 98.064,266.800 97.637,266.800 97.251 C 266.800 96.522,268.554 94.662,269.600 94.281 C 270.126 94.090,270.125 94.059,269.589 94.032 C 269.253 94.014,268.577 94.281,268.087 94.624 M272.400 94.281 C 272.730 94.400,273.608 95.061,274.350 95.749 C 275.414 96.735,275.604 96.814,275.247 96.121 C 274.699 95.057,273.248 93.988,272.411 94.032 C 271.875 94.059,271.874 94.090,272.400 94.281 M204.673 98.115 C 203.423 99.279,202.400 100.398,202.400 100.603 C 202.400 100.807,203.480 99.906,204.800 98.600 C 206.120 97.294,207.200 96.174,207.200 96.113 C 207.200 95.821,206.786 96.149,204.673 98.115 M135.754 102.800 C 135.754 105.550,135.818 106.675,135.896 105.300 C 135.974 103.925,135.974 101.675,135.896 100.300 C 135.818 98.925,135.754 100.050,135.754 102.800 M265.600 100.376 C 265.600 101.049,265.669 101.600,265.753 101.600 C 266.093 101.600,266.269 99.566,265.946 99.367 C 265.756 99.249,265.600 99.703,265.600 100.376 M188.800 101.400 C 188.800 101.950,188.980 102.400,189.200 102.400 C 189.420 102.400,189.600 101.950,189.600 101.400 C 189.600 100.850,189.420 100.400,189.200 100.400 C 188.980 100.400,188.800 100.850,188.800 101.400 M200.481 102.700 C 200.056 103.305,199.411 104.430,199.048 105.200 C 198.685 105.970,198.616 106.274,198.894 105.875 C 199.172 105.476,199.985 104.486,200.700 103.675 C 201.415 102.864,202.000 102.065,202.000 101.900 C 202.000 101.244,201.213 101.659,200.481 102.700 M276.931 105.000 C 276.933 106.540,277.005 107.121,277.092 106.291 C 277.179 105.461,277.177 104.201,277.089 103.491 C 277.000 102.781,276.929 103.460,276.931 105.000 M126.025 105.580 C 126.008 106.527,126.129 106.831,126.412 106.548 C 126.685 106.275,126.694 105.809,126.438 105.168 C 126.074 104.258,126.049 104.283,126.025 105.580 M265.200 107.776 C 265.200 109.002,265.428 109.101,265.716 108.000 C 265.831 107.561,265.762 107.100,265.562 106.977 C 265.363 106.854,265.200 107.213,265.200 107.776 M27.600 107.724 C 27.600 108.241,29.775 112.400,30.045 112.400 C 30.198 112.400,29.771 111.365,29.097 110.100 C 27.762 107.594,27.600 107.337,27.600 107.724 M188.800 108.200 C 188.800 108.530,188.980 108.800,189.200 108.800 C 189.420 108.800,189.600 108.530,189.600 108.200 C 189.600 107.870,189.420 107.600,189.200 107.600 C 188.980 107.600,188.800 107.870,188.800 108.200 M370.738 109.628 C 370.160 110.713,369.811 111.600,369.964 111.600 C 370.266 111.600,372.114 107.980,371.913 107.780 C 371.845 107.712,371.317 108.544,370.738 109.628 M126.406 110.100 C 126.403 110.705,126.580 111.200,126.800 111.200 C 127.306 111.200,127.306 110.383,126.800 109.600 C 126.498 109.132,126.411 109.243,126.406 110.100 M189.200 109.525 C 189.200 109.703,189.785 110.282,190.500 110.810 L 191.800 111.770 190.800 110.507 C 189.816 109.264,189.200 108.886,189.200 109.525 M192.400 112.000 C 192.400 112.220,193.030 112.400,193.800 112.400 C 194.570 112.400,195.200 112.220,195.200 112.000 C 195.200 111.780,194.570 111.600,193.800 111.600 C 193.030 111.600,192.400 111.780,192.400 112.000 M7.600 112.181 C 7.600 112.692,8.573 114.400,8.864 114.400 C 9.387 114.400,9.260 113.717,8.619 113.076 C 8.300 112.757,8.150 112.384,8.286 112.248 C 8.422 112.111,8.323 112.000,8.067 112.000 C 7.810 112.000,7.600 112.082,7.600 112.181 M391.314 112.248 C 391.450 112.384,391.300 112.757,390.981 113.076 C 390.340 113.717,390.213 114.400,390.736 114.400 C 390.920 114.400,391.280 113.942,391.536 113.381 C 392.113 112.115,392.113 112.000,391.533 112.000 C 391.277 112.000,391.178 112.111,391.314 112.248 M136.807 112.926 C 136.780 114.221,139.425 117.208,140.575 117.181 C 141.203 117.166,141.068 116.999,140.012 116.481 C 139.216 116.091,138.237 115.117,137.718 114.200 C 137.221 113.320,136.810 112.747,136.807 112.926 M126.825 114.380 C 126.808 115.327,126.929 115.631,127.212 115.348 C 127.485 115.075,127.494 114.609,127.238 113.968 C 126.874 113.058,126.849 113.083,126.825 114.380 M261.900 115.816 C 261.075 116.583,260.400 117.311,260.400 117.433 C 260.400 117.866,262.808 115.932,263.215 115.172 C 263.771 114.132,263.644 114.195,261.900 115.816 M9.443 115.769 C 9.564 116.082,9.922 116.438,10.240 116.560 C 10.704 116.738,10.735 116.626,10.395 115.991 C 9.913 115.090,9.111 114.903,9.443 115.769 M127.200 118.376 C 127.200 118.829,127.380 119.200,127.600 119.200 C 127.820 119.200,128.000 118.941,128.000 118.624 C 128.000 118.307,127.820 117.936,127.600 117.800 C 127.380 117.664,127.200 117.923,127.200 118.376 M127.600 122.400 C 127.600 123.130,127.766 123.545,128.000 123.400 C 128.220 123.264,128.400 122.814,128.400 122.400 C 128.400 121.986,128.220 121.536,128.000 121.400 C 127.766 121.255,127.600 121.670,127.600 122.400 M384.400 123.000 C 384.117 123.341,383.976 123.709,384.086 123.819 C 384.196 123.929,384.517 123.741,384.800 123.400 C 385.083 123.059,385.224 122.691,385.114 122.581 C 385.004 122.471,384.683 122.659,384.400 123.000 M16.400 125.081 C 16.400 125.290,16.874 125.897,17.454 126.430 C 18.395 127.296,18.462 127.310,18.076 126.567 C 17.560 125.572,16.400 124.544,16.400 125.081 M382.200 125.600 C 381.799 126.043,381.562 126.495,381.672 126.605 C 381.782 126.715,382.199 126.443,382.600 126.000 C 383.001 125.557,383.238 125.105,383.128 124.995 C 383.018 124.885,382.601 125.157,382.200 125.600 M128.000 126.800 C 128.000 127.460,128.180 128.000,128.400 128.000 C 128.620 128.000,128.800 127.460,128.800 126.800 C 128.800 126.140,128.620 125.600,128.400 125.600 C 128.180 125.600,128.000 126.140,128.000 126.800 M272.501 128.600 C 272.505 129.480,272.587 129.793,272.683 129.295 C 272.779 128.798,272.775 128.078,272.675 127.695 C 272.575 127.313,272.496 127.720,272.501 128.600 M42.400 128.154 C 42.400 128.239,42.895 128.627,43.500 129.016 L 44.600 129.724 43.838 128.862 C 43.164 128.099,42.400 127.723,42.400 128.154 M355.762 128.862 L 355.000 129.724 356.100 129.016 C 357.234 128.286,357.449 128.000,356.862 128.000 C 356.676 128.000,356.181 128.388,355.762 128.862 M22.835 131.471 C 23.582 132.389,24.275 133.058,24.376 132.957 C 24.477 132.856,23.867 132.104,23.019 131.287 L 21.479 129.800 22.835 131.471 M376.204 131.596 C 375.574 132.254,375.142 132.875,375.244 132.977 C 375.346 133.079,375.926 132.541,376.532 131.781 C 377.887 130.083,377.736 129.997,376.204 131.596 M97.570 133.854 C 96.704 134.795,96.690 134.862,97.433 134.476 C 98.428 133.960,99.456 132.800,98.919 132.800 C 98.710 132.800,98.103 133.274,97.570 133.854 M301.200 133.800 C 301.717 134.350,302.319 134.800,302.539 134.800 C 302.759 134.800,302.517 134.350,302.000 133.800 C 301.483 133.250,300.881 132.800,300.661 132.800 C 300.441 132.800,300.683 133.250,301.200 133.800 M25.600 134.200 C 25.874 134.530,26.278 134.800,26.498 134.800 C 26.721 134.800,26.678 134.535,26.400 134.200 C 26.126 133.870,25.722 133.600,25.502 133.600 C 25.279 133.600,25.322 133.865,25.600 134.200 M51.600 134.600 C 52.590 135.130,53.580 135.564,53.800 135.564 C 54.020 135.564,53.390 135.130,52.400 134.600 C 51.410 134.070,50.420 133.636,50.200 133.636 C 49.980 133.636,50.610 134.070,51.600 134.600 M347.200 134.600 C 346.210 135.130,345.580 135.564,345.800 135.564 C 346.020 135.564,347.010 135.130,348.000 134.600 C 348.990 134.070,349.620 133.636,349.400 133.636 C 349.180 133.636,348.190 134.070,347.200 134.600 M373.200 134.200 C 372.922 134.535,372.879 134.800,373.102 134.800 C 373.322 134.800,373.726 134.530,374.000 134.200 C 374.278 133.865,374.321 133.600,374.098 133.600 C 373.878 133.600,373.474 133.870,373.200 134.200 M28.000 136.000 C 28.550 136.430,29.159 136.786,29.354 136.791 C 29.549 136.796,29.250 136.440,28.691 136.000 C 28.131 135.560,27.522 135.204,27.337 135.209 C 27.152 135.214,27.450 135.570,28.000 136.000 M119.377 135.963 C 119.684 136.460,121.999 137.734,122.210 137.523 C 122.285 137.448,121.617 136.967,120.725 136.454 C 119.833 135.941,119.227 135.720,119.377 135.963 M128.000 136.824 C 128.000 137.537,128.167 137.944,128.400 137.800 C 128.620 137.664,128.800 137.113,128.800 136.576 C 128.800 136.039,128.620 135.600,128.400 135.600 C 128.180 135.600,128.000 136.151,128.000 136.824 M278.441 136.634 C 277.693 137.165,277.243 137.599,277.441 137.599 C 277.897 137.597,280.400 136.081,280.400 135.806 C 280.400 135.416,279.796 135.671,278.441 136.634 M70.100 138.676 C 70.485 138.776,71.115 138.776,71.500 138.676 C 71.885 138.575,71.570 138.493,70.800 138.493 C 70.030 138.493,69.715 138.575,70.100 138.676 M328.100 138.676 C 328.485 138.776,329.115 138.776,329.500 138.676 C 329.885 138.575,329.570 138.493,328.800 138.493 C 328.030 138.493,327.715 138.575,328.100 138.676 M141.865 141.047 C 141.240 141.386,140.831 141.764,140.955 141.888 C 141.079 142.012,141.444 141.896,141.765 141.629 C 142.086 141.363,142.855 140.992,143.474 140.807 C 144.272 140.567,144.367 140.463,143.800 140.450 C 143.360 140.440,142.489 140.709,141.865 141.047 M263.427 142.297 C 264.039 143.231,264.612 143.921,264.702 143.832 C 264.962 143.571,264.152 142.261,263.195 141.396 C 262.460 140.731,262.499 140.879,263.427 142.297 M138.808 144.384 C 138.364 145.255,138.004 146.200,138.009 146.484 C 138.014 146.768,138.365 146.235,138.789 145.300 C 139.214 144.365,139.750 143.600,139.980 143.600 C 140.211 143.600,140.400 143.420,140.400 143.200 C 140.400 142.284,139.561 142.907,138.808 144.384 M64.705 148.283 C 65.202 148.379,65.922 148.375,66.305 148.275 C 66.687 148.175,66.280 148.096,65.400 148.101 C 64.520 148.105,64.207 148.187,64.705 148.283 M83.100 148.298 C 85.355 148.370,89.045 148.370,91.300 148.298 C 93.555 148.227,91.710 148.169,87.200 148.169 C 82.690 148.169,80.845 148.227,83.100 148.298 M308.321 148.299 C 310.588 148.370,314.188 148.370,316.321 148.298 C 318.455 148.226,316.600 148.168,312.200 148.168 C 307.800 148.168,306.055 148.227,308.321 148.299 M136.909 153.600 C 136.909 154.590,136.987 154.995,137.082 154.500 C 137.178 154.005,137.178 153.195,137.082 152.700 C 136.987 152.205,136.909 152.610,136.909 153.600 M276.493 154.400 C 276.493 155.170,276.575 155.485,276.676 155.100 C 276.776 154.715,276.776 154.085,276.676 153.700 C 276.575 153.315,276.493 153.630,276.493 154.400 M266.025 156.380 C 266.008 157.327,266.129 157.631,266.412 157.348 C 266.685 157.075,266.694 156.609,266.438 155.968 C 266.074 155.058,266.049 155.083,266.025 156.380 M127.200 157.176 C 127.200 157.629,127.380 158.000,127.600 158.000 C 127.820 158.000,128.000 157.741,128.000 157.424 C 128.000 157.107,127.820 156.736,127.600 156.600 C 127.380 156.464,127.200 156.723,127.200 157.176 M127.600 158.941 C 127.600 159.707,129.286 162.101,129.988 162.332 C 130.317 162.440,130.096 161.954,129.488 161.232 C 128.890 160.521,128.400 159.592,128.400 159.169 C 128.400 158.746,128.220 158.400,128.000 158.400 C 127.780 158.400,127.600 158.643,127.600 158.941 M135.832 159.416 C 135.686 159.995,135.133 160.903,134.602 161.434 C 134.071 161.966,133.795 162.400,133.989 162.400 C 134.792 162.400,136.787 159.054,136.285 158.551 C 136.181 158.448,135.977 158.837,135.832 159.416 M267.060 160.611 C 267.270 161.159,268.418 162.000,268.956 162.000 C 269.070 162.000,268.714 161.550,268.164 161.000 C 267.012 159.849,266.729 159.749,267.060 160.611 M273.256 161.213 C 272.736 161.646,272.491 162.000,272.711 162.000 C 272.931 162.000,273.536 161.646,274.056 161.213 C 274.575 160.781,274.820 160.427,274.600 160.427 C 274.380 160.427,273.775 160.781,273.256 161.213 M131.300 162.676 C 131.685 162.776,132.315 162.776,132.700 162.676 C 133.085 162.575,132.770 162.493,132.000 162.493 C 131.230 162.493,130.915 162.575,131.300 162.676 " stroke="none" fill="#f8deb5" fill-rule="evenodd"></path><path id="path3" d="M72.400 0.265 C 67.081 0.785,60.351 2.071,57.600 3.092 C 53.552 4.594,51.821 5.137,51.570 4.981 C 51.404 4.879,51.208 4.942,51.134 5.121 C 51.060 5.300,49.470 6.052,47.600 6.790 C 28.068 14.505,9.915 32.104,5.178 47.917 C 4.900 48.843,4.511 49.600,4.313 49.600 C 4.115 49.600,4.056 49.768,4.183 49.972 C 4.309 50.177,4.227 50.460,4.000 50.600 C 3.773 50.740,3.679 51.004,3.791 51.185 C 3.903 51.366,3.710 52.299,3.363 53.257 C 3.015 54.216,2.684 55.180,2.626 55.400 C 2.568 55.620,2.413 56.070,2.282 56.400 C 0.764 60.208,-0.253 73.754,0.356 82.070 C 0.865 89.019,1.405 92.319,2.947 97.900 C 3.266 99.055,3.432 100.000,3.315 100.000 C 3.198 100.000,3.326 100.270,3.600 100.600 C 3.874 100.930,3.964 101.200,3.800 101.200 C 3.636 101.200,3.726 101.470,4.000 101.800 C 4.274 102.130,4.364 102.400,4.200 102.400 C 4.036 102.400,4.089 102.625,4.317 102.900 C 4.545 103.175,5.190 104.618,5.750 106.106 C 11.187 120.551,25.930 136.295,38.978 141.591 C 40.200 142.087,41.200 142.663,41.200 142.870 C 41.200 143.077,41.348 143.156,41.529 143.044 C 41.711 142.932,43.449 143.371,45.393 144.020 C 47.337 144.669,49.169 145.200,49.464 145.200 C 49.759 145.200,50.000 145.363,50.000 145.563 C 50.000 145.762,50.360 145.831,50.800 145.716 C 51.240 145.601,51.600 145.702,51.600 145.941 C 51.600 146.180,51.861 146.275,52.181 146.152 C 52.500 146.029,52.995 146.075,53.281 146.252 C 53.566 146.430,54.188 146.525,54.662 146.464 C 55.136 146.403,55.631 146.526,55.762 146.739 C 55.893 146.951,56.358 147.032,56.794 146.917 C 57.231 146.803,57.906 146.847,58.294 147.015 C 59.528 147.547,109.463 148.001,122.057 147.594 L 127.515 147.417 127.775 144.609 C 127.918 143.064,128.133 141.240,128.252 140.556 C 128.491 139.178,127.678 138.656,125.500 138.792 C 124.895 138.829,124.399 138.712,124.399 138.530 C 124.398 138.349,123.786 138.187,123.038 138.172 C 121.440 138.138,119.891 137.217,118.906 135.712 C 118.239 134.695,118.200 131.266,118.200 74.218 L 118.200 13.800 119.128 11.915 C 120.536 9.058,121.717 8.536,127.355 8.282 C 132.839 8.034,133.536 7.659,133.982 4.719 C 134.308 2.568,133.040 0.956,130.571 0.383 C 129.138 0.051,75.699 -0.058,72.400 0.265 M269.000 0.440 C 266.501 1.038,265.292 2.568,265.618 4.719 C 266.061 7.636,266.728 7.994,272.226 8.263 C 278.920 8.590,280.326 9.594,281.159 14.635 C 281.672 17.738,281.724 131.996,281.213 134.200 C 280.748 136.206,278.910 137.909,276.854 138.238 C 274.398 138.631,274.344 138.738,275.160 141.615 C 275.563 143.037,276.052 144.920,276.246 145.800 L 276.600 147.400 280.000 147.615 C 284.092 147.873,336.073 147.643,339.200 147.352 C 342.553 147.041,343.339 146.921,344.100 146.605 C 344.485 146.445,345.070 146.418,345.400 146.545 C 345.730 146.671,346.000 146.580,346.000 146.341 C 346.000 146.093,346.430 145.989,347.000 146.098 C 347.550 146.203,348.000 146.113,348.000 145.898 C 348.000 145.683,348.360 145.601,348.800 145.716 C 349.240 145.831,349.600 145.762,349.600 145.563 C 349.600 145.363,349.861 145.200,350.181 145.200 C 350.500 145.200,352.335 144.671,354.259 144.025 C 356.183 143.378,357.901 142.939,358.078 143.048 C 358.255 143.158,358.400 143.086,358.400 142.889 C 358.400 142.692,359.481 142.064,360.803 141.494 C 362.125 140.924,364.583 139.589,366.265 138.529 C 367.946 137.468,369.475 136.645,369.661 136.700 C 369.848 136.755,370.000 136.637,370.000 136.438 C 370.000 136.238,370.867 135.452,371.926 134.691 C 381.334 127.933,391.823 113.757,395.007 103.500 C 395.058 103.335,395.145 103.110,395.200 103.000 C 395.255 102.890,395.345 102.620,395.400 102.400 C 395.455 102.180,395.545 101.910,395.600 101.800 C 395.655 101.690,395.745 101.420,395.800 101.200 C 395.855 100.980,395.936 100.755,395.980 100.700 C 396.024 100.645,396.138 100.150,396.233 99.600 C 396.329 99.050,396.583 98.150,396.799 97.600 C 400.305 88.648,400.199 62.840,396.621 54.307 C 396.277 53.486,396.018 52.676,396.045 52.507 C 396.072 52.338,396.051 52.065,395.997 51.900 C 395.944 51.735,395.855 51.420,395.800 51.200 C 395.745 50.980,395.655 50.710,395.600 50.600 C 395.545 50.490,395.461 50.265,395.413 50.100 C 390.447 32.996,372.101 14.692,352.000 6.785 C 350.130 6.049,348.540 5.300,348.466 5.121 C 348.392 4.942,348.201 4.876,348.041 4.975 C 347.880 5.074,346.501 4.699,344.975 4.141 C 343.449 3.584,341.930 3.072,341.600 3.005 C 341.270 2.938,340.010 2.598,338.800 2.251 C 332.033 0.309,331.521 0.281,300.200 0.166 C 282.325 0.100,269.966 0.208,269.000 0.440 M90.356 9.370 C 92.422 9.680,94.222 10.084,94.356 10.267 C 94.490 10.450,95.050 10.651,95.600 10.713 C 97.078 10.880,99.477 12.612,100.289 14.098 C 101.222 15.807,101.411 128.241,100.485 130.850 C 99.470 133.711,94.856 137.338,91.708 137.750 C 91.099 137.830,90.277 138.031,89.883 138.197 C 89.488 138.363,89.055 138.388,88.920 138.253 C 88.784 138.118,88.431 138.209,88.133 138.455 C 87.834 138.704,86.988 138.805,86.232 138.683 C 85.484 138.561,84.756 138.578,84.614 138.719 C 84.316 139.017,67.579 139.163,67.039 138.872 C 66.841 138.765,65.513 138.619,64.090 138.547 C 62.666 138.475,61.282 138.234,61.014 138.011 C 60.746 137.789,60.418 137.716,60.284 137.849 C 58.610 139.523,45.456 131.974,39.580 125.966 C 34.035 120.298,25.380 106.256,25.095 102.464 C 25.059 101.989,24.869 101.600,24.672 101.600 C 24.475 101.600,24.411 101.348,24.530 101.039 C 24.648 100.731,24.622 100.356,24.472 100.206 C 24.323 100.056,24.185 99.813,24.166 99.667 C 24.148 99.520,23.906 98.860,23.629 98.200 C 23.352 97.540,23.097 96.326,23.062 95.502 C 23.028 94.679,22.844 94.004,22.653 94.002 C 22.463 94.001,22.392 93.556,22.495 93.014 C 22.599 92.472,22.500 91.967,22.277 91.892 C 22.039 91.813,21.855 90.058,21.835 87.678 C 21.816 85.435,21.703 83.600,21.584 83.600 C 21.208 83.600,21.219 79.636,21.595 79.403 C 21.794 79.280,21.862 77.319,21.746 75.033 C 21.612 72.395,21.686 70.794,21.948 70.632 C 22.195 70.480,22.265 69.581,22.124 68.389 C 21.995 67.295,22.049 66.399,22.244 66.398 C 22.440 66.398,22.635 65.137,22.677 63.597 C 22.719 62.058,22.894 60.574,23.065 60.299 C 23.236 60.025,23.323 59.395,23.259 58.900 C 23.195 58.405,23.291 57.999,23.471 57.997 C 23.652 57.996,23.838 57.168,23.884 56.157 C 23.930 55.147,24.154 54.097,24.381 53.823 C 24.607 53.550,24.700 53.233,24.585 53.119 C 24.471 53.004,24.587 52.391,24.843 51.755 C 25.099 51.120,25.360 50.210,25.423 49.733 C 25.610 48.327,29.322 39.928,31.234 36.585 C 34.561 30.768,41.914 22.884,47.634 19.001 C 48.605 18.342,49.490 17.700,49.600 17.575 C 50.863 16.138,58.542 12.193,59.238 12.623 C 59.437 12.746,59.600 12.685,59.600 12.487 C 59.600 11.989,64.210 10.636,64.757 10.973 C 65.001 11.124,65.200 11.036,65.200 10.777 C 65.200 10.504,65.535 10.394,66.000 10.516 C 66.440 10.631,66.800 10.541,66.800 10.316 C 66.800 10.091,67.244 9.992,67.786 10.095 C 68.328 10.199,68.823 10.139,68.886 9.962 C 69.248 8.941,84.667 8.515,90.356 9.370 M326.231 9.236 C 328.634 9.476,330.651 9.810,330.714 9.978 C 330.777 10.146,331.272 10.199,331.814 10.095 C 332.356 9.992,332.801 10.063,332.801 10.253 C 332.802 10.444,333.467 10.615,334.279 10.633 C 335.091 10.652,335.826 10.878,335.912 11.136 C 335.998 11.394,336.229 11.506,336.426 11.384 C 336.912 11.084,340.000 12.036,340.000 12.487 C 340.000 12.685,340.181 12.736,340.402 12.599 C 340.933 12.270,347.851 15.699,349.481 17.099 C 350.186 17.705,351.803 18.920,353.075 19.800 C 359.683 24.372,367.071 33.319,370.623 41.052 C 371.621 43.223,372.608 45.360,372.816 45.800 C 373.386 47.005,374.390 50.014,374.327 50.326 C 374.296 50.477,374.485 51.120,374.747 51.755 C 375.008 52.391,375.129 53.004,375.015 53.119 C 374.900 53.233,374.989 53.546,375.212 53.814 C 375.435 54.083,375.685 55.089,375.768 56.051 C 375.851 57.013,376.049 58.123,376.209 58.517 C 376.368 58.912,376.388 59.345,376.253 59.480 C 376.118 59.616,376.195 59.953,376.425 60.230 C 376.655 60.508,376.879 62.008,376.922 63.566 C 376.965 65.123,377.160 66.398,377.356 66.398 C 377.551 66.399,377.605 67.295,377.476 68.389 C 377.336 69.572,377.406 70.480,377.649 70.630 C 377.908 70.790,377.979 72.475,377.844 75.241 C 377.713 77.914,377.779 79.600,378.015 79.600 C 378.227 79.600,378.400 80.590,378.400 81.800 C 378.400 83.040,378.221 84.000,377.989 84.000 C 377.722 84.000,377.671 84.914,377.844 86.600 C 378.002 88.140,377.958 89.200,377.736 89.200 C 377.529 89.200,377.434 89.830,377.524 90.600 C 377.629 91.494,377.519 92.000,377.220 92.000 C 376.963 92.000,376.870 92.189,377.012 92.420 C 377.340 92.950,376.081 98.703,375.568 99.020 C 375.358 99.149,375.283 99.410,375.400 99.600 C 375.517 99.790,375.438 100.053,375.224 100.185 C 375.010 100.317,374.936 100.690,375.060 101.013 C 375.184 101.336,375.125 101.600,374.928 101.600 C 374.731 101.600,374.541 101.989,374.505 102.464 C 374.388 104.023,368.490 115.371,365.918 118.986 C 360.076 127.200,348.533 136.296,343.200 136.889 C 342.650 136.950,342.096 137.141,341.968 137.313 C 341.841 137.485,341.103 137.683,340.328 137.752 C 339.554 137.822,338.710 138.009,338.453 138.167 C 337.409 138.812,317.852 139.181,313.200 138.643 C 312.210 138.529,311.130 138.412,310.800 138.384 C 310.470 138.356,309.930 138.234,309.600 138.114 C 309.270 137.993,308.512 137.831,307.916 137.752 C 305.883 137.486,301.959 135.098,300.575 133.286 C 298.282 130.283,298.344 132.100,298.477 71.169 L 298.600 14.938 299.697 13.499 C 302.682 9.587,313.051 7.921,326.231 9.236 " stroke="none" fill="#00b5c5" fill-rule="evenodd"></path><path id="path4" d="M71.505 0.283 C 72.002 0.379,72.722 0.375,73.105 0.275 C 73.487 0.175,73.080 0.096,72.200 0.101 C 71.320 0.105,71.007 0.187,71.505 0.283 M326.900 0.276 C 327.285 0.376,327.915 0.376,328.300 0.276 C 328.685 0.175,328.370 0.093,327.600 0.093 C 326.830 0.093,326.515 0.175,326.900 0.276 M133.041 1.735 C 133.459 2.307,133.957 2.781,134.149 2.787 C 134.645 2.805,133.438 1.079,132.807 0.869 C 132.481 0.760,132.569 1.086,133.041 1.735 M266.495 1.066 C 265.905 1.304,265.024 2.806,265.486 2.787 C 265.659 2.781,266.123 2.331,266.519 1.787 C 266.914 1.244,267.184 0.814,267.119 0.832 C 267.053 0.849,266.773 0.955,266.495 1.066 M54.800 3.632 C 51.506 4.790,51.472 4.805,51.665 4.998 C 51.861 5.195,57.093 3.441,57.488 3.045 C 57.887 2.647,57.137 2.810,54.800 3.632 M342.000 2.920 C 342.000 3.034,343.035 3.484,344.300 3.920 C 345.565 4.357,346.960 4.850,347.400 5.016 C 347.943 5.221,348.072 5.186,347.800 4.908 C 347.580 4.683,346.410 4.180,345.200 3.791 C 343.990 3.402,342.775 3.000,342.500 2.899 C 342.225 2.797,342.000 2.807,342.000 2.920 M134.060 4.446 C 134.027 5.247,133.612 6.385,133.131 6.997 L 132.261 8.102 133.126 7.640 C 134.111 7.113,134.541 5.823,134.291 4.148 C 134.139 3.129,134.113 3.162,134.060 4.446 M265.250 4.611 C 265.200 6.223,266.057 8.000,266.885 8.000 C 267.126 8.000,266.992 7.634,266.587 7.186 C 266.182 6.738,265.726 5.613,265.575 4.686 L 265.300 3.000 265.250 4.611 M46.900 6.509 C 44.645 7.402,42.800 8.269,42.800 8.436 C 42.800 8.682,50.585 5.794,51.167 5.332 C 51.961 4.702,50.328 5.152,46.900 6.509 M348.400 5.113 C 348.400 5.279,349.781 5.952,351.469 6.608 C 353.157 7.263,354.687 7.860,354.869 7.933 C 355.051 8.007,355.200 7.902,355.200 7.700 C 355.200 7.499,354.615 7.147,353.900 6.918 C 353.185 6.690,351.655 6.122,350.500 5.657 C 349.345 5.192,348.400 4.947,348.400 5.113 M355.600 7.900 C 355.600 8.081,356.770 8.805,358.200 9.510 C 359.630 10.216,360.800 10.630,360.800 10.432 C 360.800 10.234,359.945 9.667,358.900 9.173 C 357.855 8.680,356.685 8.117,356.300 7.924 C 355.915 7.730,355.600 7.720,355.600 7.900 M40.300 9.232 C 39.219 9.861,39.470 10.442,40.600 9.927 C 41.150 9.677,41.600 9.320,41.600 9.136 C 41.600 8.696,41.165 8.728,40.300 9.232 M76.700 9.082 C 77.195 9.178,78.005 9.178,78.500 9.082 C 78.995 8.987,78.590 8.909,77.600 8.909 C 76.610 8.909,76.205 8.987,76.700 9.082 M84.905 9.087 C 85.514 9.179,86.414 9.177,86.905 9.082 C 87.397 8.987,86.900 8.911,85.800 8.914 C 84.700 8.917,84.297 8.995,84.905 9.087 M313.107 9.090 C 313.826 9.179,314.906 9.177,315.507 9.086 C 316.108 8.995,315.520 8.922,314.200 8.924 C 312.880 8.926,312.388 9.001,313.107 9.090 M321.100 9.082 C 321.595 9.178,322.405 9.178,322.900 9.082 C 323.395 8.987,322.990 8.909,322.000 8.909 C 321.010 8.909,320.605 8.987,321.100 9.082 M68.800 10.000 C 68.800 10.220,69.059 10.400,69.376 10.400 C 69.693 10.400,70.064 10.220,70.200 10.000 C 70.336 9.780,70.077 9.600,69.624 9.600 C 69.171 9.600,68.800 9.780,68.800 10.000 M92.000 10.000 C 92.000 10.220,92.270 10.400,92.600 10.400 C 92.930 10.400,93.200 10.220,93.200 10.000 C 93.200 9.780,92.930 9.600,92.600 9.600 C 92.270 9.600,92.000 9.780,92.000 10.000 M306.400 10.000 C 306.400 10.220,306.670 10.400,307.000 10.400 C 307.330 10.400,307.600 10.220,307.600 10.000 C 307.600 9.780,307.330 9.600,307.000 9.600 C 306.670 9.600,306.400 9.780,306.400 10.000 M329.600 10.000 C 329.600 10.220,329.870 10.400,330.200 10.400 C 330.530 10.400,330.800 10.220,330.800 10.000 C 330.800 9.780,330.530 9.600,330.200 9.600 C 329.870 9.600,329.600 9.780,329.600 10.000 M304.500 10.265 C 303.947 10.488,303.813 11.200,304.324 11.200 C 304.501 11.200,304.996 10.936,305.424 10.613 C 306.213 10.015,305.647 9.802,304.500 10.265 M333.770 10.752 C 334.049 11.203,336.000 11.587,336.000 11.191 C 336.000 11.027,335.595 10.785,335.100 10.652 C 333.850 10.317,333.517 10.342,333.770 10.752 M61.500 11.508 C 60.455 11.856,59.600 12.272,59.600 12.434 C 59.600 12.731,64.299 11.434,64.710 11.024 C 65.121 10.613,63.421 10.869,61.500 11.508 M97.596 11.816 C 98.343 12.799,99.977 14.400,100.235 14.400 C 100.750 14.400,99.452 12.751,98.301 11.943 C 97.172 11.152,97.079 11.135,97.596 11.816 M300.400 12.800 C 299.520 13.680,298.800 14.574,298.800 14.787 C 298.800 15.152,300.754 13.345,301.949 11.875 C 302.973 10.616,302.008 11.192,300.400 12.800 M336.560 11.493 C 337.014 11.947,340.000 12.753,340.000 12.421 C 340.000 12.259,339.304 11.918,338.454 11.663 C 336.665 11.127,336.148 11.081,336.560 11.493 M36.000 11.893 C 35.670 12.020,34.103 12.996,32.518 14.062 C 30.933 15.128,29.467 16.000,29.261 16.000 C 29.054 16.000,28.782 16.270,28.655 16.600 C 28.529 16.930,28.193 17.200,27.909 17.200 C 27.625 17.200,27.168 17.560,26.893 18.000 C 26.618 18.440,26.226 18.800,26.021 18.800 C 25.563 18.800,16.000 28.385,16.000 28.844 C 16.000 29.024,15.625 29.373,15.166 29.618 C 14.707 29.864,14.424 30.157,14.537 30.270 C 14.750 30.483,11.873 34.726,10.455 36.291 C 10.010 36.781,9.781 37.265,9.946 37.367 C 10.110 37.468,10.852 36.617,11.595 35.476 C 16.779 27.507,24.424 19.916,32.800 14.422 C 37.296 11.472,37.484 11.324,36.000 11.893 M363.003 12.005 C 363.137 12.222,363.402 12.400,363.592 12.400 C 364.115 12.400,370.239 16.661,373.400 19.224 C 376.836 22.010,381.519 26.879,384.651 30.920 C 388.913 36.422,388.534 35.970,387.737 34.600 C 387.353 33.940,386.520 32.725,385.886 31.900 C 385.252 31.075,384.864 30.400,385.025 30.400 C 385.185 30.400,384.886 29.975,384.358 29.456 C 383.831 28.937,381.282 26.327,378.694 23.656 C 376.106 20.985,373.812 18.800,373.597 18.800 C 373.383 18.800,372.982 18.440,372.707 18.000 C 372.432 17.560,371.975 17.200,371.691 17.200 C 371.407 17.200,371.071 16.930,370.945 16.600 C 370.818 16.270,370.538 16.000,370.323 16.000 C 370.107 16.000,369.091 15.429,368.065 14.730 C 364.898 12.574,364.225 12.155,363.479 11.878 C 363.047 11.717,362.856 11.767,363.003 12.005 M118.629 13.029 C 118.481 13.615,118.438 14.172,118.532 14.266 C 118.627 14.360,118.824 13.958,118.971 13.371 C 119.119 12.785,119.162 12.228,119.068 12.134 C 118.973 12.040,118.776 12.442,118.629 13.029 M56.135 13.596 C 53.063 15.012,49.166 17.600,50.105 17.600 C 50.487 17.600,50.800 17.437,50.800 17.239 C 50.800 16.819,57.835 13.200,58.651 13.200 C 58.953 13.200,59.200 13.020,59.200 12.800 C 59.200 12.239,58.921 12.312,56.135 13.596 M340.400 12.585 C 340.400 12.687,342.020 13.523,344.000 14.443 C 345.980 15.363,347.600 16.270,347.600 16.458 C 347.600 16.646,347.870 16.800,348.200 16.800 C 348.530 16.800,348.800 16.980,348.800 17.200 C 348.800 17.420,349.105 17.600,349.478 17.600 C 350.554 17.600,347.814 15.744,344.124 13.972 C 340.858 12.405,340.400 12.234,340.400 12.585 M298.595 72.400 C 298.595 103.530,298.642 116.265,298.700 100.700 C 298.758 85.135,298.758 59.665,298.700 44.100 C 298.642 28.535,298.595 41.270,298.595 72.400 M100.995 72.400 C 100.995 103.310,101.042 115.955,101.100 100.500 C 101.158 85.045,101.158 59.755,101.100 44.300 C 101.042 28.845,100.995 41.490,100.995 72.400 M281.395 75.200 C 281.395 107.210,281.442 120.305,281.500 104.300 C 281.558 88.295,281.558 62.105,281.500 46.100 C 281.442 30.095,281.395 43.190,281.395 75.200 M118.195 75.200 C 118.195 106.990,118.242 119.995,118.300 104.100 C 118.358 88.205,118.358 62.195,118.300 46.300 C 118.242 30.405,118.195 43.410,118.195 75.200 M42.864 22.830 C 37.928 27.133,30.602 36.000,31.984 36.000 C 32.220 36.000,32.713 35.370,33.081 34.600 C 33.448 33.830,33.895 33.200,34.074 33.200 C 34.253 33.200,34.400 32.924,34.400 32.587 C 34.400 32.251,34.670 31.871,35.000 31.745 C 35.330 31.618,35.600 31.295,35.600 31.027 C 35.600 30.227,44.200 21.715,44.829 21.893 C 45.009 21.944,45.538 21.449,46.005 20.793 C 47.222 19.083,46.986 19.236,42.864 22.830 M353.381 20.515 C 353.772 21.112,354.282 21.600,354.515 21.600 C 355.290 21.600,364.000 30.324,364.000 31.100 C 364.000 31.375,364.156 31.600,364.347 31.600 C 364.733 31.600,366.970 34.790,366.988 35.367 C 366.995 35.568,367.249 35.816,367.553 35.918 C 368.362 36.187,367.081 34.135,364.143 30.456 C 360.614 26.035,351.455 17.575,353.381 20.515 M30.800 37.200 C 30.510 37.742,30.505 38.000,30.786 38.000 C 31.014 38.000,31.200 37.745,31.200 37.433 C 31.200 37.122,31.425 36.776,31.700 36.665 C 32.077 36.513,32.080 36.455,31.714 36.432 C 31.447 36.414,31.035 36.760,30.800 37.200 M367.900 36.665 C 368.175 36.776,368.400 37.122,368.400 37.433 C 368.400 37.745,368.586 38.000,368.814 38.000 C 369.095 38.000,369.090 37.742,368.800 37.200 C 368.565 36.760,368.153 36.414,367.886 36.432 C 367.520 36.455,367.523 36.513,367.900 36.665 M9.016 38.539 C 8.530 38.894,8.429 39.171,8.719 39.350 C 8.962 39.500,9.355 39.257,9.594 38.811 C 10.104 37.857,10.009 37.813,9.016 38.539 M390.006 38.811 C 390.245 39.257,390.620 39.511,390.839 39.376 C 391.097 39.216,391.073 38.928,390.770 38.564 C 390.062 37.711,389.512 37.889,390.006 38.811 M6.683 43.100 C 4.880 47.140,4.002 49.600,4.362 49.600 C 4.555 49.600,4.836 49.105,4.987 48.500 C 5.138 47.895,5.955 45.915,6.804 44.100 C 7.653 42.285,8.204 40.800,8.029 40.800 C 7.853 40.800,7.247 41.835,6.683 43.100 M393.099 44.900 C 395.090 49.393,396.161 51.094,394.800 47.600 C 393.322 43.804,391.903 40.800,391.587 40.800 C 391.420 40.800,392.101 42.645,393.099 44.900 M373.030 47.415 C 373.381 48.507,373.747 49.651,373.844 49.957 C 373.940 50.264,374.104 50.429,374.208 50.325 C 374.443 50.091,373.224 46.343,372.742 45.815 C 372.549 45.604,372.678 46.324,373.030 47.415 M25.839 48.268 C 25.489 49.295,25.287 50.220,25.390 50.323 C 25.589 50.523,26.231 49.014,26.640 47.382 C 27.064 45.693,26.506 46.310,25.839 48.268 M24.779 51.855 C 24.558 52.436,24.468 53.002,24.579 53.113 C 24.760 53.294,24.957 52.872,25.426 51.300 C 25.710 50.348,25.179 50.804,24.779 51.855 M374.313 51.987 C 374.411 52.654,374.662 53.200,374.872 53.200 C 375.082 53.200,375.132 52.795,374.982 52.300 C 374.548 50.863,374.118 50.662,374.313 51.987 M3.270 52.045 C 2.758 53.430,2.357 55.200,2.555 55.200 C 2.828 55.200,4.017 51.483,3.810 51.277 C 3.707 51.173,3.464 51.519,3.270 52.045 M396.203 53.200 C 396.677 54.815,397.249 55.577,396.954 54.200 C 396.812 53.540,396.520 52.820,396.303 52.600 C 396.045 52.337,396.011 52.543,396.203 53.200 M24.270 53.900 C 24.172 54.065,23.974 55.010,23.829 56.000 C 23.514 58.157,24.159 57.370,24.567 55.100 C 24.817 53.707,24.689 53.191,24.270 53.900 M375.020 55.000 C 375.434 57.342,376.093 58.215,375.776 56.000 C 375.634 55.010,375.342 54.020,375.128 53.800 C 374.874 53.540,374.836 53.958,375.020 55.000 M23.206 58.900 C 23.211 59.628,23.286 59.685,23.600 59.200 C 24.101 58.424,24.101 58.000,23.600 58.000 C 23.380 58.000,23.203 58.405,23.206 58.900 M23.069 60.300 C 22.971 60.465,22.780 61.770,22.644 63.200 C 22.357 66.225,22.939 65.326,23.356 62.100 C 23.607 60.160,23.511 59.556,23.069 60.300 M376.233 62.000 C 376.657 65.305,377.247 66.277,376.961 63.200 C 376.828 61.770,376.546 60.420,376.335 60.200 C 376.089 59.944,376.052 60.590,376.233 62.000 M22.028 67.900 C 22.051 69.103,22.124 69.242,22.400 68.600 C 22.878 67.488,22.878 66.400,22.400 66.400 C 22.180 66.400,22.013 67.075,22.028 67.900 M376.806 67.300 C 376.809 67.795,376.987 68.470,377.200 68.800 C 377.488 69.246,377.589 69.016,377.594 67.900 C 377.597 67.075,377.420 66.400,377.200 66.400 C 376.980 66.400,376.803 66.805,376.806 67.300 M0.114 69.800 C 0.117 70.900,0.195 71.303,0.287 70.695 C 0.379 70.086,0.377 69.186,0.282 68.695 C 0.187 68.203,0.111 68.700,0.114 69.800 M399.309 69.600 C 399.309 70.590,399.387 70.995,399.482 70.500 C 399.578 70.005,399.578 69.195,399.482 68.700 C 399.387 68.205,399.309 68.610,399.309 69.600 M21.900 70.628 C 21.735 70.796,21.618 72.028,21.640 73.367 C 21.680 75.783,21.683 75.789,22.056 74.200 C 22.471 72.434,22.371 70.149,21.900 70.628 M377.228 71.876 C 377.275 74.424,377.939 75.358,377.972 72.924 C 377.987 71.782,377.820 70.736,377.600 70.600 C 377.358 70.451,377.211 70.956,377.228 71.876 M21.451 79.518 C 21.132 80.033,21.334 83.600,21.681 83.600 C 21.857 83.600,22.000 82.610,22.000 81.400 C 22.000 79.282,21.871 78.839,21.451 79.518 M377.600 81.800 C 377.600 83.010,377.780 84.000,378.000 84.000 C 378.220 84.000,378.400 83.010,378.400 81.800 C 378.400 80.590,378.220 79.600,378.000 79.600 C 377.780 79.600,377.600 80.590,377.600 81.800 M0.114 81.800 C 0.117 82.900,0.195 83.303,0.287 82.695 C 0.379 82.086,0.377 81.186,0.282 80.695 C 0.187 80.203,0.111 80.700,0.114 81.800 M399.309 82.400 C 399.309 83.390,399.387 83.795,399.482 83.300 C 399.578 82.805,399.578 81.995,399.482 81.500 C 399.387 81.005,399.309 81.410,399.309 82.400 M21.748 88.556 C 21.887 89.632,22.000 90.847,22.000 91.256 C 22.000 91.665,22.167 92.000,22.371 92.000 C 22.852 92.000,22.429 87.530,21.897 87.000 C 21.629 86.733,21.580 87.249,21.748 88.556 M377.467 87.067 C 377.048 87.485,377.155 89.200,377.600 89.200 C 377.820 89.200,378.000 88.660,378.000 88.000 C 378.000 86.757,377.919 86.615,377.467 87.067 M377.076 90.547 C 376.903 91.178,376.860 91.793,376.981 91.914 C 377.398 92.331,377.660 91.669,377.525 90.537 L 377.390 89.400 377.076 90.547 M22.406 93.100 C 22.403 93.595,22.580 94.000,22.800 94.000 C 23.301 94.000,23.301 93.576,22.800 92.800 C 22.486 92.315,22.411 92.372,22.406 93.100 M376.579 93.453 C 376.122 95.474,375.559 97.778,375.333 98.550 C 375.198 99.012,375.275 99.201,375.532 99.042 C 376.016 98.743,377.400 92.866,377.064 92.531 C 376.940 92.407,376.722 92.822,376.579 93.453 M22.973 95.743 C 23.306 97.584,23.954 99.380,24.196 99.137 C 24.419 98.915,23.343 94.803,22.972 94.459 C 22.819 94.316,22.820 94.894,22.973 95.743 M2.113 96.072 C 2.245 96.441,2.474 97.388,2.622 98.176 C 2.770 98.964,3.034 99.698,3.210 99.806 C 3.591 100.042,2.578 96.031,2.162 95.659 C 2.003 95.516,1.981 95.702,2.113 96.072 M396.800 97.303 C 396.800 97.359,396.623 98.022,396.407 98.776 C 396.191 99.529,396.168 99.978,396.355 99.773 C 396.764 99.326,397.303 97.200,397.008 97.200 C 396.893 97.200,396.800 97.246,396.800 97.303 M24.289 100.049 C 24.536 100.296,24.642 100.746,24.526 101.049 C 24.410 101.352,24.514 101.600,24.757 101.600 C 25.001 101.600,25.200 101.435,25.200 101.233 C 25.200 100.483,24.701 99.600,24.277 99.600 C 23.968 99.600,23.971 99.731,24.289 100.049 M25.452 103.671 C 26.387 106.090,26.945 106.569,26.167 104.285 C 25.814 103.249,25.358 102.298,25.154 102.172 C 24.950 102.046,25.084 102.721,25.452 103.671 M373.493 104.064 C 372.729 106.452,373.169 106.203,374.137 103.700 C 374.498 102.765,374.649 102.000,374.473 102.000 C 374.297 102.000,373.856 102.929,373.493 104.064 M4.762 104.887 C 5.896 108.178,7.266 111.200,7.624 111.200 C 7.803 111.200,7.445 110.075,6.828 108.700 C 6.211 107.325,5.489 105.528,5.224 104.706 C 4.959 103.884,4.582 103.113,4.388 102.993 C 4.193 102.872,4.362 103.725,4.762 104.887 M394.148 105.500 C 393.811 106.325,393.110 107.945,392.590 109.100 C 392.070 110.255,391.782 111.200,391.951 111.200 C 392.285 111.200,393.621 108.392,394.567 105.700 C 395.305 103.600,394.984 103.448,394.148 105.500 M9.029 114.353 C 8.891 114.577,9.188 114.978,9.689 115.245 C 10.548 115.703,10.566 115.687,10.013 114.965 C 9.690 114.544,9.393 114.143,9.353 114.073 C 9.313 114.004,9.167 114.130,9.029 114.353 M389.584 114.830 C 389.176 115.592,389.209 115.623,389.981 115.210 C 390.444 114.963,390.717 114.589,390.588 114.380 C 390.246 113.828,390.080 113.903,389.584 114.830 M31.364 115.531 C 33.928 120.489,48.009 135.217,46.550 131.414 C 46.420 131.076,46.169 130.800,45.991 130.800 C 45.537 130.800,43.780 129.301,41.883 127.297 C 40.997 126.361,40.200 125.667,40.112 125.755 C 39.865 126.001,36.400 122.178,36.400 121.659 C 36.400 121.406,36.214 121.200,35.987 121.200 C 35.760 121.200,35.445 120.885,35.287 120.500 C 34.808 119.332,31.422 114.417,31.090 114.408 C 30.919 114.404,31.043 114.909,31.364 115.531 M366.900 116.403 C 366.185 117.496,365.600 118.573,365.600 118.795 C 365.600 119.018,365.416 119.200,365.190 119.200 C 364.965 119.200,364.609 119.650,364.400 120.200 C 364.191 120.750,363.835 121.200,363.610 121.200 C 363.384 121.200,363.200 121.435,363.200 121.721 C 363.200 122.162,361.704 123.646,354.754 130.100 C 354.339 130.485,353.839 130.800,353.643 130.800 C 353.446 130.800,353.180 131.076,353.050 131.414 C 351.598 135.197,365.685 120.464,368.236 115.531 C 369.194 113.678,368.300 114.261,366.900 116.403 M11.415 117.900 C 11.804 118.505,12.650 119.675,13.295 120.500 C 13.940 121.325,14.362 122.000,14.234 122.000 C 13.976 122.000,14.633 122.778,16.900 125.161 C 17.725 126.028,18.400 126.916,18.400 127.135 C 18.400 127.354,19.120 128.103,20.000 128.800 C 21.924 130.324,22.020 130.207,20.354 128.372 C 17.065 124.753,14.434 121.577,12.837 119.300 C 11.093 116.812,10.067 115.802,11.415 117.900 M386.340 119.900 C 385.104 121.605,382.975 124.215,381.611 125.700 C 380.246 127.185,379.387 128.400,379.703 128.400 C 380.366 128.400,381.600 127.151,381.600 126.480 C 381.600 126.229,382.140 125.625,382.800 125.137 C 383.460 124.649,384.000 124.015,384.000 123.728 C 384.000 123.441,384.360 122.982,384.800 122.707 C 385.240 122.432,385.600 122.050,385.600 121.857 C 385.600 121.665,386.201 120.673,386.936 119.654 C 388.406 117.615,388.915 116.800,388.718 116.800 C 388.647 116.800,387.577 118.195,386.340 119.900 M376.200 131.240 C 374.660 132.580,372.599 134.232,371.621 134.912 C 370.540 135.663,370.051 136.217,370.376 136.325 C 370.670 136.423,371.074 136.210,371.275 135.852 C 371.476 135.493,371.858 135.200,372.124 135.200 C 372.390 135.200,372.832 134.840,373.107 134.400 C 373.382 133.960,373.765 133.600,373.958 133.600 C 374.151 133.600,375.430 132.520,376.800 131.200 C 379.988 128.129,379.757 128.144,376.200 131.240 M23.378 131.607 C 24.245 132.593,25.284 133.531,25.686 133.690 C 26.089 133.850,26.523 134.255,26.652 134.590 C 26.780 134.926,27.093 135.200,27.347 135.200 C 27.601 135.200,28.261 135.605,28.815 136.100 C 29.369 136.595,30.448 137.340,31.211 137.756 C 31.975 138.171,33.230 138.875,34.000 139.320 C 36.392 140.701,34.781 139.462,30.600 136.704 C 28.400 135.253,25.520 133.109,24.200 131.939 L 21.800 129.813 23.378 131.607 M349.600 133.546 C 349.600 133.945,344.282 136.400,343.420 136.400 C 343.105 136.400,342.724 136.599,342.574 136.843 C 342.387 137.145,342.602 137.198,343.250 137.010 C 346.314 136.123,351.338 133.200,349.800 133.200 C 349.690 133.200,349.600 133.356,349.600 133.546 M49.600 133.820 C 49.600 134.431,58.536 138.000,60.066 138.000 C 61.191 138.000,59.729 137.268,57.718 136.825 C 56.443 136.544,54.095 135.715,52.500 134.983 C 50.905 134.251,49.600 133.728,49.600 133.820 M301.152 134.095 C 301.893 135.052,304.384 136.550,304.704 136.230 C 304.847 136.086,304.568 135.864,304.083 135.737 C 303.597 135.611,303.200 135.348,303.200 135.153 C 303.200 134.959,302.989 134.800,302.731 134.800 C 302.474 134.800,301.892 134.485,301.438 134.100 C 300.665 133.443,300.647 133.443,301.152 134.095 M96.729 134.921 C 96.000 135.639,92.691 137.200,91.897 137.200 C 91.540 137.200,91.132 137.387,90.990 137.616 C 90.571 138.294,92.766 137.621,95.300 136.293 C 96.565 135.631,97.600 134.934,97.600 134.744 C 97.600 134.263,97.344 134.315,96.729 134.921 M118.401 134.646 C 118.397 136.063,121.644 138.443,123.487 138.373 C 124.274 138.343,124.029 138.211,121.253 137.169 C 120.512 136.891,119.567 136.109,119.154 135.432 C 118.741 134.754,118.402 134.401,118.401 134.646 M280.482 135.379 C 279.945 136.558,278.277 137.482,276.042 137.840 C 275.139 137.984,274.400 138.255,274.400 138.441 C 274.400 138.907,276.706 138.451,278.374 137.655 C 279.731 137.008,281.542 135.009,281.138 134.605 C 281.024 134.490,280.729 134.839,280.482 135.379 M305.401 136.801 C 305.665 137.228,308.467 138.066,308.735 137.799 C 308.834 137.700,308.664 137.540,308.357 137.445 C 308.051 137.349,307.209 137.082,306.486 136.851 C 305.757 136.618,305.274 136.596,305.401 136.801 M367.131 137.944 C 364.091 139.894,363.670 140.410,366.400 138.839 C 369.758 136.906,369.807 136.873,369.597 136.674 C 369.489 136.572,368.379 137.144,367.131 137.944 M340.600 137.085 C 340.160 137.191,339.620 137.465,339.400 137.693 C 339.125 137.979,339.314 138.031,340.000 137.860 C 340.550 137.723,341.225 137.608,341.500 137.605 C 341.775 137.602,342.000 137.420,342.000 137.200 C 342.000 136.781,341.899 136.773,340.600 137.085 M61.016 137.951 C 61.227 138.148,62.480 138.418,63.800 138.551 C 65.235 138.695,65.878 138.657,65.400 138.456 C 64.196 137.949,60.566 137.530,61.016 137.951 M89.000 138.000 C 88.864 138.220,89.023 138.400,89.353 138.400 C 89.683 138.400,90.064 138.220,90.200 138.000 C 90.336 137.780,90.177 137.600,89.847 137.600 C 89.517 137.600,89.136 137.780,89.000 138.000 M309.400 138.000 C 309.536 138.220,309.917 138.400,310.247 138.400 C 310.577 138.400,310.736 138.220,310.600 138.000 C 310.464 137.780,310.083 137.600,309.753 137.600 C 309.423 137.600,309.264 137.780,309.400 138.000 M335.861 138.019 C 334.794 138.198,333.804 138.470,333.661 138.623 C 333.269 139.040,338.140 138.389,338.580 137.966 C 339.017 137.545,338.647 137.552,335.861 138.019 M86.000 138.400 C 85.543 138.695,85.705 138.789,86.676 138.794 C 87.378 138.797,88.064 138.620,88.200 138.400 C 88.517 137.887,86.793 137.887,86.000 138.400 M124.400 138.400 C 124.400 138.620,124.895 138.797,125.500 138.794 C 126.357 138.789,126.468 138.702,126.000 138.400 C 125.217 137.894,124.400 137.894,124.400 138.400 M311.600 138.400 C 311.930 138.613,312.650 138.788,313.200 138.788 C 313.992 138.788,314.075 138.707,313.600 138.400 C 313.270 138.187,312.550 138.012,312.000 138.012 C 311.208 138.012,311.125 138.093,311.600 138.400 M67.000 138.800 C 67.136 139.020,68.362 139.179,69.724 139.154 C 72.099 139.110,72.135 139.094,70.600 138.777 C 68.349 138.311,66.705 138.322,67.000 138.800 M81.200 138.800 C 80.410 139.053,80.636 139.129,82.276 139.160 C 83.418 139.182,84.464 139.020,84.600 138.800 C 84.892 138.328,82.675 138.328,81.200 138.800 M127.000 138.800 C 127.136 139.020,127.507 139.200,127.824 139.200 C 128.141 139.200,128.400 139.020,128.400 138.800 C 128.400 138.580,128.029 138.400,127.576 138.400 C 127.123 138.400,126.864 138.580,127.000 138.800 M314.800 138.800 C 315.130 139.013,316.300 139.169,317.400 139.147 C 319.140 139.111,319.244 139.066,318.200 138.800 C 316.341 138.327,314.068 138.327,314.800 138.800 M328.800 138.800 C 327.531 139.067,327.605 139.099,329.600 139.141 C 330.810 139.167,332.070 139.013,332.400 138.800 C 333.119 138.335,331.007 138.335,328.800 138.800 M362.400 140.800 C 361.630 141.222,361.144 141.574,361.320 141.583 C 361.744 141.605,364.000 140.432,364.000 140.190 C 364.000 139.928,363.977 139.937,362.400 140.800 M42.800 143.502 C 42.800 143.716,43.835 144.200,45.100 144.578 C 46.365 144.956,47.924 145.431,48.565 145.634 C 49.206 145.837,49.821 145.913,49.932 145.802 C 50.234 145.500,50.039 145.414,47.000 144.510 C 45.460 144.052,43.885 143.550,43.500 143.396 C 43.115 143.241,42.800 143.289,42.800 143.502 M355.624 143.577 C 355.307 143.777,353.822 144.259,352.324 144.648 C 350.826 145.036,349.600 145.512,349.600 145.704 C 349.600 145.896,349.915 145.957,350.300 145.838 C 350.685 145.720,352.207 145.253,353.683 144.800 C 355.159 144.348,356.474 143.803,356.607 143.589 C 356.908 143.102,356.385 143.095,355.624 143.577 M346.000 146.400 C 346.000 146.901,346.424 146.901,347.200 146.400 C 347.685 146.086,347.628 146.011,346.900 146.006 C 346.405 146.003,346.000 146.180,346.000 146.400 M54.400 146.800 C 55.188 147.309,56.115 147.309,55.800 146.800 C 55.664 146.580,55.158 146.403,54.676 146.406 C 53.964 146.411,53.912 146.485,54.400 146.800 M343.800 146.800 C 343.485 147.309,344.412 147.309,345.200 146.800 C 345.688 146.485,345.636 146.411,344.924 146.406 C 344.442 146.403,343.936 146.580,343.800 146.800 M56.800 147.200 C 57.590 147.711,58.916 147.711,58.600 147.200 C 58.464 146.980,57.868 146.803,57.276 146.806 C 56.434 146.811,56.331 146.897,56.800 147.200 M341.200 147.200 C 340.703 147.521,340.738 147.588,341.400 147.588 C 341.840 147.588,342.470 147.413,342.800 147.200 C 343.297 146.879,343.262 146.812,342.600 146.812 C 342.160 146.812,341.530 146.987,341.200 147.200 M60.200 147.600 C 61.384 148.109,62.787 148.109,62.000 147.600 C 61.670 147.387,60.950 147.222,60.400 147.234 C 59.484 147.254,59.467 147.285,60.200 147.600 M120.400 147.622 L 116.200 147.843 121.967 147.922 C 125.138 147.965,127.604 147.871,127.446 147.712 C 127.089 147.356,125.756 147.339,120.400 147.622 M276.399 147.700 C 276.400 147.865,277.885 147.973,279.700 147.940 C 283.107 147.878,282.713 147.710,278.699 147.513 C 277.434 147.451,276.399 147.535,276.399 147.700 M337.400 147.600 C 336.671 147.913,336.688 147.944,337.600 147.944 C 338.150 147.944,338.960 147.789,339.400 147.600 C 340.129 147.287,340.112 147.256,339.200 147.256 C 338.650 147.256,337.840 147.411,337.400 147.600 M66.229 148.113 C 67.578 148.301,74.604 148.286,82.029 148.080 L 95.400 147.709 79.600 147.742 C 69.202 147.763,64.631 147.890,66.229 148.113 M283.905 147.883 C 284.402 147.979,285.122 147.975,285.505 147.875 C 285.887 147.775,285.480 147.696,284.600 147.701 C 283.720 147.705,283.407 147.787,283.905 147.883 M304.411 147.727 C 304.777 148.060,333.016 148.395,334.400 148.083 C 335.191 147.904,328.935 147.720,320.011 147.660 C 311.326 147.602,304.306 147.632,304.411 147.727 " stroke="none" fill="#8cd6e6" fill-rule="evenodd"></path></g></svg>