<svg xmlns="http://www.w3.org/2000/svg" viewBox="0 0 41.21 37.32"><title>BeeSideLeft</title><g id="Layer_2" data-name="Layer 2"><g id="Layer_1-2" data-name="Layer 1"><path d="M8.07,16.14a1.13,1.13,0,0,1-.34.47.69.69,0,0,1-1.09-.18L4.18,11.68a1.12,1.12,0,0,1,.31-1.32.69.69,0,0,1,1.09.18L8,15.29A1.06,1.06,0,0,1,8.07,16.14Z" fill="#e5672f"/><path d="M5.09,17.49a1,1,0,0,1-.9-.07L.31,14.94a.69.69,0,0,1-.06-1.11,1.12,1.12,0,0,1,1.34-.21L5.47,16.1a.69.69,0,0,1,.06,1.11A1.16,1.16,0,0,1,5.09,17.49Z" fill="#e5672f"/><polygon points="34.97 30.65 33.56 32.86 31.82 35.14 34.74 35.44 37.34 35.26 36.04 33.08 34.97 30.65" fill="#0bb4c6"/><path d="M16.49,22.2s6.75-3.56,8.29-9.67S25.11.85,22.07.09s-6.75,3.56-8.29,9.67S16.49,22.2,16.49,22.2Z" fill="#FDE3C2" opacity="0.75"/><path d="M17.12,20.33c.79,3.66-.53,8.06-4.47,9.2-1.74.51-1.31,2.23.46,1.72A9.71,9.71,0,0,0,20,19.55c-.25-1.17-3.16-.43-2.9.78Z" fill="#e5672f"/><path d="M22.27,20.33A9.85,9.85,0,0,1,15.2,32c-1.75.49-1.31,2.22.46,1.72,6.32-1.78,10.94-7.42,9.5-14.18-.25-1.17-3.16-.43-2.9.78Z" fill="#e5672f"/><path d="M27.56,21.65c.28,5.3-2.41,11.54-8.29,12.22C17.76,34,17,36,18.95,35.73c7.56-.87,11.89-7.58,11.51-14.86-.06-1.12-3-.48-2.9.78Z" fill="#e5672f"/><path d="M30.82,28.61c-.76,3.74-3.5,7.32-7.68,6.74-1.28-.18-3,1.6-1.06,1.88,5.73.81,10.56-3.46,11.66-8.9.26-1.27-2.69-.85-2.92.29Z" fill="#e5672f"/><circle cx="9.83" cy="22.59" r="5.75" fill="#e5672f"/><path d="M16.2,21.76s8.8,3.33,15.58-.43,10.81-9.66,9-13.18S32,4.82,25.19,8.58,16.2,21.76,16.2,21.76Z" fill="#FDE3C2" opacity="0.75"/><path d="M16.15,21.61s3.71,5,8.84,5.63,9.48-1,9.72-3.46-3.71-5-8.84-5.63S16.15,21.61,16.15,21.61Z" fill="#FDE3C2" opacity="0.75"/></g></g></svg>
