<svg xmlns="http://www.w3.org/2000/svg" viewBox="0 0 41.21 37.31"><title>BeeSideRight</title><g id="Layer_2" data-name="Layer 2"><g id="Layer_1-2" data-name="Layer 1"><path d="M33.14,16.14a1.13,1.13,0,0,0,.34.47.69.69,0,0,0,1.09-.18L37,11.68a1.12,1.12,0,0,0-.31-1.32.69.69,0,0,0-1.09.18l-2.46,4.76A1.06,1.06,0,0,0,33.14,16.14Z" fill="#e5672f"/><path d="M36.12,17.49a1,1,0,0,0,.9-.07l3.88-2.48A.69.69,0,0,0,41,13.84a1.12,1.12,0,0,0-1.34-.21L35.73,16.1a.69.69,0,0,0-.06,1.11A1.16,1.16,0,0,0,36.12,17.49Z" fill="#e5672f"/><polygon points="6.2 29.99 7.91 32.58 9.28 35.09 6.5 35.09 3.38 35.58 4.66 32.67 6.2 29.99" fill="#0bb4c6"/><path d="M24.72,22.2S18,18.64,16.42,12.53,16.1.85,19.13.09s6.75,3.56,8.29,9.67S24.72,22.2,24.72,22.2Z" fill="#FDE3C2" opacity="0.75"/><path d="M21.18,20.09c-1.06,4.9,1.35,9.75,6.29,11.18,1.08.31,3.42-1.27,1.72-1.76-4.25-1.23-6-5.63-5.09-9.71.27-1.26-2.67-.85-2.92.29Z" fill="#e5672f"/><path d="M16,20.09c-1.36,6.39,2.8,12,8.88,13.67,1.08.31,3.42-1.29,1.72-1.76-5.42-1.53-8.88-6.58-7.69-12.2.27-1.26-2.67-.85-2.92.29Z" fill="#e5672f"/><path d="M10.74,21.41c-.36,6.93,3.56,13.49,10.83,14.33,1.27.15,3-1.65,1.06-1.88-6.21-.72-9.27-7.06-9-12.74.07-1.35-2.86-.85-2.92.29Z" fill="#e5672f"/><path d="M7.48,28.85c1.06,5.22,5.49,9.13,11,8.36,1.5-.21,2.31-2.14.33-1.86-4.45.63-7.58-3.3-8.38-7.28-.24-1.17-3.14-.44-2.9.78Z" fill="#e5672f"/><circle cx="31.38" cy="22.59" r="5.75" fill="#e5672f"/><path d="M25,21.76s-8.8,3.33-15.58-.43S-1.38,11.67.44,8.15,9.24,4.82,16,8.58,25,21.76,25,21.76Z" fill="#FDE3C2" opacity="0.75"/><path d="M25.06,21.61s-3.71,5-8.84,5.63-9.48-1-9.72-3.46,3.71-5,8.84-5.63S25.06,21.61,25.06,21.61Z" fill="#FDE3C2" opacity="0.75"/></g></g></svg>
