<?xml version="1.0" encoding="utf-8"?>
<svg id="master-artboard" viewBox="0 0 1400 980" version="1.1" xmlns="http://www.w3.org/2000/svg" x="0px" y="0px" style="enable-background:new 0 0 1400 980;">


<g id='bee-down' transform="matrix(0.9999999999999999, 0, 0, 0.9999999999999999, -206.19941637600823, 28.86791829264112)"><g transform="matrix(0.2481042667658406, -0.9687357833604738, 0.9687357833604738, 0.2481042667658406, 837.9686529030987, 696.7201135373143)">
		<g>
			<path class="st0" d="M180.9,252.4c9.6,18.7-3.6,25.5-19.8,33.9c-16.3,8.4-34.8,4.9-39.1-3.5c-3.1-6.1,3.6-25.5,19.8-33.9&#10;&#9;&#9;&#9;&#9;C158.1,240.5,171.3,233.7,180.9,252.4z" style="opacity: 0.5; fill: rgb(157, 157, 156);"/>
			<path d="M 197.200005 321.200012 A 60.400002 44.099998 0 0 1 136.800003 365.300011 A 60.400002 44.099998 0 0 1 76.400002 321.200012 A 60.400002 44.099998 0 0 1 136.800003 277.100014 A 60.400002 44.099998 0 0 1 197.200005 321.200012 Z" class="st1" style="fill: rgb(254, 212, 11);"/>
			<path class="st2" d="M116.2,279.7c-6.4,1.7-12.4,4.2-17.6,7.3c-2.1,14.9-4.2,44.3,5.9,71.5c7,3.2,14.9,5.4,23.4,6.3&#10;&#9;&#9;&#9;&#9;C124.6,349,114.9,300.4,116.2,279.7z" style="fill: rgb(30, 18, 1);"/>
			<path class="st2" d="M134.3,277.1c3.8,13.5,14.1,53.5,12,87.7c8.9-1,17.2-3.5,24.4-7c-0.6-17.5-3.3-60.4-14-78.2&#10;&#9;&#9;&#9;&#9;c-6.2-1.6-12.9-2.4-19.8-2.4C135.9,277.1,135.1,277.1,134.3,277.1z" style="fill: rgb(30, 18, 1);"/>
			<path class="st2" d="M197.1,321.2c0-11.8-6.4-22.6-16.7-30.5c2.9,13.1,7.1,34.1,4.8,56.8C192.7,340.2,197.1,331.1,197.1,321.2z" style="fill: rgb(30, 18, 1);"/>
			<path d="M 94.099997 309.200012 A 5.4 5.4 0 0 1 88.699997 314.600012 A 5.4 5.4 0 0 1 83.299997 309.200012 A 5.4 5.4 0 0 1 88.699997 303.800012 A 5.4 5.4 0 0 1 94.099997 309.200012 Z" class="st3" style="fill: rgb(246, 246, 246);"/>
			<path d="M 91.199997 309.200012 A 2.5 2.5 0 0 1 88.699997 311.700012 A 2.5 2.5 0 0 1 86.199997 309.200012 A 2.5 2.5 0 0 1 88.699997 306.700012 A 2.5 2.5 0 0 1 91.199997 309.200012 Z" class="st2" style="fill: rgb(30, 18, 1);"/>
			<path d="M 93.7 324.100006 A 5.2 2.9 0 0 1 88.5 327.000006 A 5.2 2.9 0 0 1 83.3 324.100006 A 5.2 2.9 0 0 1 88.5 321.200006 A 5.2 2.9 0 0 1 93.7 324.100006 Z" class="st4" style="opacity: 0.3; fill: rgb(241, 134, 187);"/>
			<path d="M 68.700001 279.700012 A 3.8 3.8 0 0 1 64.900002 283.500012 A 3.8 3.8 0 0 1 61.100002 279.700012 A 3.8 3.8 0 0 1 64.900002 275.900012 A 3.8 3.8 0 0 1 68.700001 279.700012 Z" class="st2" style="fill: rgb(30, 18, 1);"/>
			<path d="M 73.399998 272.399994 A 3.8 3.8 0 0 1 69.599998 276.199994 A 3.8 3.8 0 0 1 65.799999 272.399994 A 3.8 3.8 0 0 1 69.599998 268.599994 A 3.8 3.8 0 0 1 73.399998 272.399994 Z" class="st2" style="fill: rgb(30, 18, 1);"/>
			<path class="st5" d="M67.3,279.7c0,0,19-1.2,21.7,18.1" style="fill: none; stroke: rgb(29, 29, 27); stroke-miterlimit: 10;"/>
			<path class="st5" d="M72.3,271.9c0,0,17.9,1.1,20.3,19.2" style="fill: none; stroke: rgb(29, 29, 27); stroke-miterlimit: 10;"/>
			<path class="st0" d="M190.2,272.9c5,20.5-9.5,24-27.3,28.3c-17.8,4.3-35-3.5-37.2-12.6c-1.6-6.7,9.5-24,27.3-28.3&#10;&#9;&#9;&#9;&#9;C170.8,255.9,185.3,252.4,190.2,272.9z" style="opacity: 0.5; fill: rgb(157, 157, 156);"/>
			<path class="st2" d="M78.8,333.6c0.7,1.7,1.5,3.4,2.5,5.1c5.2-0.6,7.7-3,7.7-3C84.7,336,81.3,334.9,78.8,333.6z" style="fill: rgb(30, 18, 1);"/>
		</g>
	</g><path class="st7" d="M222.1,315.5c87.7,6.8,118-81.7,100-141.9c-8.9-29.9-27.2-73.3-58.6-85.5c-16-6.2-52.1-2.8-60.3,16.8&#10;&#9;&#9;c-14.2,33.8,28,33.5,47.9,26c30-11.3,43.8-37.8,50.8-68.3c15.8-69.2-33.2-138.2-67.2-192.1" style="fill: none; stroke: rgb(30, 18, 1); stroke-width: 7; stroke-linecap: round; stroke-miterlimit: 10; stroke-dasharray: 22, 28;" transform="matrix(1.0000001490116155, 0, 0, 1.0000001490116155, 973.2611374038786, 272.1832661683338)"/></g>


<g transform="matrix(0.9999999999999999, 0, 0, 0.9999999999999999, -334.0430545291332, -32.9919066201613)"><g transform="matrix(1.0000000298023224, 0, 0, 1.0000000298023224, -13.402836245383014, -2.842170943040401e-14)"><g transform="matrix(-0.8578873532380856, -0.5138474855973563, -0.5138474855973563, 0.8578873532380856, 1058.3565989242961, 243.44170342212004)">
		<g>
			<path class="st0" d="M180.9,252.4c9.6,18.7-3.6,25.5-19.8,33.9c-16.3,8.4-34.8,4.9-39.1-3.5c-3.1-6.1,3.6-25.5,19.8-33.9&#10;&#9;&#9;&#9;&#9;C158.1,240.5,171.3,233.7,180.9,252.4z" style="opacity: 0.5; fill: rgb(157, 157, 156);"/>
			<path d="M 197.200005 321.200012 A 60.400002 44.099998 0 0 1 136.800003 365.300011 A 60.400002 44.099998 0 0 1 76.400002 321.200012 A 60.400002 44.099998 0 0 1 136.800003 277.100014 A 60.400002 44.099998 0 0 1 197.200005 321.200012 Z" class="st1" style="fill: rgb(254, 212, 11);"/>
			<path class="st2" d="M116.2,279.7c-6.4,1.7-12.4,4.2-17.6,7.3c-2.1,14.9-4.2,44.3,5.9,71.5c7,3.2,14.9,5.4,23.4,6.3&#10;&#9;&#9;&#9;&#9;C124.6,349,114.9,300.4,116.2,279.7z" style="fill: rgb(30, 18, 1);"/>
			<path class="st2" d="M134.3,277.1c3.8,13.5,14.1,53.5,12,87.7c8.9-1,17.2-3.5,24.4-7c-0.6-17.5-3.3-60.4-14-78.2&#10;&#9;&#9;&#9;&#9;c-6.2-1.6-12.9-2.4-19.8-2.4C135.9,277.1,135.1,277.1,134.3,277.1z" style="fill: rgb(30, 18, 1);"/>
			<path class="st2" d="M197.1,321.2c0-11.8-6.4-22.6-16.7-30.5c2.9,13.1,7.1,34.1,4.8,56.8C192.7,340.2,197.1,331.1,197.1,321.2z" style="fill: rgb(30, 18, 1);"/>
			<path d="M 94.099997 309.200012 A 5.4 5.4 0 0 1 88.699997 314.600012 A 5.4 5.4 0 0 1 83.299997 309.200012 A 5.4 5.4 0 0 1 88.699997 303.800012 A 5.4 5.4 0 0 1 94.099997 309.200012 Z" class="st3" style="fill: rgb(246, 246, 246);"/>
			<path d="M 91.199997 309.200012 A 2.5 2.5 0 0 1 88.699997 311.700012 A 2.5 2.5 0 0 1 86.199997 309.200012 A 2.5 2.5 0 0 1 88.699997 306.700012 A 2.5 2.5 0 0 1 91.199997 309.200012 Z" class="st2" style="fill: rgb(30, 18, 1);"/>
			<path d="M 93.7 324.100006 A 5.2 2.9 0 0 1 88.5 327.000006 A 5.2 2.9 0 0 1 83.3 324.100006 A 5.2 2.9 0 0 1 88.5 321.200006 A 5.2 2.9 0 0 1 93.7 324.100006 Z" class="st4" style="opacity: 0.3; fill: rgb(241, 134, 187);"/>
			<path d="M 68.700001 279.700012 A 3.8 3.8 0 0 1 64.900002 283.500012 A 3.8 3.8 0 0 1 61.100002 279.700012 A 3.8 3.8 0 0 1 64.900002 275.900012 A 3.8 3.8 0 0 1 68.700001 279.700012 Z" class="st2" style="fill: rgb(30, 18, 1);"/>
			<path d="M 73.399998 272.399994 A 3.8 3.8 0 0 1 69.599998 276.199994 A 3.8 3.8 0 0 1 65.799999 272.399994 A 3.8 3.8 0 0 1 69.599998 268.599994 A 3.8 3.8 0 0 1 73.399998 272.399994 Z" class="st2" style="fill: rgb(30, 18, 1);"/>
			<path class="st5" d="M67.3,279.7c0,0,19-1.2,21.7,18.1" style="fill: none; stroke: rgb(29, 29, 27); stroke-miterlimit: 10;"/>
			<path class="st5" d="M72.3,271.9c0,0,17.9,1.1,20.3,19.2" style="fill: none; stroke: rgb(29, 29, 27); stroke-miterlimit: 10;"/>
			<path class="st0" d="M190.2,272.9c5,20.5-9.5,24-27.3,28.3c-17.8,4.3-35-3.5-37.2-12.6c-1.6-6.7,9.5-24,27.3-28.3&#10;&#9;&#9;&#9;&#9;C170.8,255.9,185.3,252.4,190.2,272.9z" style="opacity: 0.5; fill: rgb(157, 157, 156);"/>
			<path class="st2" d="M78.8,333.6c0.7,1.7,1.5,3.4,2.5,5.1c5.2-0.6,7.7-3,7.7-3C84.7,336,81.3,334.9,78.8,333.6z" style="fill: rgb(30, 18, 1);"/>
		</g>
	</g><path class="st7" d="M222.1,315.5c87.7,6.8,118-81.7,100-141.9c-8.9-29.9-27.2-73.3-58.6-85.5c-16-6.2-52.1-2.8-60.3,16.8&#10;&#9;&#9;c-14.2,33.8,28,33.5,47.9,26c30-11.3,43.8-37.8,50.8-68.3c15.8-69.2-33.2-138.2-67.2-192.1" style="fill: none; stroke: rgb(30, 18, 1); stroke-width: 7; stroke-linecap: round; stroke-miterlimit: 10; stroke-dasharray: 22, 28;" transform="matrix(0.5038442761851626, -0.8637970347343984, 0.8637970347343984, 0.5038442761851626, 362.6608079272746, 415.2922487047981)"/></g><g transform="matrix(-1.0000000298023224, 0, 0, 1.0000000298023224, 1218.476354672799, 459.8246596999361)"><g transform="matrix(-0.8578873532380856, -0.5138474855973563, -0.5138474855973563, 0.8578873532380856, 1058.3565989242961, 243.44170342212004)">
		<g>
			<path class="st0" d="M180.9,252.4c9.6,18.7-3.6,25.5-19.8,33.9c-16.3,8.4-34.8,4.9-39.1-3.5c-3.1-6.1,3.6-25.5,19.8-33.9&#10;&#9;&#9;&#9;&#9;C158.1,240.5,171.3,233.7,180.9,252.4z" style="opacity: 0.5; fill: rgb(157, 157, 156);"/>
			<path d="M 197.200005 321.200012 A 60.400002 44.099998 0 0 1 136.800003 365.300011 A 60.400002 44.099998 0 0 1 76.400002 321.200012 A 60.400002 44.099998 0 0 1 136.800003 277.100014 A 60.400002 44.099998 0 0 1 197.200005 321.200012 Z" class="st1" style="fill: rgb(254, 212, 11);"/>
			<path class="st2" d="M116.2,279.7c-6.4,1.7-12.4,4.2-17.6,7.3c-2.1,14.9-4.2,44.3,5.9,71.5c7,3.2,14.9,5.4,23.4,6.3&#10;&#9;&#9;&#9;&#9;C124.6,349,114.9,300.4,116.2,279.7z" style="fill: rgb(30, 18, 1);"/>
			<path class="st2" d="M134.3,277.1c3.8,13.5,14.1,53.5,12,87.7c8.9-1,17.2-3.5,24.4-7c-0.6-17.5-3.3-60.4-14-78.2&#10;&#9;&#9;&#9;&#9;c-6.2-1.6-12.9-2.4-19.8-2.4C135.9,277.1,135.1,277.1,134.3,277.1z" style="fill: rgb(30, 18, 1);"/>
			<path class="st2" d="M197.1,321.2c0-11.8-6.4-22.6-16.7-30.5c2.9,13.1,7.1,34.1,4.8,56.8C192.7,340.2,197.1,331.1,197.1,321.2z" style="fill: rgb(30, 18, 1);"/>
			<path d="M 94.099997 309.200012 A 5.4 5.4 0 0 1 88.699997 314.600012 A 5.4 5.4 0 0 1 83.299997 309.200012 A 5.4 5.4 0 0 1 88.699997 303.800012 A 5.4 5.4 0 0 1 94.099997 309.200012 Z" class="st3" style="fill: rgb(246, 246, 246);"/>
			<path d="M 91.199997 309.200012 A 2.5 2.5 0 0 1 88.699997 311.700012 A 2.5 2.5 0 0 1 86.199997 309.200012 A 2.5 2.5 0 0 1 88.699997 306.700012 A 2.5 2.5 0 0 1 91.199997 309.200012 Z" class="st2" style="fill: rgb(30, 18, 1);"/>
			<path d="M 93.7 324.100006 A 5.2 2.9 0 0 1 88.5 327.000006 A 5.2 2.9 0 0 1 83.3 324.100006 A 5.2 2.9 0 0 1 88.5 321.200006 A 5.2 2.9 0 0 1 93.7 324.100006 Z" class="st4" style="opacity: 0.3; fill: rgb(241, 134, 187);"/>
			<path d="M 68.700001 279.700012 A 3.8 3.8 0 0 1 64.900002 283.500012 A 3.8 3.8 0 0 1 61.100002 279.700012 A 3.8 3.8 0 0 1 64.900002 275.900012 A 3.8 3.8 0 0 1 68.700001 279.700012 Z" class="st2" style="fill: rgb(30, 18, 1);"/>
			<path d="M 73.399998 272.399994 A 3.8 3.8 0 0 1 69.599998 276.199994 A 3.8 3.8 0 0 1 65.799999 272.399994 A 3.8 3.8 0 0 1 69.599998 268.599994 A 3.8 3.8 0 0 1 73.399998 272.399994 Z" class="st2" style="fill: rgb(30, 18, 1);"/>
			<path class="st5" d="M67.3,279.7c0,0,19-1.2,21.7,18.1" style="fill: none; stroke: rgb(29, 29, 27); stroke-miterlimit: 10;"/>
			<path class="st5" d="M72.3,271.9c0,0,17.9,1.1,20.3,19.2" style="fill: none; stroke: rgb(29, 29, 27); stroke-miterlimit: 10;"/>
			<path class="st0" d="M190.2,272.9c5,20.5-9.5,24-27.3,28.3c-17.8,4.3-35-3.5-37.2-12.6c-1.6-6.7,9.5-24,27.3-28.3&#10;&#9;&#9;&#9;&#9;C170.8,255.9,185.3,252.4,190.2,272.9z" style="opacity: 0.5; fill: rgb(157, 157, 156);"/>
			<path class="st2" d="M78.8,333.6c0.7,1.7,1.5,3.4,2.5,5.1c5.2-0.6,7.7-3,7.7-3C84.7,336,81.3,334.9,78.8,333.6z" style="fill: rgb(30, 18, 1);"/>
		</g>
	</g><path class="st7" d="M222.1,315.5c87.7,6.8,118-81.7,100-141.9c-8.9-29.9-27.2-73.3-58.6-85.5c-16-6.2-52.1-2.8-60.3,16.8&#10;&#9;&#9;c-14.2,33.8,28,33.5,47.9,26c30-11.3,43.8-37.8,50.8-68.3c15.8-69.2-33.2-138.2-67.2-192.1" style="fill: none; stroke: rgb(30, 18, 1); stroke-width: 7; stroke-linecap: round; stroke-miterlimit: 10; stroke-dasharray: 22, 28;" transform="matrix(0.5038442761851626, -0.8637970347343984, 0.8637970347343984, 0.5038442761851626, 362.6608079272746, 415.2922487047981)"/></g></g></svg>
