<?xml version="1.0" encoding="utf-8"?>
<!-- Generator: Adobe Illustrator 21.0.2, SVG Export Plug-In . SVG Version: 6.00 Build 0)  -->
<svg version="1.1" id="Layer_1" xmlns="http://www.w3.org/2000/svg" xmlns:xlink="http://www.w3.org/1999/xlink" x="0px" y="0px"
	 viewBox="0 0 601.1 680" style="enable-background:new 0 0 601.1 680;" xml:space="preserve">
<style type="text/css">
	.st0{fill:#0BB4C6;}
	.st1{font-family:'MyriadPro-Semibold';}
	.st2{font-size:12px;}
	.st3{font-size:12.0006px;}
	.st4{font-size:12.0096px;}
	.st5{font-size:12.0599px;}
	.st6{font-size:11.991px;}
	.st7{font-size:12.0413px;}
	.st8{font-size:12.0485px;}
	.st9{font-size:11.9645px;}
	.st10{font-size:12.0539px;}
	.st11{fill:#231F20;}
	.st12{opacity:0.75;fill:#939598;enable-background:new    ;}
	.st13{opacity:0.75;fill:#C7C8CA;enable-background:new    ;}
	.st14{fill:none;}
</style>
<title>DRD_Bee1</title>
<text transform="matrix(1.4586 -6.393888e-02 4.379375e-02 0.999 352.5099 77.42)" class="st0 st1 st2">d</text>
<text transform="matrix(1.4596 -3.516149e-02 2.408322e-02 0.9997 362.3501 77.0201)" class="st0 st1 st2">i</text>
<text transform="matrix(1.4599 -9.999500e-03 9.999500e-03 0.9999 366.3994 76.9097)" class="st0 st1 st3">s</text>
<text transform="matrix(1.4599 1.987519e-02 -1.361315e-02 0.9999 373.3105 76.8401)" class="st0 st1 st2">c</text>
<text transform="matrix(1.4588 5.995206e-02 -3.996804e-02 0.9992 380.9807 76.9291)" class="st0 st1 st4">o</text>
<text transform="matrix(1.4566 9.930233e-02 -6.801529e-02 0.9977 390.4095 77.3201)" class="st0 st1 st2">v</text>
<text transform="matrix(1.4428 0.1393 -9.950372e-02 0.995 398.5802 77.8702)" class="st0 st1 st5">e</text>
<text transform="matrix(1.4495 0.1746 -0.1196 0.9928 407.2496 78.7202)" class="st0 st1 st2">r</text>
<text transform="matrix(1.4419 0.2291 -0.157 0.9876 416.5492 79.8799)" class="st0 st1 st2">a</text>
<text transform="matrix(1.4297 0.2961 -0.2028 0.9792 428.4305 81.8298)" class="st0 st1 st2">n</text>
<text transform="matrix(1.4184 0.346 -0.237 0.9715 437.8802 83.8001)" class="st0 st1 st2">e</text>
<text transform="matrix(1.4 0.41 -0.28 0.96 446.3303 85.8099)" class="st0 st1 st2">w</text>
<text transform="matrix(1.3713 0.501 -0.3432 0.9393 462.0998 90.4999)" class="st0 st1 st2">w</text>
<text transform="matrix(1.351 0.5604 -0.3903 0.9207 474.0508 94.9097)" class="st0 st1 st6">a</text>
<text transform="matrix(1.3257 0.6117 -0.419 0.908 481.6396 98.0801)" class="st0 st1 st2">y</text>
<text transform="matrix(1.2881 0.6872 -0.4707 0.8823 492.351 103.1104)" class="st0 st1 st2">o</text>
<text transform="matrix(1.2557 0.7275 -0.4983 0.867 500.7506 107.6401)" class="st0 st1 st7">f</text>
<text transform="matrix(1.2151 0.7968 -0.5478 0.8366 508.29 112.0394)" class="st0 st1 st8">b</text>
<text transform="matrix(1.1843 0.8538 -0.5848 0.8112 516.5397 117.44)" class="st0 st1 st2">e</text>
<text transform="matrix(1.1564 0.8912 -0.6104 0.7921 523.5803 122.5598)" class="st0 st1 st2">i</text>
<text transform="matrix(1.1246 0.931 -0.6377 0.7703 526.8098 124.9903)" class="st0 st1 st2">n</text>
<text transform="matrix(1.0746 0.9751 -0.6766 0.7363 534.2097 131.1003)" class="st0 st1 st5">g</text>
<text transform="matrix(1.0437 1.021 -0.6993 0.7148 541.1599 137.5298)" class="st0 st1 st2">.</text>
<text transform="matrix(1.023 1.0431 -0.7121 0.7021 543.7297 140.0399)" class="st0 st1 st9">.</text>
<text transform="matrix(0.9955 1.0553 -0.7267 0.6869 546.2402 142.5894)" class="st0 st1 st10">.</text>
<path class="st11" d="M321.4,79.7c-0.1-0.2-0.2-0.4-0.3-0.6c-0.1-0.4,0.1-0.8,0.5-1c0.1,0,0.2,0,0.3,0l6,0.1c0.6,0,1,0.5,1.1,1
	c0.1,0.4-0.1,0.8-0.5,1c-0.1,0-0.2,0-0.3,0l-6-0.1C322,80.1,321.7,80,321.4,79.7z"/>
<path class="st11" d="M316,71.2c-0.2-0.3-0.3-0.7-0.2-1l1.5-4.9c0.1-0.4,0.6-0.6,1-0.5c0.1,0,0.1,0.1,0.2,0.1
	c0.5,0.3,0.8,0.8,0.6,1.4l-1.5,4.9c-0.1,0.4-0.6,0.6-1,0.5c-0.1,0-0.1-0.1-0.2-0.1C316.2,71.5,316.1,71.3,316,71.2z"/>
<path class="st11" d="M285.8,80.2c1-0.7,2.7,0.1,3.8,1.8l11.9,17.9c1.1,1.7,1.2,3.5,0.2,4.2s-2.7-0.1-3.8-1.8L286,84.3
	C284.9,82.7,284.8,80.8,285.8,80.2z"/>
<path class="st11" d="M281.3,86c0.8-0.6,2.3,0.1,3.2,1.5l9.9,15c0.9,1.4,1,3,0.1,3.5s-2.3-0.1-3.2-1.5l-9.9-15
	C280.5,88.1,280.4,86.5,281.3,86z"/>
<path class="st11" d="M279.1,95.4c0.7-0.6,1.8-0.5,2.4,0.3l5,7.6c0.3,1-0.2,2-1.1,2.4c-0.6,0.2-1.4,0.1-1.9-0.4l-5-7.6
	C278,96.8,278.3,95.8,279.1,95.4z"/>
<path class="st11" d="M292.9,78.3c0.9-0.6,2.4,0.1,3.3,1.4l9.9,15c0.9,1.4,1,3,0.1,3.6s-2.4-0.1-3.3-1.4l-9.9-15
	C292,80.5,292,78.9,292.9,78.3z"/>
<path class="st11" d="M301.8,79c0.8-0.6,1.9-0.5,2.5,0.3l5.4,8.1c0.4,1-0.2,2.2-1.2,2.5c-0.7,0.2-1.5,0.1-2-0.4l-5.4-8.1
	C300.7,80.6,301,79.5,301.8,79z"/>
<ellipse transform="matrix(0.8197 -0.5729 0.5729 0.8197 11.3001 193.6823)" class="st11" cx="313.3" cy="78.9" rx="6.4" ry="6.4"/>
<polygon class="st0" points="281.1,104.8 279.2,101.9 277.3,99.2 275.7,102.4 274.3,105.4 277.6,105.1 "/>
<path class="st12" d="M304.3,85.2c0,0-0.7,12,6.3,18.9s15.5,9.8,19,6.3s0.7-12-6.3-18.9S304.3,85.2,304.3,85.2z"/>
<path class="st12" d="M304.7,85c0,0-4.5,6.5-3.1,12.9s5.1,11.1,8.3,10.4s4.5-6.5,3.1-12.9S304.7,85,304.7,85z"/>
<path class="st12" d="M304.3,85.3c0,0-11.4-3.8-15.3-12.8s-3.4-18,1.1-19.9s11.4,3.8,15.3,12.8S304.3,85.3,304.3,85.3z"/>
<path class="st12" d="M304.7,85c0,0-7.6,2-13.2-1.5s-8.6-8.6-6.9-11.3s7.6-2,13.2,1.5S304.7,85,304.7,85z"/>
<path class="st11" d="M479.3,427.3c-0.1,1.2-1.8,2-3.8,1.8l-21.4-2c-2-0.2-3.5-1.3-3.4-2.5s1.8-2,3.8-1.8l21.4,2
	C477.8,425,479.4,426.1,479.3,427.3z"/>
<path class="st11" d="M477.6,420.1c-0.1,1-1.5,1.7-3.2,1.5l-17.9-1.7c-1.6-0.2-2.9-1.1-2.8-2.1s1.5-1.7,3.2-1.5l17.9,1.7
	C476.5,418.1,477.7,419.1,477.6,420.1z"/>
<path class="st11" d="M471.7,412.5c0,0.9-0.8,1.7-1.7,1.7l-9.1-0.9c-1-0.3-1.6-1.3-1.3-2.3c0.2-0.7,0.9-1.3,1.6-1.3l9.1,0.9
	C471.3,410.7,471.8,411.6,471.7,412.5z"/>
<path class="st11" d="M476.3,434c-0.1,1.1-1.5,1.8-3.2,1.6l-17.9-1.7c-1.6-0.2-2.9-1.1-2.8-2.2s1.5-1.8,3.2-1.6l17.9,1.7
	C475.1,431.9,476.4,432.9,476.3,434z"/>
<path class="st11" d="M470.1,440.5c0,1-0.8,1.8-1.8,1.8l-9.7-0.9c-1-0.4-1.6-1.5-1.2-2.6c0.2-0.7,0.9-1.2,1.6-1.3l9.7,0.9
	C469.6,438.6,470.2,439.5,470.1,440.5z"/>
<ellipse transform="matrix(7.097517e-02 -0.9975 0.9975 7.097517e-02 -18.178 879.2487)" class="st11" cx="462.9" cy="449.4" rx="6.4" ry="6.4"/>
<path class="st12" d="M463,441.7c0,0,1.2-11.9-5.4-19.2s-15-10.5-18.6-7.1s-1.2,11.9,5.4,19.2S463,441.7,463,441.7z"/>
<polygon class="st0" points="463,408.2 466.4,408 469.4,408.4 468.2,405.7 466.8,403.3 465.2,405.7 "/>
<path class="st12" d="M463,441.7c0,0,1.1-12,9-17.8s16.7-7.4,19.7-3.5s-1.1,12-9,17.8S463,441.7,463,441.7z"/>
<path class="st11" d="M457,455.4c0.2,0,0.4,0.1,0.6,0.2c0.4,0.2,0.5,0.7,0.3,1c0,0.1-0.1,0.1-0.1,0.2l-4.3,4.1
	c-0.4,0.4-1,0.4-1.5,0.1c-0.4-0.2-0.5-0.7-0.3-1c0-0.1,0.1-0.1,0.1-0.2l4.3-4.1C456.4,455.5,456.7,455.4,457,455.4z"/>
<path class="st11" d="M465.8,457.1c0-0.2,0.2-0.4,0.3-0.6c0.2-0.3,0.7-0.4,1.1-0.2c0.1,0,0.1,0.1,0.2,0.2l3.4,4.9
	c0.3,0.5,0.2,1.1-0.1,1.5c-0.2,0.3-0.7,0.4-1.1,0.2c-0.1,0-0.1-0.1-0.2-0.2l-3.4-4.9C465.7,457.8,465.7,457.4,465.8,457.1z"/>
<path class="st11" d="M9,656.5c-0.1,0.2-0.2,0.4-0.4,0.5c-0.3,0.3-0.8,0.3-1.1,0c-0.1-0.1-0.1-0.1-0.1-0.2l-2.7-5.3
	c-0.2-0.5-0.1-1.1,0.4-1.5c0.3-0.3,0.8-0.3,1.1,0c0.1,0.1,0.1,0.1,0.1,0.2l2.7,5.3C9.1,655.9,9.1,656.2,9,656.5z"/>
<path class="st11" d="M5.7,658c-0.3,0.1-0.7,0.1-1-0.1l-4.3-2.8c-0.4-0.2-0.5-0.7-0.2-1.1c0-0.1,0.1-0.1,0.1-0.2
	c0.4-0.4,1-0.5,1.5-0.2l4.3,2.8c0.4,0.2,0.5,0.7,0.2,1.1c0,0.1-0.1,0.1-0.2,0.2C6,657.8,5.9,657.9,5.7,658z"/>
<polygon class="st0" points="38.9,672.7 37.4,675.1 35.4,677.7 38.7,678 41.6,677.8 40.1,675.4 "/>
<path class="st13" d="M18.4,663.3c0,0,7.5-4,9.2-10.8c1.7-6.8,0.4-13-3-13.9s-7.5,4-9.2,10.8S18.4,663.3,18.4,663.3z"/>
<path class="st11" d="M19.2,661.1c0.9,4.2-0.6,9.1-5.1,10.4c-1.7,0.5-1.3,2.2,0.5,1.7c5.6-1.5,9-7.2,7.6-12.9
	C21.9,659.2,19,659.9,19.2,661.1L19.2,661.1z"/>
<path class="st11" d="M25,661.1c1.3,5.8-2.2,11.6-8,13.2c-1.8,0.5-1.3,2.2,0.5,1.7c7-2,12-8.2,10.4-15.7
	C27.6,659.2,24.7,659.9,25,661.1z"/>
<path class="st11" d="M30.8,662.6c0.3,6-2.8,13-9.4,13.8c-1.5,0.2-2.3,2.1-0.3,1.9c8.3-1,13.1-8.4,12.6-16.4
	C33.7,660.7,30.7,661.3,30.8,662.6z"/>
<path class="st11" d="M34.5,670.4c-0.9,4.3-4,8.3-8.8,7.6c-1.3-0.2-3,1.6-1.1,1.9c6.3,0.9,11.6-3.8,12.8-9.8
	C37.7,668.8,34.7,669.3,34.5,670.4L34.5,670.4z"/>
<circle class="st11" cx="10.9" cy="663.7" r="6.4"/>
<path class="st12" d="M18,662.8c0,0,9.8,3.7,17.3-0.5s12-10.8,10-14.7s-9.8-3.7-17.4,0.5S18,662.8,18,662.8z"/>
<path class="st12" d="M18,662.6c0,0,4.1,5.6,9.8,6.3s10.6-1.1,10.8-3.9s-4.1-5.6-9.8-6.3S18,662.6,18,662.6z"/>
<path class="st11" d="M234.4,273.3c0.1,0.2,0.2,0.4,0.4,0.5c0.3,0.3,0.8,0.3,1.1,0c0.1-0.1,0.1-0.1,0.1-0.2l2.7-5.3
	c0.2-0.5,0.1-1.1-0.4-1.5c-0.3-0.3-0.8-0.3-1.1,0c-0.1,0.1-0.1,0.1-0.1,0.2l-2.7,5.3C234.3,272.6,234.3,273,234.4,273.3z"/>
<path class="st11" d="M237.7,274.8c0.3,0.1,0.7,0.1,1-0.1l4.3-2.8c0.4-0.2,0.5-0.7,0.2-1.1c0-0.1-0.1-0.1-0.1-0.2
	c-0.4-0.4-1-0.5-1.5-0.2l-4.3,2.8c-0.4,0.2-0.5,0.7-0.2,1.1c0,0.1,0.1,0.1,0.1,0.2C237.4,274.6,237.6,274.7,237.7,274.8z"/>
<polygon class="st0" points="204.4,288.7 206.3,291.6 207.8,294.4 204.8,294.4 201.3,294.9 202.7,291.7 "/>
<path class="st13" d="M225,280c0,0-7.5-4-9.2-10.8s-0.4-13,3-13.9c3.4-0.9,7.5,4,9.2,10.8S225,280,225,280z"/>
<path class="st11" d="M221.3,277.7c-1.2,5.4,1.5,10.8,6.9,12.4c1.1,0.3,3.4-1.3,1.7-1.8c-4.8-1.4-6.7-6.3-5.7-10.9
	C224.4,276.2,221.5,276.6,221.3,277.7L221.3,277.7z"/>
<path class="st11" d="M215.5,277.7c-1.5,7.1,3.1,13.2,9.8,15.1c1.1,0.3,3.4-1.3,1.7-1.8c-6.1-1.7-10-7.4-8.6-13.7
	C218.7,276.2,215.8,276.6,215.5,277.7L215.5,277.7z"/>
<path class="st11" d="M209.6,279.1c-0.4,7.6,3.9,14.9,12,15.9c1.3,0.1,3-1.6,1.1-1.9c-7-0.8-10.4-7.9-10.1-14.3
	C212.7,277.5,209.7,278,209.6,279.1L209.6,279.1z"/>
<path class="st11" d="M206,287.4c1.2,5.7,6,10.1,12.1,9.3c1.5-0.2,2.3-2.1,0.3-1.9c-5,0.7-8.6-3.7-9.5-8.2
	C208.7,285.4,205.8,286.2,206,287.4L206,287.4z"/>
<circle class="st11" cx="232.5" cy="280.5" r="6.4"/>
<path class="st12" d="M225.4,279.5c0,0-9.8,3.7-17.4-0.5s-12-10.8-10-14.7s9.8-3.7,17.4,0.5S225.4,279.5,225.4,279.5z"/>
<path class="st12" d="M225.4,279.4c0,0-4.1,5.6-9.8,6.3s-10.6-1.1-10.8-3.9s4.1-5.6,9.8-6.3S225.4,279.4,225.4,279.4z"/>
<path class="st12" d="M139.5,463.4c0,0,11.9,1.8,19.5-4.4s11.3-14.4,8.1-18.2s-11.9-1.8-19.5,4.4S139.5,463.4,139.5,463.4z"/>
<path class="st12" d="M139.3,463.1c0,0,6,5.2,12.5,4.4s11.5-4,11.2-7.2s-6-5.2-12.5-4.4S139.3,463.1,139.3,463.1z"/>
<path class="st12" d="M139.6,463.4c0,0-4.9,11-14.3,14s-18.2,1.6-19.7-3.1s4.9-11,14.3-14S139.6,463.4,139.6,463.4z"/>
<path class="st12" d="M139.3,463.1c0,0,1.3,7.8-2.8,13s-9.4,7.8-12,5.8s-1.3-7.8,2.8-13S139.3,463.1,139.3,463.1z"/>
<path class="st11" d="M135.8,445.9c-0.2,0.1-0.4,0.2-0.6,0.2c-0.4,0.1-0.8-0.2-0.9-0.6c0-0.1,0-0.2,0-0.2l0.7-5.9
	c0.1-0.5,0.6-1,1.1-1c0.4-0.1,0.8,0.2,0.9,0.6c0,0.1,0,0.2,0,0.2l-0.7,5.9C136.3,445.4,136.1,445.7,135.8,445.9z"/>
<path class="st11" d="M126.7,450.5c-0.3,0.2-0.7,0.2-1,0.1l-4.7-2c-0.4-0.2-0.6-0.6-0.4-1c0-0.1,0.1-0.1,0.1-0.2
	c0.3-0.5,0.9-0.7,1.4-0.5l4.7,2c0.4,0.2,0.6,0.6,0.4,1c0,0.1-0.1,0.1-0.1,0.2C127,450.2,126.9,450.4,126.7,450.5z"/>
<path class="st11" d="M132.7,481.3c-0.6-1.1,0.4-2.7,2.2-3.6l19-10.1c1.8-0.9,3.6-0.8,4.2,0.2s-0.4,2.7-2.2,3.6l-19,10.1
	C135.1,482.5,133.2,482.4,132.7,481.3z"/>
<path class="st11" d="M138,486.5c-0.5-0.9,0.3-2.2,1.8-3l15.9-8.4c1.5-0.8,3-0.7,3.5,0.2s-0.3,2.2-1.8,3l-15.9,8.4
	C140.1,487.4,138.5,487.4,138,486.5z"/>
<path class="st11" d="M147.2,489.5c-0.5-0.8-0.3-1.8,0.5-2.3l8.1-4.3c1-0.3,2,0.2,2.3,1.2c0.2,0.7,0,1.5-0.6,2l-8.1,4.3
	C148.5,490.8,147.5,490.4,147.2,489.5z"/>
<path class="st11" d="M131.5,474.1c-0.5-0.9,0.3-2.3,1.8-3.1l15.9-8.4c1.5-0.8,3.1-0.6,3.6,0.3s-0.3,2.3-1.8,3.1l-15.9,8.4
	C133.6,475.2,132,475.1,131.5,474.1z"/>
<path class="st11" d="M133.1,465.3c-0.5-0.8-0.3-1.9,0.5-2.5l8.6-4.5c1.1-0.3,2.2,0.4,2.4,1.5c0.2,0.7-0.1,1.5-0.6,2l-8.6,4.5
	C134.6,466.6,133.5,466.2,133.1,465.3z"/>
<ellipse transform="matrix(0.8723 -0.4889 0.4889 0.8723 -204.7844 123.557)" class="st11" cx="134.2" cy="453.9" rx="6.4" ry="6.4"/>
<polygon class="st0" points="156.8,488.4 154,490 151.2,491.8 153.8,493.6 156.5,495 156.5,491.7 "/>
<path class="st14" d="M226.3,505.3"/>
</svg>
