<svg id="Layer_1" data-name="Layer 1" xmlns="http://www.w3.org/2000/svg" viewBox="0 0 601.07 679.98">
    <defs>
        <style>.cls-1{font-size:12px;font-family:MyriadPro-Regular, Myriad Pro;}.cls-1,.cls-3{fill:#0bb4c6;}.cls-2{fill:#e5672f;}.cls-4{fill:#faaa42;opacity:0.75;}.cls-5{fill:none;}</style>
    </defs>
    <title>DRD_Bee1</title>
<g id='being-bee' class='bee-with-text'>
  <g>
    <text class="cls-1" id='text' transform="translate(352.51 77.42) rotate(-2.51) scale(1.46 1)">d</text><text class="cls-1" transform="translate(362.35 77.02) rotate(-1.38) scale(1.46 1)">i</text><text class="cls-1" transform="matrix(1.46, -0.01, 0.01, 1, 366.4, 76.91)">s</text><text class="cls-1" transform="translate(373.31 76.84) rotate(0.78) scale(1.46 1)">c</text><text class="cls-1" transform="matrix(1.46, 0.06, -0.04, 1, 380.98, 76.93)">o</text>
      <text class="cls-1" transform="translate(390.41 77.32) rotate(3.9) scale(1.46 1)">v</text><text class="cls-1" transform="matrix(1.45, 0.14, -0.1, 1, 398.58, 77.87)">e</text><text class="cls-1" transform="translate(407.25 78.72) rotate(6.87) scale(1.46 1)">r</text><text class="cls-1" transform="translate(412.89 79.4) rotate(7.8) scale(1.46 1)"> </text><text class="cls-1" transform="translate(416.55 79.88) rotate(9.03) scale(1.46 1)">a</text><text class="cls-1" transform="matrix(1.44, 0.26, -0.18, 0.98, 424.82, 81.22)"> </text><text class="cls-1" transform="translate(428.43 81.83) rotate(11.7) scale(1.46 1)">n</text><text class="cls-1" transform="translate(437.88 83.8) rotate(13.71) scale(1.46 1)">e</text><text class="cls-1" transform="matrix(1.4, 0.41, -0.28, 0.96, 446.33, 85.81)">w</text><text class="cls-1" transform="translate(458.62 89.45) rotate(18.08) scale(1.46 1)"> </text><text class="cls-1" transform="translate(462.1 90.5) rotate(20.07) scale(1.46 1)">w</text><text class="cls-1" transform="matrix(1.35, 0.56, -0.39, 0.92, 474.05, 94.91)">a</text><text class="cls-1" transform="translate(481.64 98.08) rotate(24.77) scale(1.46 1)">y</text><text class="cls-1" transform="matrix(1.31, 0.65, -0.44, 0.9, 489.05, 101.54)"> </text><text class="cls-1" transform="translate(492.35 103.11) rotate(28.08) scale(1.46 1)">o</text><text class="cls-1" transform="matrix(1.26, 0.73, -0.5, 0.87, 500.75, 107.64)">f</text><text class="cls-1" transform="translate(505.13 110.18) rotate(31.26) scale(1.46 1)"> </text><text class="cls-1" transform="matrix(1.22, 0.8, -0.55, 0.84, 508.29, 112.04)">b</text><text class="cls-1" transform="translate(516.54 117.44) rotate(35.79) scale(1.46 1)">e</text><text class="cls-1" transform="translate(523.58 122.56) rotate(37.62) scale(1.46 1)">i</text><text class="cls-1" transform="translate(526.81 124.99) rotate(39.62) scale(1.46 1)">n</text><text class="cls-1" transform="matrix(1.08, 0.98, -0.68, 0.74, 534.21, 131.1)">g</text><text class="cls-1" transform="translate(541.16 137.53) rotate(44.37) scale(1.46 1)">.</text><text class="cls-1" transform="matrix(1.02, 1.04, -0.71, 0.7, 543.73, 140.04)">.</text><text class="cls-1" transform="matrix(1, 1.06, -0.73, 0.69, 546.24, 142.59)">.</text>
    </g>
    <path class="cls-2" d="M324.6,80a1.25,1.25,0,0,1-.28-.58.76.76,0,0,1,.76-1l6,.14a1.25,1.25,0,0,1,1.13,1,.76.76,0,0,1-.76,1l-6-.14A1.18,1.18,0,0,1,324.6,80Z" transform="translate(-3.16 -0.29)"/>
    <path class="cls-2" d="M319.13,71.47a1.17,1.17,0,0,1-.19-1l1.51-4.9a.77.77,0,0,1,1.17-.39,1.25,1.25,0,0,1,.63,1.38l-1.51,4.9a.77.77,0,0,1-1.17.39A1.29,1.29,0,0,1,319.13,71.47Z" transform="translate(-3.16 -0.29)"/>
    <path class="cls-2" d="M289,80.44c1-.67,2.71.14,3.81,1.79l11.91,17.94c1.1,1.66,1.18,3.54.18,4.2s-2.71-.14-3.81-1.79L289.2,84.64C288.1,83,288,81.1,289,80.44Z" transform="translate(-3.16 -0.29)"/>
    <path class="cls-2" d="M284.41,86.26c.84-.56,2.26.12,3.18,1.5l9.94,15c.92,1.38,1,3,.15,3.51s-2.26-.12-3.18-1.5l-9.94-15C283.64,88.39,283.57,86.82,284.41,86.26Z" transform="translate(-3.16 -0.29)"/>
    <path class="cls-2" d="M282.26,95.66a1.7,1.7,0,0,1,2.37.26l5.05,7.61a1.86,1.86,0,0,1-3,2l-5.05-7.61A1.7,1.7,0,0,1,282.26,95.66Z" transform="translate(-3.16 -0.29)"/>
    <path class="cls-2" d="M296.05,78.58c.89-.59,2.35.06,3.26,1.44l9.94,15c.92,1.38.95,3,.06,3.57s-2.35-.06-3.26-1.44l-9.94-15C295.2,80.76,295.17,79.17,296.05,78.58Z" transform="translate(-3.16 -0.29)"/>
    <path class="cls-2" d="M305,79.31a1.8,1.8,0,0,1,2.51.28l5.37,8.09a2,2,0,0,1-3.23,2.14l-5.37-8.09A1.8,1.8,0,0,1,305,79.31Z" transform="translate(-3.16 -0.29)"/>
    <circle class="cls-2" cx="316.43" cy="79.21" r="6.41" transform="translate(8.52 195.24) rotate(-34.95)"/>
    <polygon class="cls-3" points="281.09 104.78 279.18 101.95 277.25 99.17 275.74 102.36 274.29 105.45 277.61 105.11 281.09 104.78"/>
    <path class="cls-4" d="M307.48,85.48s-.66,12,6.32,18.94,15.47,9.76,19,6.26.66-12-6.32-18.94S307.48,85.48,307.48,85.48Z" transform="translate(-3.16 -0.29)"/>
    <path class="cls-4" d="M307.82,85.25s-4.55,6.48-3.13,12.91,5.13,11.09,8.28,10.39,4.55-6.48,3.13-12.91S307.82,85.25,307.82,85.25Z" transform="translate(-3.16 -0.29)"/>
    <path class="cls-4" d="M307.48,85.55s-11.38-3.78-15.29-12.83-3.4-18,1.13-19.93,11.38,3.78,15.29,12.83S307.48,85.55,307.48,85.55Z" transform="translate(-3.16 -0.29)"/>
    <path class="cls-4" d="M307.82,85.25s-7.65,2-13.2-1.5S286,75.11,287.71,72.4s7.65-2,13.2,1.5S307.82,85.25,307.82,85.25Z" transform="translate(-3.16 -0.29)"/>
  </g> /*end of bee-with-text*/

  <g class='bee' id='bee-down'>
    <path class="cls-2" d="M482.42,427.63c-.11,1.2-1.81,2-3.79,1.83l-21.43-2c-2-.19-3.49-1.31-3.38-2.51s1.81-2,3.79-1.83l21.43,2C481,425.31,482.53,426.44,482.42,427.63Z" transform="translate(-3.16 -0.29)"/>
    <path class="cls-2" d="M480.79,420.38c-.1,1-1.51,1.68-3.17,1.52l-17.9-1.7c-1.65-.16-2.92-1.09-2.82-2.1s1.51-1.68,3.17-1.52l17.9,1.7C479.63,418.44,480.89,419.38,480.79,420.38Z" transform="translate(-3.16 -0.29)"/>
    <path class="cls-2" d="M474.85,412.8a1.7,1.7,0,0,1-1.69,1.68l-9.09-.87a1.86,1.86,0,0,1,.35-3.64l9.09.87A1.7,1.7,0,0,1,474.85,412.8Z" transform="translate(-3.16 -0.29)"/>
    <path class="cls-2" d="M479.43,434.27c-.1,1.06-1.52,1.79-3.18,1.63l-17.9-1.7c-1.65-.16-2.91-1.14-2.81-2.2s1.52-1.79,3.18-1.63l17.9,1.7C478.28,432.22,479.54,433.21,479.43,434.27Z" transform="translate(-3.16 -0.29)"/>
    <path class="cls-2" d="M473.23,440.76a1.8,1.8,0,0,1-1.8,1.78l-9.67-.92a2,2,0,0,1,.37-3.86l9.67.92A1.8,1.8,0,0,1,473.23,440.76Z" transform="translate(-3.16 -0.29)"/>
    <circle class="cls-2" cx="466.11" cy="449.7" r="6.41" transform="translate(-18.72 882.4) rotate(-85.93)"/><path class="cls-4" d="M466.16,442s1.21-11.94-5.44-19.21-15-10.46-18.65-7.13-1.21,11.94,5.44,19.21S466.16,442,466.16,442Z" transform="translate(-3.16 -0.29)"/>
    <polygon class="cls-3" points="463.03 408.17 466.37 408.05 469.44 408.37 468.18 405.7 466.81 403.26 465.19 405.67 463.03 408.17"/><path class="cls-4" d="M466.18,442s1.07-11.95,9-17.83,16.71-7.43,19.66-3.47-1.07,11.95-9,17.83S466.18,442,466.18,442Z" transform="translate(-3.16 -0.29)"/>

    <path class="cls-2" d="M460.17,455.73a1.25,1.25,0,0,1,.61.21.76.76,0,0,1,.16,1.22l-4.28,4.15a1.25,1.25,0,0,1-1.51.09.76.76,0,0,1-.16-1.22l4.28-4.15A1.18,1.18,0,0,1,460.17,455.73Z" transform="translate(-3.16 -0.29)"/>
    <path class="cls-2" d="M468.92,457.41a1.25,1.25,0,0,1,.3-.57.76.76,0,0,1,1.23,0l3.44,4.87a1.25,1.25,0,0,1-.15,1.51.76.76,0,0,1-1.23,0l-3.44-4.87A1.18,1.18,0,0,1,468.92,457.41Z" transform="translate(-3.16 -0.29)"/>
  </g>

  <g id='bee-profile-left' class='bee'>
    <path class="cls-2" d="M12.15,656.8a1.25,1.25,0,0,1-.38.53.76.76,0,0,1-1.22-.2l-2.74-5.3a1.25,1.25,0,0,1,.35-1.47.76.76,0,0,1,1.22.2l2.74,5.3A1.18,1.18,0,0,1,12.15,656.8Z" transform="translate(-3.16 -0.29)"/>
    <path class="cls-2" d="M8.83,658.3a1.17,1.17,0,0,1-1-.08l-4.32-2.76a.77.77,0,0,1-.07-1.23A1.25,1.25,0,0,1,4.93,654l4.32,2.76A.77.77,0,0,1,9.33,658,1.29,1.29,0,0,1,8.83,658.3Z" transform="translate(-3.16 -0.29)"/>
    <polygon class="cls-3" points="38.94 672.66 37.37 675.12 35.43 677.67 38.68 677.99 41.59 677.8 40.13 675.37 38.94 672.66"/>
    <path class="cls-4" d="M21.53,663.55s7.52-4,9.23-10.77.37-13-3-13.86-7.52,4-9.23,10.77S21.53,663.55,21.53,663.55Z" transform="translate(-3.16 -0.29)"/>
    <path class="cls-2" d="M22.4,661.42c.9,4.18-.65,9.09-5.12,10.39-1.74.51-1.31,2.23.46,1.72a10.68,10.68,0,0,0,7.56-12.88c-.25-1.17-3.16-.43-2.9.78Z" transform="translate(-3.16 -0.29)"/>
    <path class="cls-2" d="M28.12,661.42a11.1,11.1,0,0,1-8,13.15c-1.75.49-1.31,2.22.46,1.72,7-2,12-8.21,10.44-15.65-.25-1.17-3.16-.43-2.9.78Z" transform="translate(-3.16 -0.29)"/>
    <path class="cls-2" d="M34,662.89c.31,6-2.77,13-9.41,13.75-1.51.17-2.32,2.09-.33,1.86,8.32-1,13.05-8.4,12.64-16.39-.06-1.12-3-.48-2.9.78Z" transform="translate(-3.16 -0.29)"/>
    <path class="cls-2" d="M37.65,670.67c-.86,4.26-4,8.29-8.78,7.63-1.28-.18-3,1.6-1.06,1.88,6.3.88,11.55-3.83,12.76-9.79.26-1.27-2.69-.85-2.92.29Z" transform="translate(-3.16 -0.29)"/>
    <circle class="cls-2" cx="10.95" cy="663.69" r="6.41"/>
  </g>
  <g id='bee-profile-right' class='bee'>
    <path class="cls-4" d="M21.21,663.06s9.8,3.7,17.35-.48,12-10.76,10-14.67-9.8-3.7-17.35.48S21.21,663.06,21.21,663.06Z" transform="translate(-3.16 -0.29)"/>
    <path class="cls-4" d="M21.15,662.89s4.13,5.6,9.84,6.27,10.56-1.06,10.83-3.86S37.68,659.7,32,659,21.15,662.89,21.15,662.89Z" transform="translate(-3.16 -0.29)"/>
    <path class="cls-2" d="M237.58,273.58a1.25,1.25,0,0,0,.38.53.76.76,0,0,0,1.22-.2l2.74-5.3a1.25,1.25,0,0,0-.35-1.47.76.76,0,0,0-1.22.2l-2.74,5.3A1.18,1.18,0,0,0,237.58,273.58Z" transform="translate(-3.16 -0.29)"/>
    <path class="cls-2" d="M240.9,275.07a1.17,1.17,0,0,0,1-.08l4.32-2.76a.77.77,0,0,0,.07-1.23,1.25,1.25,0,0,0-1.49-.24l-4.32,2.76a.77.77,0,0,0-.07,1.23A1.29,1.29,0,0,0,240.9,275.07Z" transform="translate(-3.16 -0.29)"/>
    <polygon class="cls-3" points="204.42 288.7 206.33 291.59 207.84 294.38 204.75 294.38 201.28 294.92 202.7 291.68 204.42 288.7"/>
    <path class="cls-4" d="M228.2,280.33s-7.52-4-9.23-10.77-.37-13,3-13.86,7.52,4,9.23,10.77S228.2,280.33,228.2,280.33Z" transform="translate(-3.16 -0.29)"/>
    <path class="cls-2" d="M224.42,278c-1.17,5.41,1.48,10.78,6.93,12.37,1.08.31,3.42-1.27,1.72-1.76-4.77-1.39-6.73-6.3-5.74-10.9.27-1.26-2.67-.85-2.92.29Z" transform="translate(-3.16 -0.29)"/>
    <path class="cls-2" d="M218.7,278c-1.51,7.07,3.09,13.24,9.82,15.14,1.08.31,3.42-1.29,1.72-1.76-6.07-1.71-10-7.37-8.63-13.67.27-1.26-2.67-.85-2.92.29Z" transform="translate(-3.16 -0.29)"/>
    <path class="cls-2" d="M212.8,279.42c-.4,7.65,3.92,14.94,12,15.87,1.27.15,3-1.65,1.06-1.88-7-.8-10.43-7.88-10.1-14.28.07-1.35-2.86-.85-2.92.29Z" transform="translate(-3.16 -0.29)"/>
    <path class="cls-2" d="M209.18,287.68c1.16,5.74,6,10.1,12.05,9.25,1.5-.21,2.31-2.14.33-1.86-5,.71-8.57-3.66-9.48-8.17-.24-1.17-3.14-.44-2.9.78Z" transform="translate(-3.16 -0.29)"/>
    <circle class="cls-2" cx="232.46" cy="280.46" r="6.41"/>
    <path class="cls-4" d="M228.52,279.83s-9.8,3.7-17.35-.48-12-10.76-10-14.67,9.8-3.7,17.35.48S228.52,279.83,228.52,279.83Z" transform="translate(-3.16 -0.29)"/>
    <path class="cls-4" d="M228.58,279.66s-4.13,5.6-9.84,6.27-10.56-1.06-10.83-3.86,4.13-5.6,9.84-6.27S228.58,279.66,228.58,279.66Z" transform="translate(-3.16 -0.29)"/>
  </g>
  <g id='bee-up'>
    <path class="cls-4" d="M142.69,463.73s11.85,1.84,19.47-4.41,11.25-14.42,8.11-18.24-11.85-1.84-19.47,4.41S142.69,463.73,142.69,463.73Z" transform="translate(-3.16 -0.29)"/>
    <path class="cls-4" d="M142.48,463.37s6,5.17,12.54,4.39,11.54-4,11.16-7.21-6-5.17-12.54-4.39S142.48,463.37,142.48,463.37Z" transform="translate(-3.16 -0.29)"/>
    <path class="cls-4" d="M142.76,463.74s-4.89,11-14.28,14-18.22,1.61-19.72-3.1,4.89-11,14.28-14S142.76,463.74,142.76,463.74Z" transform="translate(-3.16 -0.29)"/>
    <path class="cls-4" d="M142.48,463.37s1.28,7.81-2.8,13-9.44,7.75-12,5.75-1.28-7.81,2.8-13S142.48,463.37,142.48,463.37Z" transform="translate(-3.16 -0.29)"/>
    <path class="cls-2" d="M139,446.15a1.25,1.25,0,0,1-.61.22.76.76,0,0,1-.89-.85l.73-5.92a1.25,1.25,0,0,1,1.12-1,.76.76,0,0,1,.89.85l-.73,5.92A1.18,1.18,0,0,1,139,446.15Z" transform="translate(-3.16 -0.29)"/>
    <path class="cls-2" d="M135.84,481.59c-.56-1.06.41-2.68,2.16-3.61l19-10.07c1.76-.93,3.64-.82,4.2.24s-.41,2.68-2.16,3.61l-19,10.07C138.28,482.76,136.4,482.65,135.84,481.59Z" transform="translate(-3.16 -0.29)"/>
    <path class="cls-2" d="M141.18,486.76c-.47-.89.34-2.24,1.81-3l15.89-8.41c1.47-.78,3-.69,3.51.2s-.34,2.24-1.81,3L144.69,487C143.22,487.74,141.65,487.65,141.18,486.76Z" transform="translate(-3.16 -0.29)"/>
    <path class="cls-2" d="M150.32,489.83a1.7,1.7,0,0,1,.49-2.33l8.07-4.27a1.86,1.86,0,0,1,1.71,3.23l-8.07,4.27A1.7,1.7,0,0,1,150.32,489.83Z" transform="translate(-3.16 -0.29)"/>
    <path class="cls-2" d="M134.68,474.41c-.5-.94.29-2.33,1.76-3.11l15.89-8.41c1.47-.78,3.06-.65,3.56.29s-.29,2.33-1.76,3.11l-15.89,8.41C136.77,475.48,135.18,475.35,134.68,474.41Z" transform="translate(-3.16 -0.29)"/>
    <path class="cls-2" d="M136.3,465.58a1.8,1.8,0,0,1,.53-2.47l8.58-4.54a2,2,0,0,1,1.81,3.43l-8.58,4.54A1.8,1.8,0,0,1,136.3,465.58Z" transform="translate(-3.16 -0.29)"/>
    <circle class="cls-2" cx="137.33" cy="454.2" r="6.41" transform="translate(-207.68 124.82) rotate(-29.27)"/>
    <polygon class="cls-3" points="156.8 488.35 153.99 489.97 151.16 491.75 153.78 493.63 156.52 494.96 156.5 491.69 156.8 488.35"/>
    <path class="cls-5" d="M229.41,505.58" transform="translate(-3.16 -0.29)"/>
  </g>
</svg>
