<svg xmlns="http://www.w3.org/2000/svg" xmlns:xlink="http://www.w3.org/1999/xlink" viewBox="0 0 326.89 327.69"><defs><style>.cls-1{fill:url(#radial-gradient);}.cls-2{fill:url(#linear-gradient);}.cls-3{fill:url(#linear-gradient-2);}.cls-4{fill:url(#linear-gradient-3);}.cls-5{fill:url(#linear-gradient-4);}.cls-6{fill:url(#linear-gradient-5);}.cls-7{fill:url(#linear-gradient-6);}.cls-8{fill:url(#linear-gradient-7);}.cls-9{fill:url(#linear-gradient-8);}.cls-10{fill:url(#linear-gradient-9);}.cls-11{fill:url(#linear-gradient-10);}.cls-12{fill:url(#linear-gradient-11);}.cls-13{fill:url(#linear-gradient-12);}.cls-14{fill:url(#linear-gradient-13);}.cls-15{fill:url(#linear-gradient-14);}.cls-16{fill:url(#linear-gradient-15);}.cls-17{fill:url(#linear-gradient-16);}.cls-18{fill:url(#linear-gradient-17);}.cls-19{fill:url(#linear-gradient-18);}.cls-20{fill:url(#linear-gradient-19);}.cls-21{fill:url(#linear-gradient-20);}.cls-22{fill:url(#linear-gradient-21);}.cls-23{fill:url(#linear-gradient-22);}.cls-24{fill:url(#linear-gradient-23);}.cls-25{fill:url(#linear-gradient-24);}.cls-26{fill:url(#linear-gradient-25);}.cls-27{fill:url(#linear-gradient-26);}.cls-28{fill:url(#linear-gradient-27);}.cls-29{fill:url(#linear-gradient-28);}.cls-30{fill:url(#linear-gradient-29);}.cls-31{fill:url(#linear-gradient-30);}.cls-32{fill:url(#linear-gradient-31);}.cls-33{fill:url(#radial-gradient-2);}</style><radialGradient id="radial-gradient" cx="162.66" cy="165.25" r="145.43" gradientUnits="userSpaceOnUse"><stop offset="0.69" stop-color="#faaa42"/><stop offset="0.72" stop-color="#faae4a" stop-opacity="0.95"/><stop offset="0.76" stop-color="#fbb860" stop-opacity="0.83"/><stop offset="0.83" stop-color="#fcc883" stop-opacity="0.64"/><stop offset="0.9" stop-color="#fddfb3" stop-opacity="0.37"/><stop offset="0.99" stop-color="#fffbf0" stop-opacity="0.03"/><stop offset="1" stop-color="#fffdf5" stop-opacity="0"/><stop offset="1" stop-color="#fff" stop-opacity="0"/></radialGradient><linearGradient id="linear-gradient" x1="234.04" y1="134.25" x2="320.15" y2="134.25" gradientTransform="translate(-7.51 20.39) rotate(-3.7)" gradientUnits="userSpaceOnUse"><stop offset="0.01" stop-color="#f9a842"/><stop offset="0.2" stop-color="#fbc178"/><stop offset="0.38" stop-color="#fcd7a8"/><stop offset="0.57" stop-color="#fde8ce"/><stop offset="0.73" stop-color="#fef5e9"/><stop offset="0.88" stop-color="#fffcf9"/><stop offset="0.99" stop-color="#fff"/></linearGradient><linearGradient id="linear-gradient-2" x1="229.41" y1="107.66" x2="315.52" y2="107.66" gradientTransform="translate(-18.58 82.31) rotate(-14.92)" xlink:href="#linear-gradient"/><linearGradient id="linear-gradient-3" x1="224.64" y1="73.01" x2="310.75" y2="73.01" gradientTransform="translate(-5.88 172.5) rotate(-31.83)" xlink:href="#linear-gradient"/><linearGradient id="linear-gradient-4" x1="241.04" y1="160.62" x2="327.14" y2="160.62" gradientTransform="matrix(1, 0.07, -0.06, 1.03, 8.53, -26.18)" xlink:href="#linear-gradient"/><linearGradient id="linear-gradient-5" x1="242.32" y1="187.3" x2="328.43" y2="187.3" gradientTransform="matrix(0.98, 0.17, -0.14, 1.05, 31.39, -64.11)" xlink:href="#linear-gradient"/><linearGradient id="linear-gradient-6" x1="245.32" y1="217.88" x2="331.42" y2="217.88" gradientTransform="translate(83.71 -99.7) rotate(20.51)" xlink:href="#linear-gradient"/><linearGradient id="linear-gradient-7" x1="248.29" y1="245.41" x2="333.01" y2="245.41" gradientTransform="matrix(0.88, 0.51, -0.5, 0.79, 135.77, -117.18)" xlink:href="#linear-gradient"/><linearGradient id="linear-gradient-8" x1="247.77" y1="269.46" x2="332.48" y2="269.46" gradientTransform="translate(189.79 -148.1) rotate(37.43)" xlink:href="#linear-gradient"/><linearGradient id="linear-gradient-9" x1="251.82" y1="301.09" x2="336.53" y2="301.09" gradientTransform="translate(289.68 -158.93) rotate(51.35)" xlink:href="#linear-gradient"/><linearGradient id="linear-gradient-10" x1="255.55" y1="332.29" x2="340.27" y2="332.29" gradientTransform="translate(410.19 -130.85) rotate(67.59)" xlink:href="#linear-gradient"/><linearGradient id="linear-gradient-11" x1="253.77" y1="352.36" x2="338.49" y2="352.36" gradientTransform="translate(482.98 -77.8) rotate(78.99)" xlink:href="#linear-gradient"/><linearGradient id="linear-gradient-12" x1="227.54" y1="365.14" x2="312.26" y2="365.14" gradientTransform="translate(535.53 15.82) rotate(90.06)" xlink:href="#linear-gradient"/><linearGradient id="linear-gradient-13" x1="141.95" y1="214.6" x2="226.66" y2="214.6" gradientTransform="translate(397.21 154.66) rotate(103.74)" xlink:href="#linear-gradient"/><linearGradient id="linear-gradient-14" x1="140.45" y1="390" x2="225.17" y2="390" gradientTransform="translate(551.73 270.63) rotate(114.3)" xlink:href="#linear-gradient"/><linearGradient id="linear-gradient-15" x1="180.15" y1="264.92" x2="264.86" y2="264.92" gradientTransform="translate(444.55 262.5) rotate(129.65)" xlink:href="#linear-gradient"/><linearGradient id="linear-gradient-16" x1="159.85" y1="255.9" x2="244.57" y2="255.9" gradientTransform="matrix(-0.81, 0.58, -0.58, -0.81, 390.59, 339.69)" xlink:href="#linear-gradient"/><linearGradient id="linear-gradient-17" x1="176.91" y1="278.89" x2="261.62" y2="278.89" gradientTransform="translate(372.5 400.47) rotate(157.09)" xlink:href="#linear-gradient"/><linearGradient id="linear-gradient-18" x1="180.51" y1="281.91" x2="265.22" y2="281.91" gradientTransform="matrix(-1, 0.1, -0.18, -1.1, 323.22, 495.8)" xlink:href="#linear-gradient"/><linearGradient id="linear-gradient-19" x1="179.66" y1="283.79" x2="264.38" y2="283.79" gradientTransform="matrix(-0.97, 0.02, -0.12, -1.12, 293.96, 497.76)" xlink:href="#linear-gradient"/><linearGradient id="linear-gradient-20" x1="185.43" y1="304.19" x2="270.14" y2="304.19" gradientTransform="matrix(-1, -0.04, 0, -1.08, 269.6, 501.95)" xlink:href="#linear-gradient"/><linearGradient id="linear-gradient-21" x1="186.22" y1="325.66" x2="270.93" y2="325.66" gradientTransform="translate(190.31 508.19) rotate(-166.36)" xlink:href="#linear-gradient"/><linearGradient id="linear-gradient-22" x1="184.72" y1="345.52" x2="269.44" y2="345.52" gradientTransform="matrix(-0.93, -0.37, 0.37, -0.93, 136.63, 520.28)" xlink:href="#linear-gradient"/><linearGradient id="linear-gradient-23" x1="176.17" y1="363.46" x2="260.89" y2="363.46" gradientTransform="matrix(-0.81, -0.58, 0.58, -0.81, 30.53, 515.81)" xlink:href="#linear-gradient"/><linearGradient id="linear-gradient-24" x1="163.09" y1="385.6" x2="247.81" y2="385.6" gradientTransform="translate(-104.63 467.22) rotate(-126.41)" xlink:href="#linear-gradient"/><linearGradient id="linear-gradient-25" x1="158.64" y1="386.61" x2="243.36" y2="386.61" gradientTransform="translate(-199.15 367.81) rotate(-107.99)" xlink:href="#linear-gradient"/><linearGradient id="linear-gradient-26" x1="52.12" y1="391.72" x2="138.22" y2="391.72" gradientTransform="matrix(0.63, -0.78, 0.78, 0.63, -123.23, -99.49)" xlink:href="#linear-gradient"/><linearGradient id="linear-gradient-27" x1="63" y1="385.59" x2="149.1" y2="385.59" gradientTransform="translate(-170.03 -29.52) rotate(-61.68)" xlink:href="#linear-gradient"/><linearGradient id="linear-gradient-28" x1="280.52" y1="246.12" x2="366.63" y2="246.12" gradientTransform="translate(-146.45 263.22) rotate(-68.77)" xlink:href="#linear-gradient"/><linearGradient id="linear-gradient-29" x1="109.29" y1="406.55" x2="195.4" y2="406.55" gradientTransform="translate(-248.26 127.75) rotate(-80.64)" xlink:href="#linear-gradient"/><linearGradient id="linear-gradient-30" x1="130.07" y1="386.45" x2="214.78" y2="386.45" gradientTransform="translate(-234.24 210.83) rotate(-89.22)" xlink:href="#linear-gradient"/><linearGradient id="linear-gradient-31" x1="138.2" y1="410.47" x2="222.91" y2="410.47" gradientTransform="translate(-251.5 283.61) rotate(-97.93)" xlink:href="#linear-gradient"/><radialGradient id="radial-gradient-2" cx="159.97" cy="166.98" r="87" gradientTransform="translate(-1.18 -3.9) scale(1.01 1.01)" gradientUnits="userSpaceOnUse"><stop offset="0" stop-color="#fff"/><stop offset="0.4" stop-color="#fffefd"/><stop offset="0.54" stop-color="#fffbf6"/><stop offset="0.64" stop-color="#fef6eb"/><stop offset="0.72" stop-color="#feeeda"/><stop offset="0.79" stop-color="#fde4c4"/><stop offset="0.85" stop-color="#fcd7a8"/><stop offset="0.91" stop-color="#fbc888"/><stop offset="0.96" stop-color="#fab764"/><stop offset="1" stop-color="#f9a842"/></radialGradient></defs><title>NoonDay</title><g id="Layer_2" data-name="Layer 2"><g id="Layer_1-2" data-name="Layer 1"><circle class="cls-1" cx="162.66" cy="165.25" r="145.43"/><path class="cls-2" d="M320.21,127c-2.7-3.2-82.24,1.26-82.75,3-5.3.59-3.28,22.33,6.27,17.86C237.2,153,314.44,126.07,320.21,127Z"/><path class="cls-3" d="M312.31,98.69c-3.27-2.61-80.42,17.23-80.58,19.07-5.08,1.61,1.13,22.54,9.63,16.3C235.93,140.32,306.46,98.86,312.31,98.69Z"/><path class="cls-4" d="M293.13,65c-3.89-1.55-71.93,39.88-71.55,41.68-4.39,3,7.64,21.24,14,12.79C232.17,127,287.59,66.86,293.13,65Z"/><path class="cls-5" d="M326.89,155.05c-2.3-3.64-81.88-9.88-82.61-8.14-5.33-.12-5.95,22.39,4.09,19.12C241.27,170.35,321.28,153.27,326.89,155.05Z"/><path class="cls-6" d="M326.28,182c-1.94-4-79.69-18.25-80.56-16.53-5.24-.65-7.79,22.43,2.36,20.06C240.72,189.22,320.91,179.58,326.28,182Z"/><path class="cls-7" d="M320.12,214.24c-1.15-4-75.52-32.58-76.72-31.17-5.07-1.64-12.15,19-1.6,18.86C233.76,203.9,315.26,211,320.12,214.24Z"/><path class="cls-8" d="M309.26,239.72c-.49-3.85-69.21-44.15-70.61-43.12-4.73-2.47-15,14.73-4.57,16.66C225.84,213.45,305,235.84,309.26,239.72Z"/><path class="cls-9" d="M294,262.76c.07-4.12-61.76-52.29-63.28-51.31-4.3-3-16.88,14.42-6.91,17.3C215.68,228.29,290.36,258.31,294,262.76Z"/><path class="cls-10" d="M269.84,287.85c1.06-4-47.37-65.61-49.08-65-3.46-3.94-19.85,9.94-10.87,15.13C202.1,235.55,267.37,282.65,269.84,287.85Z"/><path class="cls-11" d="M238.76,307.89c2.13-3.52-27.12-76.24-28.94-76.16-2.22-4.75-21.84,4-14.66,11.48C188.35,238.73,237.85,302.21,238.76,307.89Z"/><path class="cls-12" d="M208.18,320.49c2.78-3-11.52-80.1-13.32-80.38-1.24-5.09-22.2-.4-16.64,8.36C172.43,242.73,208.4,314.74,208.18,320.49Z"/><path class="cls-13" d="M176.61,327.69c3.32-2.44,4.07-80.82,2.37-81.44-.24-5.24-21.71-4.66-17.94,5C156.46,244.52,177.93,322.09,176.61,327.69Z"/><path class="cls-14" d="M141.27,325.4c3.8-1.59,23.07-77.56,21.56-78.57,1-5.14-20-9.66-18.62.62C141.37,239.82,143.89,320.27,141.27,325.4Z"/><path class="cls-15" d="M109.6,318.07c4-.87,36.89-72,35.59-73.29,1.94-4.87-17.88-13.16-18.41-2.8C125.37,234,113.11,313.5,109.6,318.07Z"/><path class="cls-16" d="M76.61,301.59c4.11.23,54.64-59.69,53.72-61.25,3.16-4.19-13.76-17.42-17-7.57C114.08,224.65,81.2,298.12,76.61,301.59Z"/><path class="cls-17" d="M46.74,278.39c3.91,1.28,68.16-43.62,67.67-45.37,4.13-3.23-8.82-20.38-14.5-11.7C102.75,213.68,52.07,276.21,46.74,278.39Z"/><path class="cls-18" d="M25.5,251.48c3.54,2.1,76-27.79,75.9-29.61,4.73-2.26-4.18-21.81-11.61-14.56C94.21,200.46,31.17,250.51,25.5,251.48Z"/><path class="cls-19" d="M8.57,219.1c3,3.41,81.85-4,82.16-5.94,5.21-.81.84-24.47-8.2-19.29C88.49,188.1,14.43,220,8.57,219.1Z"/><path class="cls-20" d="M5.62,193.83c2.76,3.65,78.6,2.53,79,.61,5-.39,1.92-24.41-7-20C83.61,169.2,11.19,195.17,5.62,193.83Z"/><path class="cls-21" d="M0,168.57c2.44,3.69,80.87,7.77,81.49,6,5.24,0,4.69-23.28-5-19.61C83.26,150.25,5.6,170.24,0,168.57Z"/><path class="cls-22" d="M2.25,134.21c1.6,3.8,77.61,22.93,78.61,21.42,5.15,1,9.63-20-.66-18.61C87.83,134.15,7.38,136.81,2.25,134.21Z"/><path class="cls-23" d="M9.67,106.31c1.07,4,73.78,33.24,75,31.88,5,1.69,12.25-18.52,1.87-18.53C94.46,117.85,14.4,109.59,9.67,106.31Z"/><path class="cls-24" d="M26,73.74C26.09,77.86,89.44,124,90.94,123c4.4,2.85,16.41-15,6.35-17.51C105.43,105.67,29.82,78.08,26,73.74Z"/><path class="cls-25" d="M53.34,42.81c-1.21,3.93,44.76,67.41,46.5,66.9,3.3,4.07,20.23-9.16,11.45-14.69C119,97.72,55.6,48.1,53.34,42.81Z"/><path class="cls-26" d="M87.14,19c-2.4,3.35,21.18,78.1,23,78.16,1.85,4.91,22.08-2.3,15.5-10.32C132.07,91.79,87.61,24.69,87.14,19Z"/><path class="cls-27" d="M262.81,36c-4.18-.19-54.93,61.21-54,62.8-3.17,4.29,14.16,17.57,17.37,7.53C225.5,114.53,258.18,39.54,262.81,36Z"/><path class="cls-28" d="M234.27,19c-4.14.59-42.54,70.39-41.31,71.77-2.31,4.8,17.19,14.62,18.47,4.15C212.28,103.17,230.39,23.39,234.27,19Z"/><path class="cls-29" d="M209.51,8.17c-4,1.1-33.52,75.11-32.13,76.32-1.7,5,18.87,12.38,18.84,1.84C198.08,94.4,206.2,13,209.51,8.17Z"/><path class="cls-30" d="M178.08,0c-3.73,1.9-17.36,80.4-15.75,81.3-.62,5.29,21,8.24,18.82-2.08C184.63,86.73,175.83,5.4,178.08,0Z"/><path class="cls-31" d="M148.53,1.21c-3.35,2.4-5.08,80.76-3.38,81.4.17,5.24,21.65,4.93,18-4.78C167.64,84.62,147.14,6.79,148.53,1.21Z"/><path class="cls-32" d="M117.8,7.11c-2.94,2.88,7.2,80.6,9,81,1,5.15,22.15,1.6,17.07-7.45C149.31,86.68,117.26,12.85,117.8,7.11Z"/><circle class="cls-33" cx="160.63" cy="165" r="88"/></g></g></svg>