<svg xmlns="http://www.w3.org/2000/svg" xmlns:xlink="http://www.w3.org/1999/xlink" viewBox="0 0 308.07 307.91"><defs><style>.cls-1{fill:url(#radial-gradient);}.cls-2{fill:url(#linear-gradient);}.cls-3{fill:url(#radial-gradient-2);}.cls-4{fill:url(#linear-gradient-2);}.cls-5{fill:url(#linear-gradient-3);}.cls-6{fill:url(#linear-gradient-4);}.cls-7{fill:url(#linear-gradient-5);}.cls-8{fill:url(#linear-gradient-6);}.cls-9{fill:url(#linear-gradient-7);}.cls-10{fill:url(#linear-gradient-8);}.cls-11{fill:url(#linear-gradient-9);}.cls-12{fill:url(#linear-gradient-10);}.cls-13{fill:url(#linear-gradient-11);}.cls-14{fill:url(#linear-gradient-12);}.cls-15{fill:url(#linear-gradient-13);}</style><radialGradient id="radial-gradient" cx="154.83" cy="153.7" r="145.43" gradientUnits="userSpaceOnUse"><stop offset="0.64" stop-color="#0ab4c5"/><stop offset="0.69" stop-color="#3dc4d1" stop-opacity="0.79"/><stop offset="0.74" stop-color="#78d6df" stop-opacity="0.55"/><stop offset="0.8" stop-color="#a9e5eb" stop-opacity="0.35"/><stop offset="0.85" stop-color="#cef0f3" stop-opacity="0.2"/><stop offset="0.9" stop-color="#e9f8fa" stop-opacity="0.09"/><stop offset="0.95" stop-color="#fafdfe" stop-opacity="0.02"/><stop offset="1" stop-color="#fff" stop-opacity="0"/></radialGradient><linearGradient id="linear-gradient" x1="955.82" y1="-317.8" x2="1017.25" y2="-317.8" gradientTransform="matrix(-1.08, -0.14, 0.03, -1.51, 1110.15, -187.65)" gradientUnits="userSpaceOnUse"><stop offset="0" stop-color="#0ab4c5"/><stop offset="1" stop-color="#fff"/></linearGradient><radialGradient id="radial-gradient-2" cx="168.81" cy="144.72" r="87" gradientTransform="translate(-23.55 0.91) scale(1.06 1.06)" gradientUnits="userSpaceOnUse"><stop offset="0" stop-color="#fff"/><stop offset="0.38" stop-color="#fdfeff"/><stop offset="0.51" stop-color="#f6fcfd"/><stop offset="0.61" stop-color="#ebf9fa"/><stop offset="0.69" stop-color="#daf4f6"/><stop offset="0.75" stop-color="#c4edf1"/><stop offset="0.81" stop-color="#a8e4ea"/><stop offset="0.87" stop-color="#88dbe3"/><stop offset="0.91" stop-color="#62cfda"/><stop offset="0.96" stop-color="#39c2d0"/><stop offset="1" stop-color="#0bb4c5"/><stop offset="1" stop-color="#0ab4c5"/></radialGradient><linearGradient id="linear-gradient-2" x1="953.07" y1="-273.17" x2="1014.49" y2="-273.17" gradientTransform="matrix(-0.87, -0.65, 0.77, -1.3, 1116.17, 384.9)" xlink:href="#linear-gradient"/><linearGradient id="linear-gradient-3" x1="940.79" y1="-226.75" x2="1002.21" y2="-226.75" gradientTransform="matrix(-0.5, -0.97, 1.26, -0.84, 861.11, 805.06)" xlink:href="#linear-gradient"/><linearGradient id="linear-gradient-4" x1="715.06" y1="-453.69" x2="776.48" y2="-453.69" gradientTransform="matrix(0.08, -1.09, 1.51, -0.06, 777.47, 817.36)" xlink:href="#linear-gradient"/><linearGradient id="linear-gradient-5" x1="623.98" y1="-416.34" x2="685.4" y2="-416.34" gradientTransform="matrix(0.64, -0.89, 1.32, 0.74, 340.96, 933.48)" xlink:href="#linear-gradient"/><linearGradient id="linear-gradient-6" x1="563.35" y1="-353.55" x2="624.77" y2="-353.55" gradientTransform="matrix(0.99, -0.47, 0.79, 1.29, -52.46, 816.44)" xlink:href="#linear-gradient"/><linearGradient id="linear-gradient-7" x1="548.16" y1="-284.64" x2="609.59" y2="-284.64" gradientTransform="matrix(1.09, 0.1, 0.02, 1.51, -347.13, 514.43)" xlink:href="#linear-gradient"/><linearGradient id="linear-gradient-8" x1="565.01" y1="-225.84" x2="626.43" y2="-225.84" gradientTransform="matrix(0.94, 0.56, -0.63, 1.37, -433.09, 177.13)" xlink:href="#linear-gradient"/><linearGradient id="linear-gradient-9" x1="570.92" y1="-182.12" x2="632.35" y2="-182.12" gradientTransform="matrix(0.58, 0.93, -1.19, 0.94, -329.54, -140.23)" xlink:href="#linear-gradient"/><linearGradient id="linear-gradient-10" x1="676.52" y1="-144.83" x2="737.94" y2="-144.83" gradientTransform="matrix(0.16, 1.08, -1.46, 0.38, -137.11, -436.98)" xlink:href="#linear-gradient"/><linearGradient id="linear-gradient-11" x1="719.21" y1="-114.47" x2="780.63" y2="-114.47" gradientTransform="matrix(-0.4, 1.02, -1.46, -0.4, 256.98, -534.98)" xlink:href="#linear-gradient"/><linearGradient id="linear-gradient-12" x1="943.93" y1="-353.62" x2="1005.35" y2="-353.62" gradientTransform="matrix(-1.05, 0.31, -0.59, -1.39, 856.44, -589.05)" xlink:href="#linear-gradient"/><linearGradient id="linear-gradient-13" x1="875.05" y1="-188.11" x2="936.47" y2="-188.11" gradientTransform="matrix(-0.76, 0.78, -1.19, -0.93, 546.71, -632.38)" xlink:href="#linear-gradient"/></defs><title>BueSunrise</title><g id="Layer_2" data-name="Layer 2"><g id="Layer_1-2" data-name="Layer 1"><circle class="cls-1" cx="154.83" cy="153.7" r="145.43"/><path class="cls-2" d="M.19,169.58c-1.26-7.22,67,12.26,66.17,15.13-4.11-2-10.55-45.57-2.32-48.11C57.94,142-3.9,164.58.19,169.58Z"/><circle class="cls-3" cx="154.58" cy="153.62" r="91.8"/><path class="cls-4" d="M11.08,92.15c2.46-6.9,52.23,43.69,50.12,45.79-2.62-3.72,13.29-44.84,21.7-43C74.94,96.59,10,85.79,11.08,92.15Z"/><path class="cls-5" d="M59.11,32.56C64.33,27.42,87,94.66,84.22,95.62c-.73-4.49,31.52-34.55,38.29-29.22C114.63,64.41,60.9,26.35,59.11,32.56Z"/><path class="cls-6" d="M133.37.23c7.14-1.67-8.38,67.58-11.29,66.94C123.8,62.95,167,54,170,62.07,164.28,56.28,138.12-4.15,133.37.23Z"/><path class="cls-7" d="M213,8.37c7,2.32-42.61,53.12-44.74,51,3.67-2.69,45.11,12.36,43.44,20.81C209.89,72.31,219.34,7.15,213,8.37Z"/><path class="cls-8" d="M276.22,55.4c4.94,5.41-63.09,25.63-63.95,22.78,4.52-.56,33.37,32.77,27.79,39.34C242.35,109.71,282.36,57.42,276.22,55.4Z"/><path class="cls-9" d="M307.86,128.61c1.5,7.17-67.36-10-66.65-12.87,4.17,1.81,12.09,45.18,3.95,48C251.09,158.18,312.12,133.46,307.86,128.61Z"/><path class="cls-10" d="M303,201.67c-1.74,7.12-56.47-38.05-54.59-40.35,3,3.43-8.57,46-17.13,45C239,203.88,304.75,207.89,303,201.67Z"/><path class="cls-11" d="M266,263.53c-4.79,5.55-32.92-59.61-30.2-60.79,1.09,4.42-28.59,37-35.77,32.26C208,236.33,264.72,269.87,266,263.53Z"/><path class="cls-12" d="M208.68,300c-6.61,3.16-6.25-67.81-3.28-67.8-.77,4.48-41,22.44-45.7,15.2C166.51,251.86,205,305.31,208.68,300Z"/><path class="cls-13" d="M129.79,307.83c-7.31-.54,28.25-62,30.83-60.48-2.9,3.51-46.76-.9-47.22-9.5C117.1,245.08,123.94,310.58,129.79,307.83Z"/><path class="cls-14" d="M20.66,234.21c-4.08-6.09,66.19-16,66.62-13-4.55-.11-28.14-37.36-21.65-43C62.22,185.52,14.89,231.3,20.66,234.21Z"/><path class="cls-15" d="M71.48,285.38C65,282,121.56,239.24,123.36,241.61c-4,2.11-42.75-19-39.83-27.08C84.14,222.63,65,285.65,71.48,285.38Z"/></g></g></svg>