<svg xmlns="http://www.w3.org/2000/svg" xmlns:xlink="http://www.w3.org/1999/xlink" viewBox="0 0 350.56 352.86"><defs><style>.cls-1{fill:url(#radial-gradient);}.cls-2{fill:url(#linear-gradient);}.cls-3{fill:url(#linear-gradient-2);}.cls-4{fill:url(#linear-gradient-3);}.cls-5{fill:url(#linear-gradient-4);}.cls-6{fill:url(#linear-gradient-5);}.cls-7{fill:url(#linear-gradient-6);}.cls-8{fill:url(#linear-gradient-7);}.cls-9{fill:url(#linear-gradient-8);}.cls-10{fill:url(#linear-gradient-9);}.cls-11{fill:url(#linear-gradient-10);}.cls-12{fill:url(#linear-gradient-11);}.cls-13{fill:url(#linear-gradient-12);}.cls-14{fill:url(#linear-gradient-13);}.cls-15{fill:url(#linear-gradient-14);}.cls-16{fill:url(#linear-gradient-15);}.cls-17{fill:url(#linear-gradient-16);}.cls-18{fill:url(#linear-gradient-17);}.cls-19{fill:url(#linear-gradient-18);}.cls-20{fill:url(#linear-gradient-19);}.cls-21{fill:url(#linear-gradient-20);}.cls-22{fill:url(#linear-gradient-21);}.cls-23{fill:url(#linear-gradient-22);}.cls-24{fill:url(#linear-gradient-23);}.cls-25{fill:url(#linear-gradient-24);}.cls-26{fill:url(#linear-gradient-25);}.cls-27{fill:url(#linear-gradient-26);}.cls-28{fill:url(#linear-gradient-27);}.cls-29{fill:url(#linear-gradient-28);}.cls-30{fill:url(#linear-gradient-29);}.cls-31{fill:url(#linear-gradient-30);}.cls-32{fill:url(#linear-gradient-31);}.cls-33{fill:url(#radial-gradient-2);}</style><radialGradient id="radial-gradient" cx="175.66" cy="178.95" r="145.43" gradientUnits="userSpaceOnUse"><stop offset="0.74" stop-color="#faaa42"/><stop offset="0.79" stop-color="#fbbf70" stop-opacity="0.75"/><stop offset="0.85" stop-color="#fdd59f" stop-opacity="0.48"/><stop offset="0.9" stop-color="#fee6c4" stop-opacity="0.27"/><stop offset="0.94" stop-color="#fef3df" stop-opacity="0.13"/><stop offset="0.97" stop-color="#fffaef" stop-opacity="0.03"/><stop offset="1" stop-color="#fffdf5" stop-opacity="0"/><stop offset="1" stop-color="#fff"/></radialGradient><linearGradient id="linear-gradient" x1="252.33" y1="144.68" x2="343.55" y2="144.68" gradientTransform="translate(-8.23 19.45) rotate(-3.7)" gradientUnits="userSpaceOnUse"><stop offset="0.01" stop-color="#f9a842"/><stop offset="0.19" stop-color="#f9aa45"/><stop offset="0.33" stop-color="#f9ae4f"/><stop offset="0.46" stop-color="#fab661"/><stop offset="0.59" stop-color="#fbc179"/><stop offset="0.71" stop-color="#fcd098"/><stop offset="0.83" stop-color="#fde1be"/><stop offset="0.95" stop-color="#fef6eb"/><stop offset="0.99" stop-color="#fff"/></linearGradient><linearGradient id="linear-gradient-2" x1="247.07" y1="123.82" x2="338.29" y2="123.82" gradientTransform="translate(-21.84 78.81) rotate(-14.92)" xlink:href="#linear-gradient"/><linearGradient id="linear-gradient-3" x1="239.28" y1="97.63" x2="330.5" y2="97.63" gradientTransform="translate(-13.78 166.2) rotate(-31.83)" xlink:href="#linear-gradient"/><linearGradient id="linear-gradient-4" x1="259.39" y1="167.67" x2="350.61" y2="167.67" gradientTransform="matrix(1, 0.07, -0.06, 1.03, 9.12, -25.45)" xlink:href="#linear-gradient"/><linearGradient id="linear-gradient-5" x1="260.83" y1="192.25" x2="352.05" y2="192.25" gradientTransform="matrix(0.98, 0.17, -0.14, 1.05, 32.59, -62.11)" xlink:href="#linear-gradient"/><linearGradient id="linear-gradient-6" x1="261.76" y1="217.47" x2="352.98" y2="217.47" gradientTransform="translate(86.51 -93.77) rotate(20.51)" xlink:href="#linear-gradient"/><linearGradient id="linear-gradient-7" x1="263.03" y1="243.04" x2="354.25" y2="243.04" gradientTransform="matrix(0.88, 0.51, -0.5, 0.79, 139.35, -107.29)" xlink:href="#linear-gradient"/><linearGradient id="linear-gradient-8" x1="261.86" y1="265.35" x2="353.08" y2="265.35" gradientTransform="translate(193.21 -136.78) rotate(37.43)" xlink:href="#linear-gradient"/><linearGradient id="linear-gradient-9" x1="261.53" y1="291.52" x2="352.75" y2="291.52" gradientTransform="translate(292.4 -143.2) rotate(51.35)" xlink:href="#linear-gradient"/><linearGradient id="linear-gradient-10" x1="258.72" y1="317.6" x2="349.94" y2="317.6" gradientTransform="translate(410.79 -110.36) rotate(67.59)" xlink:href="#linear-gradient"/><linearGradient id="linear-gradient-11" x1="251.84" y1="335.8" x2="343.06" y2="335.8" gradientTransform="translate(481.34 -54.43) rotate(78.99)" xlink:href="#linear-gradient"/><linearGradient id="linear-gradient-12" x1="220.48" y1="347.76" x2="311.7" y2="347.76" gradientTransform="translate(531.21 41.53) rotate(90.06)" xlink:href="#linear-gradient"/><linearGradient id="linear-gradient-13" x1="128.18" y1="197.3" x2="219.4" y2="197.3" gradientTransform="translate(389.03 182.46) rotate(103.74)" xlink:href="#linear-gradient"/><linearGradient id="linear-gradient-14" x1="121.82" y1="374.21" x2="213.04" y2="374.21" gradientTransform="translate(540.31 299.4) rotate(114.3)" xlink:href="#linear-gradient"/><linearGradient id="linear-gradient-15" x1="154.92" y1="252.09" x2="246.14" y2="252.09" gradientTransform="translate(428.21 291.57) rotate(129.65)" xlink:href="#linear-gradient"/><linearGradient id="linear-gradient-16" x1="129.39" y1="247.62" x2="220.62" y2="247.62" gradientTransform="matrix(-0.81, 0.58, -0.58, -0.81, 369.57, 367.8)" xlink:href="#linear-gradient"/><linearGradient id="linear-gradient-17" x1="143.13" y1="275.55" x2="234.36" y2="275.55" gradientTransform="translate(347.85 426.86) rotate(157.09)" xlink:href="#linear-gradient"/><linearGradient id="linear-gradient-18" x1="144.61" y1="286.21" x2="235.84" y2="286.21" gradientTransform="matrix(-1, 0.1, -0.18, -1.1, 295.04, 519.87)" xlink:href="#linear-gradient"/><linearGradient id="linear-gradient-19" x1="142.69" y1="290.91" x2="233.91" y2="290.91" gradientTransform="matrix(-0.97, 0.02, -0.12, -1.12, 265.72, 520.78)" xlink:href="#linear-gradient"/><linearGradient id="linear-gradient-20" x1="148.93" y1="313.9" x2="240.15" y2="313.9" gradientTransform="matrix(-1, -0.04, 0, -1.08, 239.57, 523.57)" xlink:href="#linear-gradient"/><linearGradient id="linear-gradient-21" x1="150.06" y1="340.81" x2="241.28" y2="340.81" gradientTransform="translate(158.22 525.75) rotate(-166.36)" xlink:href="#linear-gradient"/><linearGradient id="linear-gradient-22" x1="149.49" y1="364.82" x2="240.71" y2="364.82" gradientTransform="matrix(-0.93, -0.37, 0.37, -0.93, 103.76, 535.45)" xlink:href="#linear-gradient"/><linearGradient id="linear-gradient-23" x1="143.77" y1="388.64" x2="234.99" y2="388.64" gradientTransform="matrix(-0.81, -0.58, 0.58, -0.81, -2.9, 526.48)" xlink:href="#linear-gradient"/><linearGradient id="linear-gradient-24" x1="136.21" y1="416.56" x2="227.43" y2="416.56" gradientTransform="translate(-137.14 472.19) rotate(-126.41)" xlink:href="#linear-gradient"/><linearGradient id="linear-gradient-25" x1="139.22" y1="421.29" x2="230.44" y2="421.29" gradientTransform="translate(-228.96 367.55) rotate(-107.99)" xlink:href="#linear-gradient"/><linearGradient id="linear-gradient-26" x1="60.63" y1="424.48" x2="151.85" y2="424.48" gradientTransform="matrix(0.63, -0.78, 0.78, 0.63, -137.08, -107.18)" xlink:href="#linear-gradient"/><linearGradient id="linear-gradient-27" x1="67.04" y1="421.34" x2="158.26" y2="421.34" gradientTransform="translate(-187.33 -37.1) rotate(-61.68)" xlink:href="#linear-gradient"/><linearGradient id="linear-gradient-28" x1="281.4" y1="283.06" x2="372.62" y2="283.06" gradientTransform="translate(-165.99 256.06) rotate(-68.77)" xlink:href="#linear-gradient"/><linearGradient id="linear-gradient-29" x1="104.58" y1="445.33" x2="195.8" y2="445.33" gradientTransform="translate(-271.37 121.9) rotate(-80.64)" xlink:href="#linear-gradient"/><linearGradient id="linear-gradient-30" x1="119.52" y1="423.91" x2="210.74" y2="423.91" gradientTransform="translate(-259.73 206.38) rotate(-89.22)" xlink:href="#linear-gradient"/><linearGradient id="linear-gradient-31" x1="123.43" y1="446.89" x2="214.65" y2="446.89" gradientTransform="translate(-279.17 280.93) rotate(-97.93)" xlink:href="#linear-gradient"/><radialGradient id="radial-gradient-2" cx="174.63" cy="177.68" r="87" gradientTransform="translate(-1.01 -4.03) scale(1.01 1.01)" gradientUnits="userSpaceOnUse"><stop offset="0" stop-color="#fff"/><stop offset="0.4" stop-color="#fffefd"/><stop offset="0.54" stop-color="#fffbf6"/><stop offset="0.64" stop-color="#fef6eb"/><stop offset="0.72" stop-color="#feeeda"/><stop offset="0.79" stop-color="#fde4c4"/><stop offset="0.85" stop-color="#fcd7a8"/><stop offset="0.91" stop-color="#fbc888"/><stop offset="0.96" stop-color="#fab764"/><stop offset="1" stop-color="#f9a842"/></radialGradient></defs><title>GoldNoonDay</title><g id="Layer_2" data-name="Layer 2"><g id="Layer_1-2" data-name="Layer 1"><circle class="cls-1" cx="175.66" cy="178.95" r="145.43"/><path class="cls-2" d="M343.48,134.6c-2.86-3.39-87.13,1.34-87.67,3.21-5.61.62-3.47,23.66,6.65,18.92C255.54,162.12,337.37,133.56,343.48,134.6Z"/><path class="cls-3" d="M335.11,104.56c-3.46-2.77-85.2,18.25-85.37,20.2-5.38,1.7,1.19,23.88,10.2,17.27C254.2,148.66,328.91,104.73,335.11,104.56Z"/><path class="cls-4" d="M314.8,68.86c-4.12-1.64-76.21,42.25-75.8,44.16-4.65,3.19,8.09,22.5,14.78,13.55C250.22,134.59,308.92,70.84,314.8,68.86Z"/><path class="cls-5" d="M350.56,164.27c-2.43-3.85-86.75-10.47-87.51-8.62-5.65-.13-6.3,23.72,4.33,20.26C259.85,180.47,344.61,162.38,350.56,164.27Z"/><path class="cls-6" d="M349.91,192.77c-2.06-4.2-84.43-19.34-85.34-17.52-5.55-.69-8.25,23.76,2.5,21.25C259.27,200.46,344.22,190.25,349.91,192.77Z"/><path class="cls-7" d="M343.39,227c-1.22-4.26-80-34.51-81.28-33-5.37-1.73-12.87,20.15-1.7,20C251.9,216,338.24,223.53,343.39,227Z"/><path class="cls-8" d="M333,258.13c-.53-4.14-74.52-47.54-76-46.43-5.1-2.66-16.14,15.86-4.93,17.94C243.19,229.84,328.41,253.95,333,258.13Z"/><path class="cls-9" d="M316.58,282.94c.08-4.43-66.5-56.31-68.14-55.25-4.63-3.22-18.18,15.53-7.44,18.62C232.24,245.82,312.66,278.14,316.58,282.94Z"/><path class="cls-10" d="M290.56,310c1.14-4.28-51-70.65-52.85-70-3.72-4.24-21.38,10.7-11.7,16.29C217.62,253.63,287.9,304.35,290.56,310Z"/><path class="cls-11" d="M257.09,331.53c2.29-3.79-29.21-82.09-31.16-82-2.39-5.11-23.52,4.3-15.79,12.37C202.82,257.06,256.11,325.41,257.09,331.53Z"/><path class="cls-12" d="M224.16,345.1c3-3.27-12.41-86.25-14.34-86.55-1.33-5.48-23.91-.44-17.92,9C185.67,261.37,224.41,338.91,224.16,345.1Z"/><path class="cls-13" d="M190.17,352.86c3.57-2.63,4.39-87,2.55-87.69-.25-5.64-23.38-5-19.32,5.39C168.47,263.3,191.6,346.83,190.17,352.86Z"/><path class="cls-14" d="M152.12,350.39c4.09-1.71,24.84-83.52,23.22-84.6,1.09-5.54-21.53-10.4-20,.67C152.22,258.24,154.94,344.87,152.12,350.39Z"/><path class="cls-15" d="M118,342.49c4.33-.93,39.72-77.55,38.32-78.92,2.08-5.25-19.26-14.17-19.83-3C135,251.92,121.8,337.58,118,342.49Z"/><path class="cls-16" d="M82.49,324.75c4.43.25,58.83-64.27,57.84-66,3.4-4.51-14.82-18.76-18.32-8.15C122.84,241.9,87.44,321,82.49,324.75Z"/><path class="cls-17" d="M50.33,299.76c4.21,1.38,73.39-47,72.86-48.86,4.44-3.48-9.49-21.94-15.61-12.59C110.64,230.09,56.07,297.42,50.33,299.76Z"/><path class="cls-18" d="M27.46,270.79c3.81,2.26,81.83-29.93,81.73-31.88,5.09-2.43-4.5-23.48-12.5-15.68C101.45,215.86,33.57,269.75,27.46,270.79Z"/><path class="cls-19" d="M9.23,235.92c3.27,3.67,88.13-4.3,88.47-6.4,5.62-.87.9-26.35-8.83-20.78C95.29,202.55,15.53,236.87,9.23,235.92Z"/><path class="cls-20" d="M6,208.71c3,3.93,84.64,2.73,85.06.65,5.42-.42,2.06-26.28-7.51-21.48C90,182.19,12,210.16,6,208.71Z"/><path class="cls-21" d="M0,181.51c2.63,4,87.08,8.37,87.75,6.41,5.64,0,5.05-25.07-5.37-21.11C89.65,161.79,6,183.31,0,181.51Z"/><path class="cls-22" d="M2.42,144.51C4.14,148.6,86,169.2,87.07,167.57c5.54,1.08,10.36-21.55-.71-20C94.57,144.45,8,147.32,2.42,144.51Z"/><path class="cls-23" d="M10.41,114.47c1.15,4.28,79.44,35.79,80.73,34.33,5.34,1.82,13.19-19.94,2-20C101.72,126.9,15.51,118,10.41,114.47Z"/><path class="cls-24" d="M28,79.41c.07,4.43,68.28,54.13,69.89,53,4.74,3.07,17.67-16.11,6.84-18.86C113.53,113.79,32.11,84.08,28,79.41Z"/><path class="cls-25" d="M57.43,46.1c-1.31,4.24,48.2,72.59,50.08,72,3.56,4.38,21.78-9.86,12.33-15.82C128.11,105.22,59.87,51.8,57.43,46.1Z"/><path class="cls-26" d="M93.83,20.41c-2.58,3.61,22.8,84.1,24.76,84.16,2,5.28,23.78-2.47,16.7-11.11C142.21,98.83,94.34,26.59,93.83,20.41Z"/><path class="cls-27" d="M282.68,38.1c-4.43-.2-58.2,64.85-57.19,66.53-3.35,4.54,15,18.62,18.4,8C243.15,121.34,277.77,41.88,282.68,38.1Z"/><path class="cls-28" d="M252.44,20.15c-4.39.63-45.07,74.57-43.77,76-2.45,5.09,18.21,15.49,19.57,4.4C229.14,109.3,248.32,24.78,252.44,20.15Z"/><path class="cls-29" d="M226.21,8.66c-4.28,1.16-35.51,79.57-34,80.85-1.8,5.35,20,13.12,20,1.95C214.1,100,222.7,13.77,226.21,8.66Z"/><path class="cls-30" d="M192.91,0C189,2,174.52,85.17,176.22,86.13c-.66,5.61,22.26,8.73,19.94-2.2C199.84,91.89,190.52,5.72,192.91,0Z"/><path class="cls-31" d="M159.94,1.3c-3.6,2.58-5.47,87-3.64,87.65.18,5.64,23.31,5.31,19.38-5.15C180.52,91.12,158.43,7.31,159.94,1.3Z"/><path class="cls-32" d="M126.85,7.66c-3.17,3.1,7.75,86.79,9.67,87.19,1,5.55,23.85,1.72,18.38-8C160.78,93.34,126.27,13.83,126.85,7.66Z"/><circle class="cls-33" cx="175.63" cy="175.7" r="88"/></g></g></svg>