<svg xmlns="http://www.w3.org/2000/svg" xmlns:xlink="http://www.w3.org/1999/xlink" viewBox="0 0 292.09 297.71"><defs><style>.cls-1{fill:url(#radial-gradient);}.cls-2{fill:url(#radial-gradient-2);}.cls-3{opacity:0.4;}.cls-4{fill:#e5672f;}.cls-5{opacity:0.3;}</style><radialGradient id="radial-gradient" cx="146.66" cy="145.43" r="145.43" gradientUnits="userSpaceOnUse"><stop offset="0.62" stop-color="#f05a28"/><stop offset="0.7" stop-color="#f3784d" stop-opacity="0.82"/><stop offset="0.87" stop-color="#fac2ab" stop-opacity="0.36"/><stop offset="1" stop-color="#fffdf5" stop-opacity="0"/><stop offset="1" stop-color="#fff" stop-opacity="0"/></radialGradient><radialGradient id="radial-gradient-2" cx="144.19" cy="148.89" r="87" gradientUnits="userSpaceOnUse"><stop offset="0" stop-color="#fff"/><stop offset="0.39" stop-color="#fffefd"/><stop offset="0.53" stop-color="#fef9f6"/><stop offset="0.63" stop-color="#fcf0eb"/><stop offset="0.71" stop-color="#fae4da"/><stop offset="0.78" stop-color="#f8d4c4"/><stop offset="0.84" stop-color="#f4c0a8"/><stop offset="0.89" stop-color="#f0a888"/><stop offset="0.94" stop-color="#eb8c62"/><stop offset="0.99" stop-color="#e66e39"/><stop offset="1" stop-color="#e5672f"/></radialGradient></defs><title>OrangeSunset</title><g id="Layer_2" data-name="Layer 2"><g id="Layer_1-2" data-name="Layer 1"><circle class="cls-1" cx="146.66" cy="145.43" r="145.43"/><circle class="cls-2" cx="144.19" cy="148.89" r="87"/><g class="cls-3"><path class="cls-4" d="M126.94,37.07c-.86,11.87,5.47,22,14.14,22.63s16.41-8.48,17.27-20.34-14.64-2.06-14.14-22.63c.09-3.86,3.88-14.84,3.88-14.84S127.64,27.43,126.94,37.07Z"/><path class="cls-4" d="M125.26,32c5.39,10.61,3.48,22.4-4.27,26.34s-18.41-1.46-23.81-12.06,12.7-7.57,4.27-26.34c-1.58-3.52-9.32-12.18-9.32-12.18S120.87,23.34,125.26,32Z"/><path class="cls-4" d="M205.07,52.46c-4.17,11.14-14.15,17.71-22.3,14.66s-11.37-14.55-7.2-25.7,14.17,4.24,22.3-14.66c1.53-3.54,2.67-15.1,2.67-15.1S208.46,43.41,205.07,52.46Z"/><path class="cls-4" d="M203.91,53.62c-7.91,8.89-9.06,20.78-2.56,26.56s18.18,3.27,26.09-5.62S217.08,64,230,48c2.42-3,12.11-9.41,12.11-9.41S210.34,46.39,203.91,53.62Z"/><path class="cls-4" d="M253.72,112.63c-10.13,6.25-22,5.31-26.61-2.09S227,92.07,237.18,85.82s8.59,12,26.61,2.09c3.38-1.86,11.37-10.29,11.37-10.29S261.94,107.55,253.72,112.63Z"/><path class="cls-4" d="M252.48,113.12c-11.77,1.75-20.28,10.14-19,18.74s11.85,14.16,23.62,12.42-1.18-14.74,19-18.74c3.78-.75,15.33.55,15.33.55S262,111.71,252.48,113.12Z"/><path class="cls-4" d="M251.74,191.26C240.06,189,232,180.2,233.63,171.66s12.5-13.6,24.17-11.31S255.94,175,275.91,180c3.75.93,15.34.17,15.34.17S261.23,193.12,251.74,191.26Z"/><path class="cls-4" d="M254.12,191.44c-9.82-6.71-21.77-6.33-26.67.85s-.92,18.45,8.9,25.16,9.14-11.62,26.67-.85c3.29,2,10.88,10.81,10.88,10.81S262.1,196.9,254.12,191.44Z"/><path class="cls-4" d="M201,248.48c-7.29-9.41-7.62-21.35-.74-26.68s18.36-2,25.64,7.39-11.06,9.82.74,26.68c2.21,3.16,11.44,10.21,11.44,10.21S206.89,256.12,201,248.48Z"/><path class="cls-4" d="M202.18,250.38c-3-11.52-12.23-19.09-20.65-16.91s-12.83,13.29-9.85,24.8,14.53-2.74,20.65,16.91c1.15,3.68,1.08,15.3,1.08,15.3S204.6,259.74,202.18,250.38Z"/><path class="cls-4" d="M128,262.34c-.75-11.87,5.67-21.95,14.35-22.5s16.33,8.63,17.09,20.5-14.66,1.92-14.35,22.5c.06,3.86,3.74,14.87,3.74,14.87S128.65,272,128,262.34Z"/><path class="cls-4" d="M128.12,263.3c4-11.21.59-22.66-7.61-25.58s-18.07,3.8-22.07,15S112,258.62,106,278.31c-1.12,3.69-7.69,13.27-7.69,13.27S124.87,272.41,128.12,263.3Z"/><path class="cls-4" d="M59.59,227.73C66.36,217.94,77.65,214,84.8,219s7.47,16.89.7,26.68-12.7-7.58-25.21,8.76c-2.35,3.06-6.28,14-6.28,14S54.09,235.68,59.59,227.73Z"/><path class="cls-4" d="M61.38,226c10.08-6.32,14.5-17.42,9.88-24.79s-16.54-8.22-26.62-1.9,7,13-9.88,24.79c-3.17,2.21-14.26,5.65-14.26,5.65S53.19,231.1,61.38,226Z"/><path class="cls-4" d="M28.71,151.66c11-4.43,22.62-1.48,25.86,6.59s-3.08,18.21-14.12,22.64S34,167.57,14.59,174.31c-3.65,1.26-13,8.21-13,8.21S19.74,155.27,28.71,151.66Z"/><path class="cls-4" d="M34.84,150.07c11.85,1.05,22.08-5.11,22.86-13.78s-8.21-16.54-20.06-17.6-2.29,14.61-22.86,13.78C10.92,132.31,0,128.36,0,128.36S25.21,149.21,34.84,150.07Z"/><path class="cls-4" d="M54.33,72.94C65.42,77.25,71.85,87.32,68.7,95.43S54,106.61,42.91,102.3s4.42-14.11-14.37-22.49C25,78.24,13.47,76.95,13.47,76.95S45.32,69.44,54.33,72.94Z"/><path class="cls-4" d="M59.77,76.29c8.49,8.34,20.31,10.07,26.41,3.86s4.16-18-4.33-26.33S70.8,63.65,55.44,50c-2.88-2.57-8.8-12.56-8.8-12.56S52.87,69.51,59.77,76.29Z"/></g><g class="cls-5"><path class="cls-4" d="M164.08,44.62c0,10-7.77,18.18-17.36,18.18s-17.36-8.14-17.36-18.18,16.26-.84,17.36-18.18a58.38,58.38,0,0,0,0-7.65S164.08,37.09,164.08,44.62Z"/><path class="cls-4" d="M92.87,55C97.43,64,108,67.72,116.59,63.37s11.78-15.12,7.23-24.07S108.95,45.92,100.11,31a58.38,58.38,0,0,1-3.47-6.82S89.46,48.33,92.87,55Z"/><path class="cls-4" d="M165.62,45.07c-3.52,9.4.91,19.75,9.89,23.11s19.11-1.54,22.63-10.94-14.94-6.48-9.89-23.11A58.38,58.38,0,0,1,190.93,27S168.25,38,165.62,45.07Z"/><path class="cls-4" d="M226.35,83.51c-6.68,7.5-17.89,8.41-25.05,2s-7.55-17.62-.88-25.12,12.7,10.19,25.05-2a58.38,58.38,0,0,0,5.09-5.72S231.36,77.89,226.35,83.51Z"/><path class="cls-4" d="M226.39,83.23C217.85,88.5,215,99.39,220,107.55s16,10.5,24.59,5.23S236.8,98.5,251,88.46a58.38,58.38,0,0,1,6.51-4S232.8,79.28,226.39,83.23Z"/><path class="cls-4" d="M251.57,151.74c-9.8,2.19-19.44-3.62-21.53-13s4.16-18.72,14-20.91,4.36,15.69,21.53,13a58.38,58.38,0,0,0,7.47-1.67S258.91,150.09,251.57,151.74Z"/><path class="cls-4" d="M250.85,152c-9.85-1.93-19.33,4.13-21.18,13.54s4.64,18.6,14.5,20.53,4-15.8,21.18-13.54a58.38,58.38,0,0,1,7.51,1.47S258.24,153.45,250.85,152Z"/><path class="cls-4" d="M226.34,220c-8.68-5-11.81-15.86-7-24.14S235.11,185,243.79,190s-7.45,14.48,7,24.14a58.38,58.38,0,0,0,6.62,3.85S232.84,223.8,226.34,220Z"/><path class="cls-4" d="M225.35,219.12c-6.15-7.94-17.28-9.61-24.86-3.74s-8.74,17.06-2.59,25,13.37-9.3,24.86,3.74a58.38,58.38,0,0,1,4.69,6.05S230,225.07,225.35,219.12Z"/><path class="cls-4" d="M161.69,254.42c-3.22-9.51,1.54-19.71,10.62-22.78s19.05,2.15,22.27,11.66-15.14,6-10.62,22.78a58.38,58.38,0,0,0,2.45,7.25S164.1,261.56,161.69,254.42Z"/><path class="cls-4" d="M164.3,252.37c-.64-10-8.91-17.65-18.48-17s-16.81,9.22-16.17,19.24,16.28-.2,18.48,17a58.38,58.38,0,0,1,.49,7.64S164.78,259.89,164.3,252.37Z"/><path class="cls-4" d="M91.94,244.62c2.67-9.68,12.33-15.45,21.57-12.9s14.57,12.47,11.89,22.14-15.9-3.52-21.57,12.9a58.38,58.38,0,0,0-2,7.38S89.94,251.88,91.94,244.62Z"/><path class="cls-4" d="M93.63,243.09c5.71-8.26,3.95-19.37-3.94-24.82s-18.91-3.18-24.62,5.08S78,233.28,69,248.17a58.38,58.38,0,0,1-4.35,6.3S89.35,249.29,93.63,243.09Z"/><path class="cls-4" d="M43.91,189.64c8.09-5.94,19.25-4.48,24.92,3.25s3.7,18.81-4.39,24.75S54.15,205,39.52,214.39a58.38,58.38,0,0,0-6.17,4.53S37.84,194.1,43.91,189.64Z"/><path class="cls-4" d="M48.14,184.26c9.32-3.74,14-14,10.4-22.88S44.51,148.3,35.2,152s5.28,15.4-10.4,22.88a58.38,58.38,0,0,1-7.1,2.85S41.15,187.06,48.14,184.26Z"/><path class="cls-4" d="M42.18,111.49c10,.16,18.05,8.06,17.9,17.65s-8.42,17.23-18.45,17.07-.57-16.27-17.9-17.65a58.38,58.38,0,0,0-7.65-.12S34.65,111.37,42.18,111.49Z"/><path class="cls-4" d="M45.56,110.74c9.36,3.64,19.76-.66,23.23-9.59S67.5,82,58.14,78.38,51.47,93.23,34.91,88a58.38,58.38,0,0,1-7.13-2.77S38.54,108,45.56,110.74Z"/><path class="cls-4" d="M89.25,51.95c7.65,6.5,8.83,17.69,2.62,25s-17.44,8-25.09,1.47,9.89-12.94-2.62-25a58.38,58.38,0,0,0-5.83-5S83.51,47.08,89.25,51.95Z"/></g><path class="cls-4" d="M160.71,53c0,6-6,10.71-13.19,10.58s-12.89-5.09-12.77-11.06c0-2.58,1.76-2.66,5.52-1.73C152.49,53.77,148,38,148,38s2.17,1.53,4.71,3.75C156.36,44.88,160.71,46.28,160.71,53Z"/><path class="cls-4" d="M101.9,62.54c2.71,5.33,10.22,6.82,16.55,3.45s9.18-10.38,6.37-15.65c-1.21-2.27-2.77-1.57-5.71,1-9.53,8.23-12.71-7.89-12.71-7.89s-1.24,2.35-2.5,5.47C102.1,53.36,98.87,56.58,101.9,62.54Z"/><path class="cls-4" d="M167.62,55.39c-2.09,5.6,1.89,12.14,8.65,14.53s13.85-.25,15.84-5.89c.86-2.43-.72-3.1-4.57-3.56-12.51-1.47-2.77-14.7-2.77-14.7s-2.57.67-5.73,1.86C174.53,49.33,170,49.12,167.62,55.39Z"/><path class="cls-4" d="M219,87.56c-4,4.46-11.62,4-16.89-.87s-6.24-12.37-2.18-16.76c1.75-1.89,3.08-.82,5.27,2.38,7.13,10.38,14.29-4.41,14.29-4.41s.6,2.58,1,5.93C221.15,78.63,223.46,82.56,219,87.56Z"/><path class="cls-4" d="M221.93,92.9c-5.09,3.14-6,10.75-2.07,16.78S231,118,236,114.74c2.17-1.4,1.34-2.89-1.43-5.61-9-8.82,6.82-13.31,6.82-13.31s-2.44-1-5.66-2C231.1,92.35,227.62,89.39,221.93,92.9Z"/><path class="cls-4" d="M242.67,150.38c-5.83,1.3-11.77-3.54-13.2-10.57s2.15-13.69,8-14.88c2.53-.51,3,1.14,2.89,5-.27,12.59,14.18,4.77,14.18,4.77s-1,2.45-2.63,5.42C249.62,144.38,249.2,148.93,242.67,150.38Z"/><path class="cls-4" d="M242,155.7c-5.87-1.15-11.67,3.85-12.92,10.91s2.51,13.63,8.4,14.66c2.54.45,2.95-1.21,2.76-5.09-.6-12.58,14-5.14,14-5.14s-1.08-2.42-2.77-5.35C249.14,161.52,248.6,157,242,155.7Z"/><path class="cls-4" d="M221.68,212.6c-5.17-3-6.23-10.59-2.51-16.72s10.88-8.58,16-5.48c2.2,1.34,1.41,2.85-1.28,5.64-8.75,9.06,7.17,13.13,7.17,13.13s-2.41,1.11-5.61,2.19C230.86,212.92,227.47,216,221.68,212.6Z"/><path class="cls-4" d="M217.23,215.7c-3.66-4.73-11.32-4.78-16.91-.28S193.25,227.33,197,232c1.62,2,3,1,5.42-2,7.82-9.87,14,5.37,14,5.37s.78-2.54,1.43-5.85C218.76,224.76,221.33,221,217.23,215.7Z"/><path class="cls-4" d="M164,245.37c-1.91-5.66,2.27-12.08,9.11-14.25s13.84.69,15.64,6.39c.78,2.46-.81,3.08-4.68,3.41-12.55,1.06-3.24,14.6-3.24,14.6s-2.54-.75-5.66-2C170.74,251.64,166.17,251.7,164,245.37Z"/><path class="cls-4" d="M160.47,244.57c-.38-6-6.69-10.31-13.84-9.72s-12.54,5.9-12,11.85c.21,2.57,1.92,2.54,5.62,1.38,12-3.78,8.54,12.28,8.54,12.28s2.07-1.66,4.47-4C156.65,252.92,160.89,251.24,160.47,244.57Z"/><path class="cls-4" d="M99.93,238c1.59-5.76,8.66-8.72,15.53-6.68s11.07,8.34,9.37,14.06c-.73,2.47-2.4,2.09-5.78.2-11-6.16-10.87,10.27-10.87,10.27s-1.68-2.05-3.55-4.86C102,247,98.14,244.49,99.93,238Z"/><path class="cls-4" d="M96.44,234.14c3.4-4.92,1.14-12.24-4.83-16.2s-13.49-3.15-16.8,1.84c-1.42,2.15-.06,3.18,3.56,4.56,11.77,4.48-.91,14.93-.91,14.93s2.65,0,6-.4C88.26,238.33,92.63,239.64,96.44,234.14Z"/><path class="cls-4" d="M55.19,189c4.82-3.53,12.2-1.48,16.33,4.38s3.52,13.4-1.37,16.84c-2.11,1.48-3.18.15-4.66-3.43-4.8-11.64-14.9,1.32-14.9,1.32s0-2.65.23-6C51.23,197.31,49.8,193,55.19,189Z"/><path class="cls-4" d="M54.26,178.2C59.8,176,62,168.62,59.16,162s-9.52-10.06-15-7.73c-2.37,1-1.81,2.62.45,5.77,7.35,10.23-9,12-9,12s2.23,1.44,5.23,3C45.13,177.19,48.05,180.7,54.26,178.2Z"/><path class="cls-4" d="M49.4,117.55c6,.1,10.61,6.19,10.36,13.36s-5.29,12.8-11.27,12.59c-2.58-.09-2.63-1.8-1.64-5.55,3.21-12.18-12.67-8-12.67-8s1.56-2.14,3.82-4.65C41.24,121.76,42.72,117.44,49.4,117.55Z"/><path class="cls-4" d="M56.78,111.38c5.57,2.17,12.17-1.73,14.64-8.46S71.35,89.07,65.74,87c-2.42-.89-3.11.68-3.61,4.52C60.5,104,47.39,94.11,47.39,94.11s.64,2.57,1.78,5.75C50.81,104.4,50.54,109,56.78,111.38Z"/><path class="cls-4" d="M94.27,62.74c4.56,3.87,4.27,11.52-.47,16.9s-12.22,6.53-16.7,2.58c-1.93-1.71-.89-3.06,2.26-5.33,10.21-7.37-4.74-14.19-4.74-14.19s2.57-.66,5.9-1.17C85.29,60.81,89.17,58.41,94.27,62.74Z"/></g></g></svg>