<svg xmlns="http://www.w3.org/2000/svg" viewBox="0 0 138.46 56.47"><defs><style>.cls-1{fill:#0bb4c6;}.cls-2{font-size:72px;fill:#e5672f;font-family:PoorRichard-Regular, Poor Richard;}.cls-3{fill:#faa943;}</style></defs><title>DRD</title><g id="Layer_2" data-name="Layer 2"><g id="Layer_1-2" data-name="Layer 1"><path class="cls-1" d="M111.85,0a28.79,28.79,0,0,1,11.87,3,25.56,25.56,0,0,1,10.67,9.09,24.61,24.61,0,0,1,4.08,14.1q0,11-6.75,18T114.2,51.33l-19.93-.14a2.28,2.28,0,0,1-1.37-.41,1.31,1.31,0,0,1-.56-1.12,1.36,1.36,0,0,1,.39-1,4.11,4.11,0,0,1,2.11-.58,3.58,3.58,0,0,0,2.2-.74A2,2,0,0,0,97.51,46V6.08A4,4,0,0,0,97,3.8,1.89,1.89,0,0,0,95.91,3a13,13,0,0,0-2.23-.12,2,2,0,0,1-1.37-.34A1.4,1.4,0,0,1,92,1.46Q92,0,94.27,0Zm-8.4,44.06a3.43,3.43,0,0,0,1.87,3.12q1.87,1.09,6.87,1.09,5.43,0,8.21-1.4a18.41,18.41,0,0,0,7.67-7.69A21.66,21.66,0,0,0,131,28.51a46.57,46.57,0,0,0-.79-8.79,21.71,21.71,0,0,0-2.86-7.44A22.42,22.42,0,0,0,121.14,6Q117,3.06,110.07,3.06q-6.63,0-6.63,2.88Z"/><path class="cls-1" d="M44.19,0q2.32,0,2.32,1.46a1.4,1.4,0,0,1-.35,1.05,2,2,0,0,1-1.37.34A13,13,0,0,0,42.56,3a1.89,1.89,0,0,0-1.09.82A4,4,0,0,0,41,6.08V46a2,2,0,0,0,.47,1.35,3.58,3.58,0,0,0,2.2.74,4.11,4.11,0,0,1,2.11.58,1.36,1.36,0,0,1,.39,1,1.31,1.31,0,0,1-.56,1.12,2.28,2.28,0,0,1-1.37.41l-19.93.14q-10.76,0-17.51-7.07T0,26.23a24.61,24.61,0,0,1,4.08-14.1A25.56,25.56,0,0,1,14.75,3,28.79,28.79,0,0,1,26.61,0ZM35,5.94q0-2.88-6.63-2.88Q21.48,3.06,17.32,6a22.42,22.42,0,0,0-6.22,6.27,21.71,21.71,0,0,0-2.86,7.44,46.57,46.57,0,0,0-.79,8.79A21.66,21.66,0,0,0,10.4,39.18a18.41,18.41,0,0,0,7.67,7.69q2.78,1.4,8.21,1.4,5,0,6.87-1.09A3.43,3.43,0,0,0,35,44.06Z"/><text class="cls-2" transform="translate(94.96 56.47) rotate(-90) scale(1.25 1)">R</text><path class="cls-3" d="M57.23,10.53a1,1,0,0,1-1-1v-6a1,1,0,0,1,2,0v6A1,1,0,0,1,57.23,10.53Z"/><path class="cls-3" d="M61.78,12.16A1,1,0,0,1,61,10.57l3.69-5.13a1,1,0,1,1,1.62,1.17l-3.69,5.13A1,1,0,0,1,61.78,12.16Z"/><path class="cls-3" d="M65,15.55a1,1,0,0,1-.38-1.93l5.19-2.11a1,1,0,0,1,.76,1.85l-5.19,2.11A1,1,0,0,1,65,15.55Z"/><path class="cls-3" d="M52.61,11.81a1,1,0,0,1-.85-.47l-2.92-4.7a1,1,0,0,1,1.7-1.06l2.92,4.7a1,1,0,0,1-.85,1.53Z"/><path class="cls-3" d="M49.11,14.56a1,1,0,0,1-.48-.12L44.5,12.19a1,1,0,1,1,1-1.76l4.13,2.25a1,1,0,0,1-.48,1.88Z"/></g></g></svg>