<svg xmlns="http://www.w3.org/2000/svg" viewBox="0 0 138.69 73.27"><defs><style>.cls-1{fill:#0bb4c6;}.cls-2{font-size:72px;font-family:PoorRichard-Regular, Poor Richard;}.cls-2,.cls-3{fill:#e5672f;}.cls-4{fill:#faa943;}</style></defs><title>DRDtag</title><g id="Layer_2" data-name="Layer 2"><g id="Layer_1-2" data-name="Layer 1"><path class="cls-1" d="M111.85,0a28.79,28.79,0,0,1,11.87,3,25.56,25.56,0,0,1,10.67,9.09,24.61,24.61,0,0,1,4.08,14.1q0,11-6.75,18T114.2,51.33l-19.93-.14a2.28,2.28,0,0,1-1.37-.41,1.31,1.31,0,0,1-.56-1.12,1.36,1.36,0,0,1,.39-1,4.11,4.11,0,0,1,2.11-.58,3.58,3.58,0,0,0,2.2-.74A2,2,0,0,0,97.51,46V6.08A4,4,0,0,0,97,3.8,1.89,1.89,0,0,0,95.91,3a13,13,0,0,0-2.23-.12,2,2,0,0,1-1.37-.34A1.4,1.4,0,0,1,92,1.46Q92,0,94.27,0Zm-8.4,44.06a3.43,3.43,0,0,0,1.87,3.12q1.87,1.09,6.87,1.09,5.43,0,8.21-1.4a18.41,18.41,0,0,0,7.67-7.69A21.66,21.66,0,0,0,131,28.51a46.57,46.57,0,0,0-.79-8.79,21.71,21.71,0,0,0-2.86-7.44A22.42,22.42,0,0,0,121.14,6Q117,3.06,110.07,3.06q-6.63,0-6.63,2.88Z"/><path class="cls-1" d="M44.19,0q2.32,0,2.32,1.46a1.4,1.4,0,0,1-.35,1.05,2,2,0,0,1-1.37.34A13,13,0,0,0,42.56,3a1.89,1.89,0,0,0-1.09.82A4,4,0,0,0,41,6.08V46a2,2,0,0,0,.47,1.35,3.58,3.58,0,0,0,2.2.74,4.11,4.11,0,0,1,2.11.58,1.36,1.36,0,0,1,.39,1,1.31,1.31,0,0,1-.56,1.12,2.28,2.28,0,0,1-1.37.41l-19.93.14q-10.76,0-17.51-7.07T0,26.23a24.61,24.61,0,0,1,4.08-14.1A25.56,25.56,0,0,1,14.75,3,28.79,28.79,0,0,1,26.61,0ZM35,5.94q0-2.88-6.63-2.88Q21.48,3.06,17.32,6a22.42,22.42,0,0,0-6.22,6.27,21.71,21.71,0,0,0-2.86,7.44,46.57,46.57,0,0,0-.79,8.79A21.66,21.66,0,0,0,10.4,39.18a18.41,18.41,0,0,0,7.67,7.69q2.78,1.4,8.21,1.4,5,0,6.87-1.09A3.43,3.43,0,0,0,35,44.06Z"/><text class="cls-2" transform="translate(94.97 56.47) rotate(-90) scale(1.25 1)">R</text><path class="cls-3" d="M4.88,58.17a7.4,7.4,0,0,1,2.91.7A6.2,6.2,0,0,1,10.41,61a5.48,5.48,0,0,1,1,3.27,5.63,5.63,0,0,1-1.66,4.18,5.84,5.84,0,0,1-4.29,1.64L.57,70a.58.58,0,0,1-.34-.1.3.3,0,0,1-.14-.26.31.31,0,0,1,.09-.23,1,1,0,0,1,.52-.13.91.91,0,0,0,.54-.17.44.44,0,0,0,.12-.31V59.58a.88.88,0,0,0-.13-.53A.46.46,0,0,0,1,58.86a3.5,3.5,0,0,0-.55,0,.52.52,0,0,1-.34-.08A.32.32,0,0,1,0,58.51q0-.34.57-.34ZM2.82,68.39a.79.79,0,0,0,.46.72A3.86,3.86,0,0,0,5,69.37,4.86,4.86,0,0,0,7,69a4.41,4.41,0,0,0,1.88-1.78,4.81,4.81,0,0,0,.72-2.47,10.24,10.24,0,0,0-.19-2A4.88,4.88,0,0,0,8.68,61a5.35,5.35,0,0,0-1.53-1.45,4.8,4.8,0,0,0-2.71-.68q-1.63,0-1.63.67Z"/><path class="cls-3" d="M18.19,68.57q0,.59.83.81a.93.93,0,0,1,.31.13.33.33,0,0,1,.1.28.22.22,0,0,1-.13.19.57.57,0,0,1-.29.08,1.87,1.87,0,0,1-.44-.07,1.88,1.88,0,0,0-.45-.07,2.2,2.2,0,0,0-.5.07,2.16,2.16,0,0,1-.41.07A.41.41,0,0,1,17,70q-.12-.08-.12-.16t-.09-.13a.33.33,0,0,0-.16.06,4.09,4.09,0,0,1-2.1.57,3.29,3.29,0,0,1-1.19-.26,2.34,2.34,0,0,1-1.06-.8,2.21,2.21,0,0,1-.4-1.34,1.87,1.87,0,0,1,.86-1.5,3.54,3.54,0,0,1,2.21-.65,2.51,2.51,0,0,1,1,.24q.55.24.55.49a.22.22,0,0,1-.11.2.49.49,0,0,1-.28.07,1.41,1.41,0,0,1-.44-.15,1.63,1.63,0,0,0-.67-.15,1.75,1.75,0,0,0-1.17.39,1.31,1.31,0,0,0-.47,1.05,1.39,1.39,0,0,0,.53,1.17,2,2,0,0,0,1.23.41,1.91,1.91,0,0,0,1.16-.39,1.23,1.23,0,0,0,.53-1V65.85a1,1,0,0,0-.35-.81,1.35,1.35,0,0,0-.93-.31,2.67,2.67,0,0,0-1.45.45.83.83,0,0,1-.33.15.6.6,0,0,1-.35-.1.31.31,0,0,1-.15-.26q0-.4.77-.68A5,5,0,0,1,15.68,64a2.88,2.88,0,0,1,1.82.54,1.58,1.58,0,0,1,.69,1.28Z"/><path class="cls-3" d="M21.29,65.7a.57.57,0,0,0-.19-.46.55.55,0,0,0-.36-.16q-.52,0-.52-.31t.37-.36l.4.06a2.63,2.63,0,0,0,.45.06,2,2,0,0,0,.43,0l.3,0a.36.36,0,0,1,.31.11,2.77,2.77,0,0,1,.11.89q0,.78,0,1.82l0,1.42a1.36,1.36,0,0,0,0,.47.49.49,0,0,0,.21.18,1,1,0,0,0,.38.11.93.93,0,0,1,.31.08.24.24,0,0,1,.1.23c0,.19-.15.29-.44.29a3.62,3.62,0,0,1-.65-.06,3.46,3.46,0,0,0-.65-.06,4,4,0,0,0-.64.06,4,4,0,0,1-.57.06q-.48,0-.48-.26a.3.3,0,0,1,.09-.26.81.81,0,0,1,.33-.09.88.88,0,0,0,.39-.13.43.43,0,0,0,.19-.26,3.58,3.58,0,0,0,0-.67Zm3.92,0a.37.37,0,0,0-.17-.31.59.59,0,0,0-.37-.13,1.75,1.75,0,0,0-1,.46,1,1,0,0,1-.5.28q-.22,0-.22-.19,0-.42.81-1a2.65,2.65,0,0,1,1.45-.55,1.4,1.4,0,0,1,1,.37,1.14,1.14,0,0,1,.41.88l0,3.29a.54.54,0,0,0,.18.42.61.61,0,0,0,.43.17q.44,0,.44.33t-.46.29L26.65,70a7,7,0,0,0-.77-.05A5.15,5.15,0,0,0,25,70l-.46.06a.42.42,0,0,1-.27-.1.3.3,0,0,1-.12-.24c0-.15.1-.23.3-.23a.89.89,0,0,0,.52-.17.57.57,0,0,0,.24-.5Zm3.94,0a.37.37,0,0,0-.17-.31.59.59,0,0,0-.37-.13,1.54,1.54,0,0,0-.85.37,1.67,1.67,0,0,1-.67.37.31.31,0,0,1-.18-.06.18.18,0,0,1-.08-.14q0-.37.76-.93a2.59,2.59,0,0,1,1.54-.56,1.25,1.25,0,0,1,1.25.73,11.16,11.16,0,0,1,.12,2.41l0,1.39a.5.5,0,0,0,.15.39.93.93,0,0,0,.45.19.7.7,0,0,1,.37.14.28.28,0,0,1,.06.19q0,.31-.42.31L30.58,70a6.93,6.93,0,0,0-.78-.05,4.26,4.26,0,0,0-.7.06,4.14,4.14,0,0,1-.63.06.42.42,0,0,1-.27-.1.3.3,0,0,1-.12-.24c0-.17.13-.27.4-.29a.76.76,0,0,0,.53-.2.64.64,0,0,0,.13-.41Z"/><path class="cls-3" d="M37.58,66.77a.41.41,0,0,0,.27-.06.32.32,0,0,0,.07-.23,1.67,1.67,0,0,0-.51-1.16,2,2,0,0,0-1.55-.54,2.33,2.33,0,0,0-1.48.64,2.25,2.25,0,0,0-.76,1.82,2,2,0,0,0,.8,1.55,2.71,2.71,0,0,0,1.8.69A3.62,3.62,0,0,0,37.85,69a1.36,1.36,0,0,1,.44-.17.35.35,0,0,1,.25.08.27.27,0,0,1,.09.21q0,.3-1,.72a4.78,4.78,0,0,1-2,.42,3.51,3.51,0,0,1-2.51-1,3,3,0,0,1-1-2.29,2.56,2.56,0,0,1,1.12-2.08,4,4,0,0,1,2.5-.86,3.73,3.73,0,0,1,2.7.87,2.81,2.81,0,0,1,.9,2.09c0,.17,0,.28-.14.32a1.44,1.44,0,0,1-.51.06h-4c-.32,0-.48-.11-.48-.34s.17-.32.5-.32Z"/><path class="cls-3" d="M44,59.57q0-.62-.89-.67-.62,0-.62-.38t.71-.36a5.35,5.35,0,0,1,.74.06,5.06,5.06,0,0,0,.69.06q.19,0,1.05-.11A10.87,10.87,0,0,1,47,58a4.55,4.55,0,0,1,2.88.87A2.72,2.72,0,0,1,51,61.15a2,2,0,0,1-.55,1.46,5,5,0,0,1-1.88,1.07q-.25.09-.25.19a.46.46,0,0,0,.1.21q.47.64,1.79,2.75T51.63,69a1.2,1.2,0,0,0,.46.21,1.11,1.11,0,0,1,.47.24.39.39,0,0,1,.1.26q0,.19-.26.32a1,1,0,0,1-.41.13,2.23,2.23,0,0,1-1-.29,2.74,2.74,0,0,1-.75-.49q-.34-.41-2.2-3.32-.87-1.36-1-1.53a2.28,2.28,0,0,0-.91-.81.32.32,0,0,1-.15-.09.36.36,0,0,1,0-.19q0-.35.45-.36l.24,0,.39,0a2.26,2.26,0,0,0,1.58-.58A2.08,2.08,0,0,0,49.26,61a2.11,2.11,0,0,0-.72-1.46,2.66,2.66,0,0,0-2-.73,1.75,1.75,0,0,0-.69.1.49.49,0,0,0-.28.25,1.16,1.16,0,0,0-.06.4v9.15a.51.51,0,0,0,.25.44,1.13,1.13,0,0,0,.65.17,1.1,1.1,0,0,1,.58.11.35.35,0,0,1,.15.31A.38.38,0,0,1,47,70a1,1,0,0,1-.56.13A2.4,2.4,0,0,1,45.6,70a1.64,1.64,0,0,0-1.49,0,2.41,2.41,0,0,1-.76.17q-.79,0-.79-.47a.29.29,0,0,1,.13-.26,1.45,1.45,0,0,1,.64-.09.9.9,0,0,0,.51-.13.38.38,0,0,0,.2-.32Z"/><path class="cls-3" d="M59.2,68.57q0,.59.83.81a.93.93,0,0,1,.31.13.33.33,0,0,1,.1.28.22.22,0,0,1-.13.19.57.57,0,0,1-.29.08,1.87,1.87,0,0,1-.44-.07,1.88,1.88,0,0,0-.45-.07,2.2,2.2,0,0,0-.5.07,2.16,2.16,0,0,1-.41.07A.41.41,0,0,1,58,70q-.12-.08-.12-.16t-.09-.13a.33.33,0,0,0-.16.06,4.09,4.09,0,0,1-2.1.57,3.29,3.29,0,0,1-1.19-.26,2.34,2.34,0,0,1-1.06-.8,2.21,2.21,0,0,1-.4-1.34,1.87,1.87,0,0,1,.86-1.5,3.54,3.54,0,0,1,2.21-.65,2.51,2.51,0,0,1,1,.24q.55.24.55.49a.22.22,0,0,1-.11.2.49.49,0,0,1-.28.07,1.41,1.41,0,0,1-.44-.15,1.63,1.63,0,0,0-.67-.15,1.75,1.75,0,0,0-1.17.39,1.31,1.31,0,0,0-.47,1.05,1.39,1.39,0,0,0,.53,1.17,2,2,0,0,0,1.23.41,1.91,1.91,0,0,0,1.16-.39,1.23,1.23,0,0,0,.53-1V65.85a1,1,0,0,0-.35-.81,1.35,1.35,0,0,0-.93-.31,2.67,2.67,0,0,0-1.45.45.83.83,0,0,1-.33.15.6.6,0,0,1-.35-.1.31.31,0,0,1-.15-.26q0-.4.77-.68A5,5,0,0,1,56.69,64a2.88,2.88,0,0,1,1.82.54,1.58,1.58,0,0,1,.69,1.28Z"/><path class="cls-3" d="M62.28,65.7a.69.69,0,0,0-.13-.45.86.86,0,0,0-.52-.22q-.4-.07-.4-.34a.3.3,0,0,1,.14-.23.56.56,0,0,1,.36-.11,1.69,1.69,0,0,1,.33.06,1.75,1.75,0,0,0,.39.06l.44,0,.43,0a.25.25,0,0,1,.24.13,1.44,1.44,0,0,1,.08.54q0,.68,0,1.44l-.05,2.32a.65.65,0,0,0,0,.31.71.71,0,0,0,.2.15,1.38,1.38,0,0,0,.41.14.55.55,0,0,1,.32.14.32.32,0,0,1,.07.2q0,.27-.45.27a4,4,0,0,1-.64-.05,4.06,4.06,0,0,0-.65-.05,6.45,6.45,0,0,0-.67,0l-.61,0c-.29,0-.44-.1-.44-.31a.3.3,0,0,1,.08-.21.52.52,0,0,1,.34-.1A.67.67,0,0,0,62,69.3a1,1,0,0,0,.25-.34,2.21,2.21,0,0,0,.05-.6Zm5.29,3.13a.62.62,0,0,0,.13.46,1,1,0,0,0,.45.18c.22,0,.32.13.32.26s-.11.26-.32.26l-.52,0-.77,0A5.15,5.15,0,0,0,66,70l-.46.06a.48.48,0,0,1-.29-.1.29.29,0,0,1-.13-.24.27.27,0,0,1,.11-.2.39.39,0,0,1,.26-.1.84.84,0,0,0,.49-.15.51.51,0,0,0,.22-.45q0-2,0-2.43t0-.52a.55.55,0,0,0-.62-.63,1.46,1.46,0,0,0-.76.38,1.51,1.51,0,0,1-.7.38.24.24,0,0,1-.15-.08.24.24,0,0,1-.09-.17q0-.29.79-.88a2.61,2.61,0,0,1,1.55-.59,1.38,1.38,0,0,1,.77.22,1,1,0,0,1,.43.54,3.09,3.09,0,0,1,.11.92v2.88Z"/><path class="cls-3" d="M75.54,68.87q.24,0,.24.38c0,.16-.29.37-.87.63a4.48,4.48,0,0,1-1.83.38,4.16,4.16,0,0,1-2.69-.9,2.79,2.79,0,0,1-1.12-2.27A2.76,2.76,0,0,1,70.33,65,3.74,3.74,0,0,1,72.87,64a6.25,6.25,0,0,1,1.8.31q1,.31,1,.56a4.29,4.29,0,0,0,.05.74c0,.19.05.3.05.32a.32.32,0,0,1-.36.37q-.27,0-.42-.49a1.36,1.36,0,0,0-.63-.78,2.28,2.28,0,0,0-1.19-.29,2.57,2.57,0,0,0-1.65.62,2.14,2.14,0,0,0-.76,1.76,2.08,2.08,0,0,0,.86,1.71,2.86,2.86,0,0,0,1.78.67,3.19,3.19,0,0,0,.7-.08,3,3,0,0,0,.81-.33A1.58,1.58,0,0,1,75.54,68.87Z"/><path class="cls-3" d="M79.07,68.83a.59.59,0,0,0,.13.39.88.88,0,0,0,.57.22,1,1,0,0,1,.53.16.34.34,0,0,1,.09.25q0,.26-.49.26c-.17,0-.43,0-.77-.05s-.6-.05-.77-.05a6.8,6.8,0,0,0-.71.05,6.85,6.85,0,0,1-.71.05c-.4,0-.6-.1-.6-.3a.31.31,0,0,1,.09-.23,1.12,1.12,0,0,1,.54-.14.73.73,0,0,0,.6-.29,1.12,1.12,0,0,0,.14-.57V59.79a.53.53,0,0,0-.15-.37,1.36,1.36,0,0,0-.58-.3,1.88,1.88,0,0,1-.51-.21.21.21,0,0,1-.08-.16c0-.19.17-.29.51-.29l.45,0,.45,0a1.87,1.87,0,0,0,.44-.07,1.84,1.84,0,0,1,.42-.07.44.44,0,0,1,.31.11q.12.11.12.55Zm4.32-.12a.94.94,0,0,0,.13.51.72.72,0,0,0,.56.27,1,1,0,0,1,.51.14.33.33,0,0,1,.08.22c0,.13,0,.2-.13.23a1.88,1.88,0,0,1-.5,0l-.68,0-.67,0c-.16,0-.4,0-.72,0s-.56,0-.72,0q-.55,0-.55-.36a.26.26,0,0,1,.09-.2,1.17,1.17,0,0,1,.52-.12.76.76,0,0,0,.58-.25.81.81,0,0,0,.14-.48q0-.42,0-1.26t0-1.26a.75.75,0,0,0-.24-.59,1,1,0,0,0-.66-.21,1.75,1.75,0,0,0-1,.39,1.07,1.07,0,0,1-.51.24.27.27,0,0,1-.18-.09.26.26,0,0,1-.09-.18q0-.42.9-.92a3.21,3.21,0,0,1,1.44-.5,1.91,1.91,0,0,1,1,.29,1.47,1.47,0,0,1,.64.73,5.44,5.44,0,0,1,.09,1.35q0,.49,0,1.18C83.39,68.36,83.39,68.63,83.39,68.71Z"/><path class="cls-3" d="M92.71,58.17a7.4,7.4,0,0,1,2.91.7A6.19,6.19,0,0,1,98.24,61a5.48,5.48,0,0,1,1,3.27,5.63,5.63,0,0,1-1.66,4.18,5.84,5.84,0,0,1-4.29,1.64L88.4,70a.58.58,0,0,1-.34-.1.3.3,0,0,1-.14-.26.31.31,0,0,1,.09-.23,1,1,0,0,1,.52-.13.91.91,0,0,0,.54-.17.45.45,0,0,0,.12-.31V59.58a.88.88,0,0,0-.13-.53.47.47,0,0,0-.27-.19,3.51,3.51,0,0,0-.55,0,.52.52,0,0,1-.34-.08.32.32,0,0,1-.09-.24q0-.34.57-.34ZM90.65,68.39a.79.79,0,0,0,.46.72,3.86,3.86,0,0,0,1.69.25,4.86,4.86,0,0,0,2-.33,4.42,4.42,0,0,0,1.88-1.78,4.82,4.82,0,0,0,.72-2.47,10.24,10.24,0,0,0-.19-2,4.87,4.87,0,0,0-.7-1.73A5.36,5.36,0,0,0,95,59.57a4.81,4.81,0,0,0-2.72-.68q-1.63,0-1.62.67Z"/><path class="cls-3" d="M105.07,66.77a.41.41,0,0,0,.27-.06.32.32,0,0,0,.07-.23,1.68,1.68,0,0,0-.51-1.16,2,2,0,0,0-1.55-.54,2.34,2.34,0,0,0-1.48.64,2.25,2.25,0,0,0-.76,1.82,2,2,0,0,0,.8,1.55,2.71,2.71,0,0,0,1.8.69,3.62,3.62,0,0,0,1.64-.45,1.36,1.36,0,0,1,.44-.17.35.35,0,0,1,.25.08.27.27,0,0,1,.09.21q0,.3-1,.72a4.78,4.78,0,0,1-2,.42,3.51,3.51,0,0,1-2.51-1,3,3,0,0,1-1-2.29,2.56,2.56,0,0,1,1.12-2.08,4,4,0,0,1,2.51-.86A3.73,3.73,0,0,1,106,65a2.81,2.81,0,0,1,.9,2.09c0,.17,0,.28-.14.32a1.44,1.44,0,0,1-.51.06h-4c-.32,0-.48-.11-.48-.34s.17-.32.5-.32Z"/><path class="cls-3" d="M109,65.36a.57.57,0,0,0,.18.38,5.61,5.61,0,0,0,1.18.69,3.72,3.72,0,0,1,1.35,1,1.68,1.68,0,0,1,.35,1,1.51,1.51,0,0,1-.73,1.31,3.56,3.56,0,0,1-3.16.22q-.63-.26-.63-.53a5.29,5.29,0,0,0,0-.55,5.15,5.15,0,0,1,0-.52.35.35,0,0,1,.39-.4.3.3,0,0,1,.21.09,2.25,2.25,0,0,1,.3.6,1.43,1.43,0,0,0,.5.7,1.21,1.21,0,0,0,.66.19,1.11,1.11,0,0,0,.77-.28.94.94,0,0,0,.32-.73.84.84,0,0,0-.21-.55,3.88,3.88,0,0,0-1.17-.69,3.08,3.08,0,0,1-1.25-.84,1.52,1.52,0,0,1-.29-.89,1.27,1.27,0,0,1,.62-1.07,2.5,2.5,0,0,1,1.45-.43,4.11,4.11,0,0,1,1.35.23q.66.23.66.48a2.64,2.64,0,0,0,0,.38,2.58,2.58,0,0,1,0,.37.51.51,0,0,1-.09.3.27.27,0,0,1-.23.13.37.37,0,0,1-.28-.09.91.91,0,0,1-.15-.33.79.79,0,0,0-.22-.38,1.56,1.56,0,0,0-.41-.25,1.38,1.38,0,0,0-.57-.12,1.07,1.07,0,0,0-.6.19A.52.52,0,0,0,109,65.36Z"/><path class="cls-3" d="M115.44,68.68a.65.65,0,0,0,.16.52.84.84,0,0,0,.41.16,1,1,0,0,1,.37.1.3.3,0,0,1,.11.27c0,.18-.17.27-.5.27a6.32,6.32,0,0,1-.65,0,6.3,6.3,0,0,0-.64,0,4.05,4.05,0,0,0-.6.07,4,4,0,0,1-.6.07.56.56,0,0,1-.34-.11.33.33,0,0,1-.14-.28.25.25,0,0,1,.08-.19.8.8,0,0,1,.4-.13.72.72,0,0,0,.44-.19,1.27,1.27,0,0,0,.12-.71V65.69a.55.55,0,0,0-.16-.46,1.13,1.13,0,0,0-.46-.17.67.67,0,0,1-.37-.15.34.34,0,0,1-.07-.22.29.29,0,0,1,.13-.24.48.48,0,0,1,.3-.1,2.14,2.14,0,0,1,.42.06,2,2,0,0,0,.4.06,3.27,3.27,0,0,0,.45,0l.45,0q.32,0,.32.51c0,.05,0,.13,0,.22s0,.15,0,.18Zm-.7-7.08a1,1,0,0,1,.68.27.86.86,0,0,1,.29.64.7.7,0,0,1-.28.56,1,1,0,0,1-.67.23,1,1,0,0,1-.67-.26.8.8,0,0,1-.28-.61.77.77,0,0,1,.28-.59A.94.94,0,0,1,114.74,61.61Z"/><path class="cls-3" d="M123.12,67.73l0,0a3.48,3.48,0,0,1,1.38,1.11,2.56,2.56,0,0,1,.53,1.54,2.4,2.4,0,0,1-1.19,2.06,4.89,4.89,0,0,1-2.8.8,4.72,4.72,0,0,1-2.82-.83,2.55,2.55,0,0,1-1.16-2.17,2.32,2.32,0,0,1,.55-1.47,3.37,3.37,0,0,1,1.43-1l.05-.06-.07-.08a1.88,1.88,0,0,1-.68-.66,1.72,1.72,0,0,1-.25-.9,1.55,1.55,0,0,1,.73-1.31,3.93,3.93,0,0,1,1.85-.65.24.24,0,0,0,.2-.13,3.51,3.51,0,0,1,.61-.86,1.79,1.79,0,0,1,.77-.56,5.11,5.11,0,0,1,1.18-.09.43.43,0,0,1,.49.48.54.54,0,0,1-.24.46,1,1,0,0,1-.62.17l-.22,0-.22,0a1.12,1.12,0,0,0-.71.22q-.29.22-.29.29t.11.08a2.9,2.9,0,0,1,1.65.68A1.8,1.8,0,0,1,124,66.2a1.68,1.68,0,0,1-.85,1.45ZM121,72.58a2.9,2.9,0,0,0,1.88-.61,2,2,0,0,0,.76-1.6,1.91,1.91,0,0,0-.74-1.58,2.94,2.94,0,0,0-1.88-.59,2.85,2.85,0,0,0-1.92.59,2,2,0,0,0-.68,1.61,1.87,1.87,0,0,0,.81,1.58A2.92,2.92,0,0,0,121,72.58Zm.09-5a1.61,1.61,0,0,0,1.14-.44,1.38,1.38,0,0,0,.47-1,1.14,1.14,0,0,0-.22-.65,1.37,1.37,0,0,0-.58-.48,1.54,1.54,0,0,0-.48-.16s-.07,0-.08.07a.43.43,0,0,1-.44.38q-.3,0-.3-.32,0-.09-.08-.09a1.11,1.11,0,0,0-.41.14,1.22,1.22,0,0,0-.49.47,1.39,1.39,0,0,0-.2.74,1.22,1.22,0,0,0,.51,1A1.81,1.81,0,0,0,121.13,67.57Z"/><path class="cls-3" d="M127,65.7a.7.7,0,0,0-.12-.45.87.87,0,0,0-.52-.22q-.4-.07-.4-.34a.31.31,0,0,1,.14-.23.56.56,0,0,1,.36-.11,1.7,1.7,0,0,1,.33.06,1.75,1.75,0,0,0,.39.06l.44,0,.43,0a.25.25,0,0,1,.24.13,1.46,1.46,0,0,1,.08.54q0,.68,0,1.44l-.05,2.32a.65.65,0,0,0,0,.31.7.7,0,0,0,.2.15,1.37,1.37,0,0,0,.41.14.55.55,0,0,1,.32.14.32.32,0,0,1,.07.2q0,.27-.45.27a4,4,0,0,1-.64-.05,4.06,4.06,0,0,0-.65-.05,6.45,6.45,0,0,0-.67,0l-.61,0c-.29,0-.44-.1-.44-.31a.3.3,0,0,1,.08-.21.52.52,0,0,1,.34-.1.67.67,0,0,0,.36-.08A1,1,0,0,0,127,69a2.21,2.21,0,0,0,.05-.6Zm5.29,3.13a.62.62,0,0,0,.13.46,1,1,0,0,0,.45.18c.21,0,.32.13.32.26s-.11.26-.32.26l-.52,0-.77,0a5.16,5.16,0,0,0-.87.06l-.46.06A.48.48,0,0,1,130,70a.29.29,0,0,1-.13-.24.27.27,0,0,1,.11-.2.39.39,0,0,1,.26-.1.84.84,0,0,0,.49-.15.51.51,0,0,0,.22-.45q0-2,0-2.43t0-.52a.55.55,0,0,0-.62-.63,1.46,1.46,0,0,0-.76.38,1.51,1.51,0,0,1-.7.38.24.24,0,0,1-.15-.08.24.24,0,0,1-.09-.17q0-.29.79-.88a2.61,2.61,0,0,1,1.55-.59,1.38,1.38,0,0,1,.77.22,1,1,0,0,1,.43.54,3.07,3.07,0,0,1,.11.92v2.88Z"/><path class="cls-3" d="M135.63,65.36a.57.57,0,0,0,.18.38,5.61,5.61,0,0,0,1.18.69,3.72,3.72,0,0,1,1.35,1,1.68,1.68,0,0,1,.35,1,1.51,1.51,0,0,1-.73,1.31,3.56,3.56,0,0,1-3.16.22q-.63-.26-.63-.53a5.29,5.29,0,0,0,0-.55,5.15,5.15,0,0,1,0-.52.35.35,0,0,1,.39-.4.3.3,0,0,1,.21.09,2.25,2.25,0,0,1,.3.6,1.43,1.43,0,0,0,.5.7,1.21,1.21,0,0,0,.66.19,1.11,1.11,0,0,0,.77-.28.94.94,0,0,0,.32-.73A.84.84,0,0,0,137,68a3.88,3.88,0,0,0-1.17-.69,3.08,3.08,0,0,1-1.25-.84,1.52,1.52,0,0,1-.29-.89,1.27,1.27,0,0,1,.62-1.07,2.5,2.5,0,0,1,1.45-.43,4.11,4.11,0,0,1,1.35.23q.66.23.66.48a2.64,2.64,0,0,0,0,.38,2.58,2.58,0,0,1,0,.37.51.51,0,0,1-.09.3.27.27,0,0,1-.23.13.37.37,0,0,1-.28-.09.91.91,0,0,1-.15-.33.79.79,0,0,0-.22-.38,1.56,1.56,0,0,0-.41-.25,1.38,1.38,0,0,0-.57-.12,1.07,1.07,0,0,0-.6.19A.52.52,0,0,0,135.63,65.36Z"/><path class="cls-4" d="M57.23,10.53a1,1,0,0,1-1-1v-6a1,1,0,0,1,2,0v6A1,1,0,0,1,57.23,10.53Z"/><path class="cls-4" d="M61.77,12.16A1,1,0,0,1,61,10.57l3.69-5.13a1,1,0,1,1,1.62,1.17l-3.69,5.13A1,1,0,0,1,61.77,12.16Z"/><path class="cls-4" d="M65,15.55a1,1,0,0,1-.38-1.93l5.19-2.11a1,1,0,1,1,.75,1.85l-5.19,2.11A1,1,0,0,1,65,15.55Z"/><path class="cls-4" d="M52.61,11.81a1,1,0,0,1-.85-.47l-2.92-4.7a1,1,0,1,1,1.7-1.06l2.92,4.7a1,1,0,0,1-.85,1.53Z"/><path class="cls-4" d="M49.11,14.56a1,1,0,0,1-.48-.12L44.5,12.19a1,1,0,0,1,1-1.76l4.13,2.25a1,1,0,0,1-.48,1.88Z"/></g></g></svg>