<?xml version="1.0" encoding="iso-8859-1"?>
<!-- Generator: Adobe Illustrator 19.0.0, SVG Export Plug-In . SVG Version: 6.00 Build 0)  -->
<svg version="1.1" id="Layer_1" xmlns="http://www.w3.org/2000/svg" xmlns:xlink="http://www.w3.org/1999/xlink" x="0px" y="0px"
	 viewBox="0 0 512.001 512.001" style="enable-background:new 0 0 512.001 512.001;" xml:space="preserve">
<g>
	<g>
		<path d="M362.369,301.256c-12.203-14.603-23.967-30.877-29.998-41.106c6.155-4.391,11.29-9.576,15.415-15.585
			c19.686-28.67,8.914-65.893-0.901-91.398c-12.984-33.741-2.812-65.766,2.076-81.157c0.36-1.133,0.688-2.167,0.973-3.092
			l9.241-30.011l-29.922,9.527c-1.011,0.322-6.483,2.088-14.891,5.187c-24.701-15.913-45.85-39.523-46.078-39.779L256,0
			l-12.284,13.844c-0.237,0.266-21.934,24.549-47.217,40.505c-6.431-2.967-11.115-4.898-12.574-5.488l-32.025-12.959l10.168,33.018
			c0.286,0.925,0.613,1.959,0.973,3.092c4.889,15.391,15.061,47.416,2.076,81.157c-9.815,25.505-20.588,62.729-0.901,91.399
			c4.125,6.008,9.26,11.193,15.415,15.585c-6.031,10.23-17.795,26.503-29.998,41.106l-17.871,21.386l27.364,5.276
			c10.788,2.079,20.879,3.128,30.342,3.127c19.158-0.001,35.715-4.304,50.109-13.06v194.014h32.849V317.988
			c14.393,8.755,30.948,13.057,50.109,13.057c9.462,0,19.558-1.049,30.342-3.127l27.363-5.277L362.369,301.256z"/>
	</g>
</g>
<g>
</g>
<g>
</g>
<g>
</g>
<g>
</g>
<g>
</g>
<g>
</g>
<g>
</g>
<g>
</g>
<g>
</g>
<g>
</g>
<g>
</g>
<g>
</g>
<g>
</g>
<g>
</g>
<g>
</g>
</svg>
