<?xml version="1.0" encoding="iso-8859-1"?>
<!-- Generator: Adobe Illustrator 16.0.0, SVG Export Plug-In . SVG Version: 6.00 Build 0)  -->
<!DOCTYPE svg PUBLIC "-//W3C//DTD SVG 1.1//EN" "http://www.w3.org/Graphics/SVG/1.1/DTD/svg11.dtd">
<svg version="1.1" id="Capa_1" xmlns="http://www.w3.org/2000/svg" xmlns:xlink="http://www.w3.org/1999/xlink" x="0px" y="0px"
	 width="167.694px" height="167.694px" viewBox="0 0 167.694 167.694" style="enable-background:new 0 0 167.694 167.694;"
	 xml:space="preserve">
<g>
	<g>
		<path d="M26.16,80.422c0.021,0,0.232,0,0.253,0c1.756,0,3.398-0.482,4.867-1.26c7.642,8.018,8.844,9.843,13.996,24.107
			c0.282,0.802,0.551,1.609,0.87,2.41c0.221,0.617,0.432,1.213,0.669,1.867c0.069,0.195,0.253,0.306,0.367,0.475
			c4.4,9.893,11.707,19.786,22.615,28.835c2.462,2.046,4.87,3.907,7.229,5.601c0.201,0.664,0.422,1.329,0.665,1.988
			c3.159,8.611,9.493,15.478,17.819,19.332c5.732,2.652,11.755,3.918,17.682,3.918c15.969,0,31.282-9.097,38.423-24.5
			c0.301-0.654,0.295-1.492,0.047-2.168c-0.332-0.922-1.16-1.587-2.136-1.719c-0.991-0.143-1.951,0.253-2.552,1.033
			c-5.104,6.756-13.421,11.254-22.808,12.34c-9.387,1.061-23.91-0.643-42.436-13.494c-1.469-6.265-0.81-12.804,1.938-18.742
			c2.533-5.479,7.053-9.645,12.727-11.728c5.01-1.835,10.357-1.751,15.325,0.021c-0.158,1.509,0,3.032,0.548,4.493
			c1.456,3.85,5.189,6.434,9.308,6.434c1.208,0,2.379-0.216,3.513-0.633c5.131-1.94,7.72-7.699,5.79-12.825
			c-1.883-4.962-7.768-7.667-12.814-5.79c-1.777,0.675-3.274,1.825-4.393,3.307c-5.785-2.099-11.997-2.263-17.893-0.396
			c0.089-3.786-1.028-7.161-3.502-9.988c-7.792-8.901-25.758-9.36-29.479-9.36h-0.005c-0.994,0.011-1.896,0.562-2.36,1.438
			c-0.464,0.875-0.411,1.927,0.135,2.75c3.807,5.737,4.775,9.202,5.055,12.641c0.696,8.774,2.046,16.764,10.747,18.141
			c0.733,0.121,1.408,0.152,2.051,0.174c-2.133,4.968-3.095,10.251-2.776,15.524c-0.789-0.627-1.582-1.271-2.386-1.935
			c-10.984-9.112-18.117-19.09-22.054-28.931c-0.076-0.2-0.153-0.422-0.222-0.617c-6.141-15.873-3.958-31.324,3.818-42.161
			c2.128,0.609,4.292,1.01,6.473,1.01c3.602,0,7.222-0.826,10.628-2.474c6.03-2.916,10.682-8.053,13.094-14.454l2.903-7.691
			c0.316-0.847,0.195-1.799-0.338-2.531c-0.527-0.736-1.323-1.147-2.299-1.118c-0.222-0.013-22.842,0.804-31.611-11.799
			c-0.854-1.226-2.54-1.524-3.76-0.675c-1.226,0.852-1.527,2.531-0.675,3.758c8.053,11.567,24.619,13.711,32.271,14.062l-1.54,4.082
			c-1.922,5.105-5.616,9.192-10.394,11.499c-4.73,2.283-9.964,2.547-14.737,0.749c-4.772-1.798-8.527-5.453-10.568-10.296
			c-2.062-4.888-2.138-10.397-0.211-15.504l7.583-20.116c0.775-2.051,3.375-3.488,7.143-3.937c4.456-0.522,9.909,0.319,15.396,2.386
			c8.63,3.262,13.751,9.223,12.564,12.376c-0.591,1.59-9.2,2.988-17.01,0.045c-6.586-2.489-10.394-5.816-10.647-6.604
			c0.593-0.902,5.345-2.479,12.063,0.438c3.214,1.387,5.611,3.349,6.26,5.102c0.511,1.4,2.067,2.112,3.464,1.598
			c1.4-0.512,2.118-2.067,1.601-3.465c-1.195-3.235-4.451-6.146-9.176-8.192c-5.529-2.402-11.264-2.803-15.34-1.081
			c-1.967,0.833-3.317,2.091-3.895,3.631c-2.7,7.164,12.068,12.985,13.764,13.613c7.934,2.99,21.547,3.262,23.973-3.193
			c2.516-6.684-4.234-14.995-15.709-19.332c-6.286-2.371-12.675-3.325-17.94-2.7C52.211,0.896,48.11,3.52,46.573,7.585l-7.583,20.11
			c-2.418,6.41-2.315,13.331,0.287,19.504c2.144,5.084,5.822,9.073,10.444,11.66c-4.656,6.906-7.409,15.314-7.681,24.46
			c-1.701-2.354-3.805-4.701-6.755-7.812c1.021-1.582,1.659-3.436,1.706-5.432c0.066-2.821-0.97-5.497-2.919-7.538
			c-1.957-2.043-4.585-3.209-7.665-3.272c-5.782,0-10.42,4.535-10.555,10.328C15.705,75.441,20.338,80.29,26.16,80.422z
			 M124.794,158.039c3.17-0.369,6.229-1.081,9.14-2.099c-10.357,6.992-24.011,8.553-36.155,2.942
			c-5.205-2.41-9.481-6.218-12.439-10.99C102.145,157.796,115.65,159.099,124.794,158.039z M117.443,107.847
			c0.501-1.107,1.402-1.957,2.525-2.384c0.527-0.195,1.061-0.29,1.604-0.29c1.894,0,3.597,1.176,4.256,2.927
			c0.886,2.347-0.301,4.978-2.632,5.864c-2.31,0.864-5.015-0.38-5.858-2.652C116.905,110.188,116.942,108.954,117.443,107.847z
			 M77.207,113.615c-3.612-0.563-5.369-2.62-6.21-13.241c-0.303-3.697-1.297-7.035-3.288-10.789
			c7.077,0.58,16.334,2.552,20.498,7.309c1.841,2.104,2.537,4.604,2.142,7.594c-0.096,0.464-0.85,1.74-1.957,1.993
			c-1.292-8.332-7.696-10.831-8.005-10.947c-1.392-0.507-2.906,0.189-3.438,1.565c-0.535,1.377,0.156,2.933,1.521,3.491
			c0.211,0.09,5.013,2.136,4.73,9.604C82.688,111.896,81.246,114.265,77.207,113.615z M26.521,64.686L26.521,64.686
			c1.389,0.032,2.679,0.598,3.636,1.598c0.949,0.999,1.458,2.304,1.424,3.683c-0.063,2.792-2.381,5.065-5.16,5.065v2.7l-0.132-2.7
			c-2.845-0.065-5.112-2.436-5.049-5.286C21.301,66.898,23.562,64.686,26.521,64.686z"/>
	</g>
</g>
<g>
</g>
<g>
</g>
<g>
</g>
<g>
</g>
<g>
</g>
<g>
</g>
<g>
</g>
<g>
</g>
<g>
</g>
<g>
</g>
<g>
</g>
<g>
</g>
<g>
</g>
<g>
</g>
<g>
</g>
</svg>
