<?xml version="1.0" encoding="iso-8859-1"?>
<!-- Generator: Adobe Illustrator 19.0.0, SVG Export Plug-In . SVG Version: 6.00 Build 0)  -->
<svg version="1.1" id="divinity" xmlns="http://www.w3.org/2000/svg" xmlns:xlink="http://www.w3.org/1999/xlink" x="0px" y="0px"
	 viewBox="0 0 59.318 59.318" style="enable-background:new 0 0 59.318 59.318;" xml:space="preserve">
<g>
	<path d="M45.533,36.085c-0.423-2.783-2.271-5.156-4.713-6.426c2.442-1.27,4.29-3.643,4.713-6.427l0.026-0.178
		c0.459-3.32-0.651-6.703-3.047-9.283L29.659,0L16.805,13.773c-2.395,2.578-3.504,5.961-3.045,9.283l0.026,0.177
		c0.423,2.783,2.271,5.156,4.713,6.426c-2.442,1.27-4.291,3.643-4.713,6.426l-0.026,0.179c-0.459,3.32,0.651,6.703,3.047,9.283
		L29.66,59.318l12.854-13.773c2.395-2.578,3.504-5.961,3.045-9.283L45.533,36.085z M34.653,29.56l0.002,0.099l-0.002,0.099
		c-0.047,2.367-1.772,4.347-4.014,4.802c0.004,0.034,0.02,0.064,0.02,0.099c0,1.103,0.897,2,2,2s2-0.897,2-2c0-0.552,0.448-1,1-1
		s1,0.448,1,1c0,2.206-1.794,4-4,4c-1.2,0-2.266-0.542-3-1.382c-0.734,0.84-1.8,1.382-3,1.382c-2.206,0-4-1.794-4-4
		c0-0.552,0.448-1,1-1s1,0.448,1,1c0,1.103,0.897,2,2,2s2-0.897,2-2c0-0.035,0.016-0.065,0.02-0.099
		c-2.242-0.455-3.967-2.434-4.014-4.802l-0.002-0.099l0.002-0.099c0.047-2.367,1.772-4.347,4.014-4.802
		c-0.004-0.034-0.02-0.064-0.02-0.099c0-1.103-0.897-2-2-2s-2,0.897-2,2c0,0.552-0.448,1-1,1s-1-0.448-1-1c0-2.206,1.794-4,4-4
		c1.2,0,2.266,0.542,3,1.382c0.734-0.84,1.8-1.382,3-1.382c2.206,0,4,1.794,4,4c0,0.552-0.448,1-1,1s-1-0.448-1-1
		c0-1.103-0.897-2-2-2s-2,0.897-2,2c0,0.035-0.016,0.065-0.02,0.099C32.882,25.213,34.606,27.193,34.653,29.56z"/>
</g>
<g>
</g>
<g>
</g>
<g>
</g>
<g>
</g>
<g>
</g>
<g>
</g>
<g>
</g>
<g>
</g>
<g>
</g>
<g>
</g>
<g>
</g>
<g>
</g>
<g>
</g>
<g>
</g>
<g>
</g>
</svg>
